<svg width="141" height="41" viewBox="0 0 141 41" fill="none" xmlns="http://www.w3.org/2000/svg">
<g clip-path="url(#clip0_381_12947)">
<path d="M85.9908 14.2161C85.7588 14.3961 81.6628 16.7041 81.6628 21.8361C81.6628 27.7721 86.8748 29.8721 87.0308 29.9241C87.0068 30.0521 86.2028 32.8001 84.2828 35.6001C82.5708 38.0641 80.7828 40.5241 78.0628 40.5241C75.3428 40.5241 74.6428 38.9441 71.5028 38.9441C68.4428 38.9441 67.3548 40.5761 64.8668 40.5761C62.3788 40.5761 60.6428 38.2961 58.6468 35.4961C56.3348 32.2081 54.4668 27.1001 54.4668 22.2521C54.4668 14.4761 59.5228 10.3521 64.4988 10.3521C67.1428 10.3521 69.3468 12.0881 71.0068 12.0881C72.5868 12.0881 75.0508 10.2481 78.0588 10.2481C79.1988 10.2481 83.2948 10.3521 85.9908 14.2161ZM76.6308 6.95608C77.8748 5.48008 78.7548 3.43208 78.7548 1.38408C78.7548 1.10008 78.7308 0.812078 78.6788 0.580078C76.6548 0.656078 74.2468 1.92808 72.7948 3.61208C71.6548 4.90808 70.5908 6.95608 70.5908 9.03208C70.5908 9.34408 70.6428 9.65608 70.6668 9.75608C70.7948 9.78008 71.0028 9.80808 71.2108 9.80808C73.0268 9.80808 75.3108 8.59208 76.6308 6.95608Z" fill="#5B5B5B"/>
</g>
<defs>
<clipPath id="clip0_381_12947">
<rect width="140" height="40" fill="white" transform="translate(0.466797 0.580078)"/>
</clipPath>
</defs>
</svg>
