<svg width="141" height="41" viewBox="0 0 141 41" fill="none" xmlns="http://www.w3.org/2000/svg">
<path d="M34.4332 28.2188C34.7821 29.5647 35.3451 30.0851 36.3401 30.0851C37.3716 30.0851 37.9125 29.4532 37.9125 28.2188V5.30257H44.3738V28.2188C44.3738 31.449 43.9629 32.8486 42.3568 34.4869C41.1994 35.6675 39.0644 36.5801 36.3686 36.5801C34.1907 36.5801 32.1067 35.8449 30.7776 34.4871C29.6124 33.2966 28.9724 32.0738 27.9721 28.2186L24.0072 12.9413C23.6581 11.5955 23.0953 11.0753 22.1003 11.0753C21.0686 11.0753 20.5277 11.707 20.5277 12.9413V35.8578H14.0664V12.9413C14.0664 9.71134 14.4775 8.31152 16.0836 6.67327C17.2406 5.49313 19.3758 4.58008 22.0718 4.58008C24.2497 4.58008 26.3337 5.31544 27.6628 6.67304C28.828 7.86357 29.4681 9.08639 30.4683 12.9415L34.4332 28.2188Z" fill="#5B5B5B"/>
<path d="M119.904 35.8578L112.442 12.0524C112.36 11.7896 112.282 11.5666 112.163 11.4178C111.958 11.1633 111.674 11.0297 111.292 11.0297C110.911 11.0297 110.627 11.1633 110.422 11.4178C110.303 11.5663 110.225 11.7894 110.143 12.0524L102.681 35.8578H96.002L104.153 9.85335C104.577 8.49869 105.185 7.34857 105.955 6.58228C107.277 5.26802 108.834 4.58008 111.293 4.58008C113.751 4.58008 115.309 5.26802 116.63 6.58205C117.401 7.34857 118.008 8.49846 118.433 9.85313L126.583 35.8576H119.904V35.8578Z" fill="#5B5B5B"/>
<path d="M86.8803 35.8578C91.1134 35.8578 93.1782 34.9407 94.8095 33.2864C96.6145 31.4565 97.478 29.4543 97.478 26.465C97.478 23.8236 96.5297 21.3771 95.086 19.9131C93.1983 17.9988 90.8537 17.3955 87.0306 17.3955L81.6756 17.3953C79.6294 17.3953 78.814 17.1431 78.1689 16.4967C77.7258 16.0532 77.5182 15.3937 77.5182 14.6164C77.5182 13.8128 77.7079 13.0192 78.2494 12.4771C78.7301 11.996 79.3852 11.7752 80.6441 11.7752H96.1206V5.30257H81.8261C77.593 5.30257 75.5284 6.21991 73.8969 7.87396C72.0921 9.70389 71.2284 11.7059 71.2284 14.6952C71.2284 17.337 72.1767 19.7833 73.6204 21.247C75.5083 23.1614 77.8527 23.7649 81.6758 23.7649L87.031 23.7654C89.0772 23.7654 89.8926 24.0171 90.5378 24.6637C90.9808 25.1074 91.1885 25.7667 91.1885 26.544C91.1885 27.3476 90.9987 28.1412 90.4574 28.6833C89.9765 29.1644 89.3214 29.3852 88.0625 29.3852H72.101L65.979 9.85335C65.5544 8.49869 64.9473 7.34857 64.1771 6.58228C62.8551 5.26802 61.2973 4.58008 58.8391 4.58008C56.3809 4.58008 54.8229 5.26802 53.5016 6.58205C52.7312 7.34857 52.1243 8.49846 51.6997 9.85313L43.5488 35.8576H50.2276L57.6896 12.0522C57.772 11.7894 57.8497 11.5663 57.9692 11.4175C58.1743 11.1631 58.4581 11.0294 58.8396 11.0294C59.221 11.0294 59.5046 11.1631 59.7099 11.4175C59.8294 11.5661 59.9072 11.7892 59.9893 12.0522L67.4513 35.8576H86.8803V35.8578Z" fill="#5B5B5B"/>
</svg>
