<svg width="141" height="41" viewBox="0 0 141 41" fill="none" xmlns="http://www.w3.org/2000/svg">
<path d="M4.86719 38.4958H5.81111V34.8182H5.82569L7.70623 38.4958H8.91104V33.5777H7.96713V37.2562H7.95335L6.07929 33.5777H4.86719V38.4958ZM10.0032 38.4958H10.9901V36.3398H12.9622V38.4958H13.9491V33.5777H12.9622V35.5652H10.9901V33.5777H10.0032V38.4958ZM17.8236 33.6693C17.4646 33.5502 17.0701 33.4935 16.6471 33.4935C15.7802 33.4935 14.9278 33.8953 14.9278 34.994C14.9278 36.6218 17.0838 36.2345 17.0838 37.1711C17.0838 37.6151 16.5839 37.8055 16.2104 37.8055C15.8231 37.8055 15.435 37.6856 15.0971 37.5025L15.0056 38.3905C15.4917 38.5096 15.7307 38.5801 16.2663 38.5801C17.2597 38.5801 18.1128 38.1717 18.1128 37.0941C18.1128 35.4453 15.9568 35.8042 15.9568 34.9519C15.9568 34.4163 16.3935 34.2688 16.7314 34.2688C17.0765 34.2688 17.4217 34.3458 17.732 34.4795L17.8236 33.6693ZM20.9656 38.4958H21.9525V36.3398H23.6151V35.5652H21.9525V34.3531H23.6994V33.5777H20.9656V38.4958ZM24.1717 36.706C24.1717 37.7488 24.8693 38.5801 26.0669 38.5801C27.2717 38.5801 27.9693 37.7488 27.9693 36.706C27.9693 35.5085 27.1445 34.7825 26.0669 34.7825C24.9957 34.7825 24.1717 35.5085 24.1717 36.706ZM25.1578 36.5934C25.1578 36.0514 25.4535 35.5158 26.0669 35.5158C26.6867 35.5158 26.9824 36.0368 26.9824 36.5934C26.9824 37.1994 26.7928 37.8476 26.0669 37.8476C25.3482 37.8476 25.1578 37.1922 25.1578 36.5934ZM32.0415 34.8676H31.0976V36.6428C31.0976 37.1079 30.9493 37.8476 30.2663 37.8476C29.6602 37.8476 29.6529 37.2489 29.6529 36.8049V34.8676H28.709V37.1573C28.709 37.9748 29.0825 38.5801 29.9422 38.5801C30.4348 38.5801 30.844 38.3548 31.1324 38.0024H31.147V38.4958H32.0415V34.8676ZM33.0138 38.4958H33.9577V36.7206C33.9577 36.2555 34.1059 35.5158 34.789 35.5158C35.395 35.5158 35.4023 36.1145 35.4023 36.5586V38.4958H36.3462V36.2061C36.3462 35.3886 35.9727 34.7825 35.1131 34.7825C34.6196 34.7825 34.2186 34.9446 33.922 35.3602H33.9083V34.8676H33.0138V38.4958ZM38.072 36.6712C38.072 36.185 38.2414 35.5158 38.8539 35.5158C39.4599 35.5158 39.6998 36.164 39.6998 36.6712C39.6998 37.1857 39.4956 37.8476 38.8685 37.8476C38.2487 37.8476 38.072 37.1711 38.072 36.6712ZM39.7346 38.4958H40.651V33.2115H39.7071V35.2897H39.6925C39.4105 34.9446 39.08 34.7825 38.6076 34.7825C37.4943 34.7825 37.086 35.6705 37.086 36.6712C37.086 37.6645 37.4943 38.5801 38.6076 38.5801C39.0516 38.5801 39.4389 38.4391 39.7208 38.0875H39.7346V38.4958ZM41.8137 35.8682C42.1305 35.6284 42.5323 35.4737 42.9334 35.4737C43.49 35.4737 43.7509 35.6705 43.7509 36.2555H43.2291C42.8346 36.2555 42.3695 36.2904 42.0106 36.467C41.6516 36.6428 41.3907 36.9596 41.3907 37.5025C41.3907 38.1928 42.0178 38.5801 42.6587 38.5801C43.0882 38.5801 43.5605 38.3548 43.7793 37.953H43.7931C43.8003 38.0664 43.8003 38.3054 43.8352 38.4958H44.6665C44.6454 38.2139 44.6316 37.9603 44.6244 37.6856C44.6171 37.4182 44.6106 37.1427 44.6106 36.7765V36.3114C44.6106 35.2411 44.1528 34.7825 43.046 34.7825C42.645 34.7825 42.1515 34.8887 41.7853 35.058L41.8137 35.8682ZM42.2925 37.4458C42.2925 36.8891 42.9196 36.8186 43.3426 36.8186H43.7509C43.7509 37.1006 43.7088 37.3615 43.5532 37.5657C43.4058 37.7634 43.1805 37.8898 42.8913 37.8898C42.5534 37.8898 42.2925 37.7561 42.2925 37.4458ZM45.8502 37.4036C45.8502 38.1223 46.2594 38.5801 46.9991 38.5801C47.2803 38.5801 47.499 38.5525 47.6959 38.4958L47.6684 37.7488C47.5695 37.812 47.4075 37.8476 47.2382 37.8476C46.8792 37.8476 46.7941 37.5592 46.7941 37.2489V35.5579H47.6327V34.8676H46.7941V33.8386L45.8502 34.1416V34.8676H45.1526V35.5579H45.8502V37.4036ZM48.302 38.4958H49.2459V34.8676H48.302V38.4958ZM48.302 34.2048H49.2459V33.3031H48.302V34.2048ZM50.0067 36.706C50.0067 37.7488 50.7043 38.5801 51.9026 38.5801C53.1066 38.5801 53.8043 37.7488 53.8043 36.706C53.8043 35.5085 52.9803 34.7825 51.9026 34.7825C50.8315 34.7825 50.0067 35.5085 50.0067 36.706ZM50.9936 36.5934C50.9936 36.0514 51.2893 35.5158 51.9026 35.5158C52.5225 35.5158 52.8182 36.0368 52.8182 36.5934C52.8182 37.1994 52.6278 37.8476 51.9026 37.8476C51.184 37.8476 50.9936 37.1922 50.9936 36.5934ZM54.544 38.4958H55.4887V36.7206C55.4887 36.2555 55.6362 35.5158 56.32 35.5158C56.9261 35.5158 56.9326 36.1145 56.9326 36.5586V38.4958H57.8765V36.2061C57.8765 35.3886 57.5038 34.7825 56.6441 34.7825C56.1507 34.7825 55.7488 34.9446 55.4531 35.3602H55.4393V34.8676H54.544V38.4958ZM61.7874 38.4958H62.7735V34.3531H64.1825V33.5777H60.3777V34.3531H61.7874V38.4958ZM64.099 38.4958H65.0438V37.1646C65.0438 36.6428 65.0438 35.6843 65.8111 35.6843C65.9804 35.6843 66.1497 35.7127 66.234 35.7621V34.8109C66.1351 34.7825 66.0371 34.7825 65.9456 34.7825C65.3816 34.7825 64.9943 35.3537 64.9522 35.6916H64.9376V34.8676H64.099V38.4958ZM70.1514 34.8676H69.2075V36.6428C69.2075 37.1079 69.0593 37.8476 68.3762 37.8476C67.7702 37.8476 67.7629 37.2489 67.7629 36.8049V34.8676H66.819V37.1573C66.819 37.9748 67.1925 38.5801 68.0521 38.5801C68.5448 38.5801 68.9539 38.3548 69.2424 38.0024H69.257V38.4958H70.1514V34.8676ZM73.3429 34.917C73.0472 34.853 72.758 34.7825 72.314 34.7825C71.5742 34.7825 70.8912 35.1285 70.8912 35.9104C70.8912 37.2205 72.5327 36.7344 72.5327 37.4458C72.5327 37.7982 72.1519 37.8898 71.9129 37.8898C71.5888 37.8898 71.2785 37.7982 70.9827 37.6507L70.926 38.4253C71.2712 38.5169 71.6382 38.5801 71.9972 38.5801C72.7653 38.5801 73.5188 38.2422 73.5188 37.3963C73.5188 36.0862 71.8772 36.4524 71.8772 35.8747C71.8772 35.5652 72.1803 35.4737 72.4339 35.4737C72.779 35.4737 72.9905 35.5296 73.2797 35.6284L73.3429 34.917ZM74.5615 37.4036C74.5615 38.1223 74.9707 38.5801 75.7104 38.5801C75.9916 38.5801 76.2103 38.5525 76.408 38.4958L76.3797 37.7488C76.2808 37.812 76.1188 37.8476 75.9495 37.8476C75.5905 37.8476 75.5054 37.5592 75.5054 37.2489V35.5579H76.344V34.8676H75.5054V33.8386L74.5615 34.1416V34.8676H73.8639V35.5579H74.5615V37.4036Z" fill="#5B5B5B"/>
<path d="M11.0874 24.6017V24.9825C11.0874 25.541 11.013 26.0437 10.864 26.4906C10.7151 26.934 10.5035 27.3115 10.2293 27.6229C9.95509 27.9343 9.62842 28.173 9.24928 28.3389C8.87014 28.5047 8.44869 28.5877 7.98492 28.5877C7.52793 28.5877 7.10817 28.5047 6.72564 28.3389C6.3465 28.173 6.01814 27.9343 5.74056 27.6229C5.46298 27.3115 5.24802 26.934 5.09569 26.4906C4.94335 26.0437 4.86719 25.541 4.86719 24.9825V24.6017C4.86719 24.0397 4.94335 23.537 5.09569 23.0936C5.24802 22.6501 5.46128 22.2727 5.73548 21.9612C6.00968 21.6464 6.33635 21.4061 6.71549 21.2402C7.09801 21.0743 7.51777 20.9914 7.97477 20.9914C8.43853 20.9914 8.85999 21.0743 9.23912 21.2402C9.61826 21.4061 9.94493 21.6464 10.2191 21.9612C10.4967 22.2727 10.71 22.6501 10.8589 23.0936C11.0113 23.537 11.0874 24.0397 11.0874 24.6017ZM9.67581 24.9825V24.5915C9.67581 24.1887 9.63857 23.8349 9.5641 23.5302C9.48963 23.2222 9.37961 22.9632 9.23405 22.7534C9.08849 22.5435 8.90907 22.3861 8.69581 22.2811C8.48254 22.1728 8.24219 22.1186 7.97477 22.1186C7.70395 22.1186 7.46361 22.1728 7.25373 22.2811C7.04723 22.3861 6.8712 22.5435 6.72564 22.7534C6.58008 22.9632 6.46837 23.2222 6.39051 23.5302C6.31604 23.8349 6.2788 24.1887 6.2788 24.5915V24.9825C6.2788 25.3819 6.31604 25.7357 6.39051 26.0437C6.46837 26.3518 6.58008 26.6124 6.72564 26.8257C6.87459 27.0356 7.054 27.1947 7.26388 27.303C7.47376 27.4113 7.71411 27.4655 7.98492 27.4655C8.25574 27.4655 8.49608 27.4113 8.70596 27.303C8.91584 27.1947 9.09187 27.0356 9.23405 26.8257C9.37961 26.6124 9.48963 26.3518 9.5641 26.0437C9.63857 25.7357 9.67581 25.3819 9.67581 24.9825Z" fill="#434343"/>
<path d="M13.2201 22.992L14.2001 24.7388L15.1953 22.992H16.6526L15.0379 25.6832L16.7186 28.4861H15.2613L14.2102 26.6531L13.1541 28.4861H11.6968L13.3724 25.6832L11.7678 22.992H13.2201Z" fill="#434343"/>
<path d="M19.1864 28.4861H17.8357V22.4842C17.8357 22.0712 17.9153 21.7243 18.0744 21.4433C18.2335 21.1589 18.4603 20.944 18.7548 20.7984C19.0493 20.6529 19.3963 20.5801 19.7958 20.5801C19.9278 20.5801 20.053 20.5885 20.1715 20.6055C20.2934 20.6224 20.4135 20.6461 20.532 20.6766L20.5066 21.6972C20.4423 21.6803 20.3712 21.6684 20.2934 21.6616C20.2189 21.6549 20.136 21.6515 20.0446 21.6515C19.8618 21.6515 19.706 21.6836 19.5774 21.748C19.4488 21.8123 19.3506 21.9071 19.2829 22.0323C19.2186 22.1542 19.1864 22.3048 19.1864 22.4842V28.4861ZM20.2985 22.992V23.9568H17.0081V22.992H20.2985Z" fill="#434343"/>
<path d="M20.8875 25.7949V25.6883C20.8875 25.2855 20.945 24.9148 21.0601 24.5763C21.1752 24.2344 21.3428 23.9382 21.5628 23.6877C21.7828 23.4372 22.052 23.2425 22.3702 23.1037C22.6884 22.9615 23.0506 22.8905 23.4568 22.8905C23.8698 22.8905 24.2354 22.9615 24.5536 23.1037C24.8752 23.2425 25.146 23.4372 25.366 23.6877C25.5861 23.9382 25.7536 24.2344 25.8687 24.5763C25.9838 24.9148 26.0414 25.2855 26.0414 25.6883V25.7949C26.0414 26.1944 25.9838 26.565 25.8687 26.9069C25.7536 27.2455 25.5861 27.5417 25.366 27.7956C25.146 28.0461 24.8769 28.2407 24.5587 28.3795C24.2405 28.5183 23.8766 28.5877 23.467 28.5877C23.0607 28.5877 22.6968 28.5183 22.3752 28.3795C22.0537 28.2407 21.7828 28.0461 21.5628 27.7956C21.3428 27.5417 21.1752 27.2455 21.0601 26.9069C20.945 26.565 20.8875 26.1944 20.8875 25.7949ZM22.228 25.6883V25.7949C22.228 26.0353 22.2517 26.2604 22.2991 26.4703C22.3465 26.6801 22.4193 26.8646 22.5174 27.0237C22.6156 27.1828 22.7425 27.3081 22.8983 27.3995C23.0574 27.4875 23.2469 27.5315 23.467 27.5315C23.6836 27.5315 23.8698 27.4875 24.0255 27.3995C24.1812 27.3081 24.3082 27.1828 24.4063 27.0237C24.5079 26.8646 24.5824 26.6801 24.6298 26.4703C24.6772 26.2604 24.7009 26.0353 24.7009 25.7949V25.6883C24.7009 25.4513 24.6772 25.2296 24.6298 25.0231C24.5824 24.8132 24.5079 24.6287 24.4063 24.4696C24.3082 24.3071 24.1795 24.1802 24.0204 24.0888C23.8647 23.994 23.6768 23.9466 23.4568 23.9466C23.2402 23.9466 23.054 23.994 22.8983 24.0888C22.7425 24.1802 22.6156 24.3071 22.5174 24.4696C22.4193 24.6287 22.3465 24.8132 22.2991 25.0231C22.2517 25.2296 22.228 25.4513 22.228 25.6883Z" fill="#434343"/>
<path d="M28.3568 24.1142V28.4861H27.0163V22.992H28.2857L28.3568 24.1142ZM30.0274 22.9565L30.0071 24.2056C29.9326 24.192 29.848 24.1819 29.7532 24.1751C29.6618 24.1684 29.5755 24.165 29.4942 24.165C29.2878 24.165 29.1066 24.1937 28.9509 24.2513C28.7952 24.3054 28.6649 24.385 28.5599 24.4899C28.4584 24.5949 28.3805 24.7235 28.3264 24.8758C28.2722 25.0248 28.2417 25.1941 28.235 25.3836L27.9455 25.3481C27.9455 24.9994 27.9811 24.6761 28.0522 24.3782C28.1233 24.0803 28.2265 23.8197 28.3619 23.5963C28.4973 23.3728 28.6666 23.2002 28.8697 23.0783C29.0762 22.9531 29.3131 22.8905 29.5806 22.8905C29.655 22.8905 29.7346 22.8972 29.8192 22.9108C29.9072 22.9209 29.9766 22.9362 30.0274 22.9565Z" fill="#434343"/>
<path d="M33.9576 27.3182V20.6867H35.3083V28.4861H34.0896L33.9576 27.3182ZM30.4286 25.8051V25.6984C30.4286 25.2787 30.4759 24.8979 30.5707 24.556C30.6689 24.2107 30.8111 23.9145 30.9973 23.6673C31.1834 23.4202 31.4086 23.229 31.6726 23.0936C31.94 22.9582 32.243 22.8905 32.5815 22.8905C32.9099 22.8905 33.1959 22.9565 33.4397 23.0885C33.6868 23.2205 33.8966 23.4084 34.0693 23.6521C34.2453 23.8958 34.3858 24.1853 34.4907 24.5204C34.5957 24.8522 34.6719 25.2178 34.7192 25.6172V25.9066C34.6719 26.2959 34.5957 26.6531 34.4907 26.978C34.3858 27.303 34.2453 27.5874 34.0693 27.8311C33.8966 28.0714 33.6868 28.2576 33.4397 28.3896C33.1925 28.5217 32.9031 28.5877 32.5714 28.5877C32.2362 28.5877 31.9349 28.5183 31.6675 28.3795C31.4035 28.2407 31.1784 28.0461 30.9922 27.7956C30.8094 27.5451 30.6689 27.2505 30.5707 26.912C30.4759 26.5735 30.4286 26.2045 30.4286 25.8051ZM31.7742 25.6984V25.8051C31.7742 26.042 31.7945 26.2638 31.8351 26.4703C31.8757 26.6768 31.9417 26.8596 32.0331 27.0187C32.1245 27.1744 32.2413 27.2962 32.3835 27.3843C32.529 27.4723 32.7051 27.5163 32.9116 27.5163C33.1756 27.5163 33.3923 27.4587 33.5615 27.3436C33.7342 27.2252 33.8679 27.0644 33.9627 26.8612C34.0574 26.6548 34.1184 26.4229 34.1455 26.1656V25.3684C34.1319 25.1653 34.0964 24.9774 34.0388 24.8048C33.9847 24.6321 33.9068 24.4832 33.8052 24.3579C33.7071 24.2327 33.5852 24.1345 33.4397 24.0634C33.2941 23.9923 33.1214 23.9568 32.9217 23.9568C32.7152 23.9568 32.5392 24.0025 32.3936 24.0939C32.2481 24.1819 32.1296 24.3054 32.0382 24.4646C31.9468 24.6237 31.8791 24.8081 31.8351 25.018C31.7945 25.2279 31.7742 25.4547 31.7742 25.6984Z" fill="#434343"/>
<path d="M43.326 21.0929H44.7224V26.0031C44.7224 26.5684 44.6005 27.044 44.3568 27.43C44.1131 27.8125 43.7813 28.1019 43.3616 28.2982C42.9418 28.4912 42.4645 28.5877 41.9296 28.5877C41.388 28.5877 40.9056 28.4912 40.4825 28.2982C40.0593 28.1019 39.7276 27.8125 39.4872 27.43C39.2469 27.044 39.1267 26.5684 39.1267 26.0031V21.0929H40.5231V26.0031C40.5231 26.3484 40.5807 26.6311 40.6957 26.8511C40.8108 27.0677 40.9733 27.2285 41.1832 27.3335C41.3931 27.4384 41.6419 27.4909 41.9296 27.4909C42.2208 27.4909 42.4696 27.4384 42.6761 27.3335C42.8859 27.2285 43.0467 27.0677 43.1585 26.8511C43.2702 26.6311 43.326 26.3484 43.326 26.0031V21.0929Z" fill="#434343"/>
<path d="M47.2613 24.165V28.4861H45.9207V22.992H47.18L47.2613 24.165ZM47.048 25.541H46.6519C46.6553 25.1416 46.7095 24.7794 46.8144 24.4544C46.9194 24.1294 47.0666 23.8501 47.2562 23.6166C47.4491 23.383 47.6776 23.2036 47.9417 23.0783C48.2057 22.9531 48.5002 22.8905 48.8252 22.8905C49.0893 22.8905 49.3279 22.9277 49.5412 23.0022C49.7544 23.0766 49.9372 23.1951 50.0896 23.3576C50.2453 23.5201 50.3638 23.7334 50.445 23.9974C50.5296 24.2581 50.572 24.5796 50.572 24.9622V28.4861H49.2213V24.952C49.2213 24.7015 49.184 24.5035 49.1096 24.3579C49.0385 24.2124 48.9335 24.1091 48.7947 24.0482C48.6593 23.9872 48.4918 23.9568 48.2921 23.9568C48.0856 23.9568 47.9045 23.9991 47.7487 24.0837C47.5964 24.165 47.4678 24.2784 47.3628 24.4239C47.2613 24.5695 47.1834 24.7371 47.1292 24.9266C47.0751 25.1162 47.048 25.321 47.048 25.541Z" fill="#434343"/>
<path d="M53.1768 22.992V28.4861H51.8312V22.992H53.1768ZM51.7398 21.555C51.7398 21.3553 51.8075 21.1894 51.943 21.0574C52.0817 20.9254 52.2679 20.8594 52.5015 20.8594C52.7351 20.8594 52.9196 20.9254 53.055 21.0574C53.1938 21.1894 53.2632 21.3553 53.2632 21.555C53.2632 21.7513 53.1938 21.9155 53.055 22.0475C52.9196 22.1796 52.7351 22.2456 52.5015 22.2456C52.2679 22.2456 52.0817 22.1796 51.943 22.0475C51.8075 21.9155 51.7398 21.7513 51.7398 21.555Z" fill="#434343"/>
<path d="M56.2793 27.4706L57.5589 22.992H58.9604L57.0765 28.4861H56.2235L56.2793 27.4706ZM55.345 22.992L56.6399 27.4807L56.6856 28.4861H55.8274L53.9385 22.992H55.345Z" fill="#434343"/>
<path d="M62.0629 28.5877C61.6465 28.5877 61.2725 28.52 60.9407 28.3846C60.609 28.2492 60.3263 28.0613 60.0927 27.8209C59.8625 27.5772 59.6848 27.2945 59.5596 26.973C59.4377 26.648 59.3768 26.2993 59.3768 25.9269V25.7238C59.3768 25.3007 59.4377 24.9165 59.5596 24.5712C59.6814 24.2225 59.8541 23.9229 60.0775 23.6724C60.3009 23.4219 60.5683 23.229 60.8798 23.0936C61.1912 22.9582 61.5348 22.8905 61.9106 22.8905C62.2999 22.8905 62.6434 22.9565 62.9413 23.0885C63.2392 23.2171 63.488 23.3999 63.6878 23.6369C63.8875 23.8738 64.0381 24.1582 64.1397 24.4899C64.2412 24.8183 64.292 25.1822 64.292 25.5817V26.1453H59.9861V25.2211H62.9718V25.1196C62.965 24.9063 62.9244 24.7117 62.8499 24.5356C62.7755 24.3562 62.6604 24.2141 62.5047 24.1091C62.3489 24.0008 62.1475 23.9466 61.9004 23.9466C61.7007 23.9466 61.5263 23.9906 61.3774 24.0786C61.2318 24.1633 61.11 24.2851 61.0118 24.4442C60.917 24.6 60.8459 24.7861 60.7985 25.0028C60.7511 25.2194 60.7274 25.4598 60.7274 25.7238V25.9269C60.7274 26.1571 60.7579 26.3704 60.8188 26.5667C60.8832 26.7631 60.9763 26.934 61.0981 27.0796C61.2234 27.2218 61.3723 27.3335 61.545 27.4147C61.721 27.4926 61.9207 27.5315 62.1441 27.5315C62.4251 27.5315 62.679 27.4773 62.9058 27.369C63.136 27.2573 63.3357 27.0931 63.505 26.8765L64.1803 27.5772C64.0652 27.7465 63.9095 27.909 63.7132 28.0647C63.5202 28.2204 63.2866 28.3473 63.0124 28.4455C62.7382 28.5403 62.4217 28.5877 62.0629 28.5877Z" fill="#434343"/>
<path d="M66.5313 24.1142V28.4861H65.1908V22.992H66.4602L66.5313 24.1142ZM68.2019 22.9565L68.1816 24.2056C68.1071 24.192 68.0225 24.1819 67.9277 24.1751C67.8363 24.1684 67.75 24.165 67.6687 24.165C67.4622 24.165 67.2811 24.1937 67.1254 24.2513C66.9697 24.3054 66.8394 24.385 66.7344 24.4899C66.6329 24.5949 66.555 24.7235 66.5008 24.8758C66.4467 25.0248 66.4162 25.1941 66.4094 25.3836L66.12 25.3481C66.12 24.9994 66.1556 24.6761 66.2266 24.3782C66.2977 24.0803 66.401 23.8197 66.5364 23.5963C66.6718 23.3728 66.8411 23.2002 67.0442 23.0783C67.2507 22.9531 67.4876 22.8905 67.755 22.8905C67.8295 22.8905 67.9091 22.8972 67.9937 22.9108C68.0817 22.9209 68.1511 22.9362 68.2019 22.9565Z" fill="#434343"/>
<path d="M71.9594 26.9831C71.9594 26.868 71.929 26.7648 71.868 26.6734C71.8071 26.582 71.692 26.499 71.5227 26.4246C71.3569 26.3467 71.1131 26.2739 70.7915 26.2062C70.5072 26.1453 70.2448 26.0691 70.0045 25.9777C69.7641 25.8863 69.5576 25.7763 69.385 25.6477C69.2124 25.5156 69.077 25.3616 68.9788 25.1856C68.884 25.0062 68.8366 24.7997 68.8366 24.5661C68.8366 24.3393 68.8857 24.126 68.9839 23.9263C69.082 23.7232 69.2242 23.5455 69.4104 23.3931C69.5966 23.2374 69.8234 23.1156 70.0908 23.0276C70.3582 22.9362 70.6595 22.8905 70.9946 22.8905C71.4618 22.8905 71.8629 22.9666 72.1981 23.119C72.5366 23.2713 72.7956 23.4812 72.975 23.7486C73.1544 24.0126 73.2441 24.3105 73.2441 24.6423H71.9036C71.9036 24.4967 71.8697 24.3647 71.802 24.2462C71.7377 24.1277 71.6378 24.0329 71.5024 23.9619C71.367 23.8874 71.1961 23.8501 70.9896 23.8501C70.8034 23.8501 70.646 23.8806 70.5173 23.9415C70.3921 24.0025 70.2973 24.082 70.233 24.1802C70.1687 24.2784 70.1365 24.3867 70.1365 24.5052C70.1365 24.5932 70.1534 24.6727 70.1873 24.7438C70.2245 24.8115 70.2838 24.8742 70.365 24.9317C70.4462 24.9893 70.5563 25.0417 70.6951 25.0891C70.8372 25.1365 71.0116 25.1822 71.2181 25.2262C71.6277 25.3075 71.9848 25.4158 72.2895 25.5512C72.5975 25.6832 72.8379 25.8592 73.0105 26.0793C73.1832 26.2993 73.2695 26.5803 73.2695 26.9222C73.2695 27.1659 73.217 27.3893 73.1121 27.5924C73.0071 27.7922 72.8548 27.9665 72.6551 28.1154C72.4553 28.2644 72.2167 28.3812 71.9391 28.4658C71.6615 28.5471 71.3484 28.5877 70.9997 28.5877C70.4953 28.5877 70.0688 28.498 69.7201 28.3186C69.3715 28.1358 69.1074 27.9056 68.928 27.628C68.7486 27.347 68.6589 27.0559 68.6589 26.7546H69.9436C69.9537 26.9679 70.0113 27.1388 70.1162 27.2675C70.2211 27.3961 70.3532 27.4892 70.5123 27.5467C70.6747 27.6009 70.8457 27.628 71.0251 27.628C71.2282 27.628 71.3992 27.6009 71.538 27.5467C71.6768 27.4892 71.7817 27.413 71.8528 27.3182C71.9239 27.2201 71.9594 27.1084 71.9594 26.9831Z" fill="#434343"/>
<path d="M75.7119 22.992V28.4861H74.3663V22.992H75.7119ZM74.2749 21.555C74.2749 21.3553 74.3426 21.1894 74.478 21.0574C74.6168 20.9254 74.803 20.8594 75.0365 20.8594C75.2701 20.8594 75.4546 20.9254 75.59 21.0574C75.7288 21.1894 75.7982 21.3553 75.7982 21.555C75.7982 21.7513 75.7288 21.9155 75.59 22.0475C75.4546 22.1796 75.2701 22.2456 75.0365 22.2456C74.803 22.2456 74.6168 22.1796 74.478 22.0475C74.3426 21.9155 74.2749 21.7513 74.2749 21.555Z" fill="#434343"/>
<path d="M79.5913 22.992V23.9568H76.4431V22.992H79.5913ZM77.286 21.6413H78.6316V26.9019C78.6316 27.0644 78.6536 27.1896 78.6976 27.2776C78.7416 27.3656 78.8076 27.4249 78.8956 27.4553C78.9836 27.4858 79.0886 27.501 79.2104 27.501C79.2984 27.501 79.3797 27.496 79.4542 27.4858C79.5286 27.4757 79.5913 27.4655 79.642 27.4553L79.6471 28.4607C79.5354 28.498 79.4085 28.5284 79.2663 28.5521C79.1275 28.5758 78.9701 28.5877 78.7941 28.5877C78.4928 28.5877 78.2287 28.5369 78.0019 28.4353C77.7751 28.3304 77.5991 28.1628 77.4738 27.9327C77.3486 27.6991 77.286 27.391 77.286 27.0085V21.6413Z" fill="#434343"/>
<path d="M82.0946 27.8768L83.5671 22.992H85.0041L82.8004 29.3189C82.7496 29.4543 82.6836 29.6015 82.6024 29.7606C82.5245 29.9197 82.4196 30.0704 82.2875 30.2126C82.1555 30.3581 81.9897 30.4766 81.7899 30.568C81.5936 30.6594 81.3549 30.7051 81.074 30.7051C80.9521 30.7051 80.8438 30.6966 80.749 30.6797C80.6542 30.6628 80.5543 30.6408 80.4494 30.6137V29.6083C80.4833 29.6117 80.5222 29.6134 80.5662 29.6134C80.6136 29.6168 80.6542 29.6185 80.6881 29.6185C80.8844 29.6185 81.0469 29.5948 81.1755 29.5474C81.3042 29.5034 81.4074 29.4306 81.4853 29.329C81.5665 29.2309 81.6342 29.1022 81.6884 28.9431L82.0946 27.8768ZM81.3685 22.992L82.6125 27.039L82.8309 28.4557L81.9067 28.6232L79.9213 22.992H81.3685Z" fill="#434343"/>
<path d="M93.2504 24.1447V25.2414H89.3608V24.1447H93.2504ZM89.7417 21.0929V28.4861H88.3453V21.0929H89.7417ZM94.2863 21.0929V28.4861H92.8899V21.0929H94.2863Z" fill="#434343"/>
<path d="M95.3678 25.7949V25.6883C95.3678 25.2855 95.4254 24.9148 95.5405 24.5763C95.6556 24.2344 95.8231 23.9382 96.0432 23.6877C96.2632 23.4372 96.5323 23.2425 96.8505 23.1037C97.1687 22.9615 97.5309 22.8905 97.9372 22.8905C98.3501 22.8905 98.7157 22.9615 99.0339 23.1037C99.3555 23.2425 99.6264 23.4372 99.8464 23.6877C100.066 23.9382 100.234 24.2344 100.349 24.5763C100.464 24.9148 100.522 25.2855 100.522 25.6883V25.7949C100.522 26.1944 100.464 26.565 100.349 26.9069C100.234 27.2455 100.066 27.5417 99.8464 27.7956C99.6264 28.0461 99.3572 28.2407 99.039 28.3795C98.7208 28.5183 98.3569 28.5877 97.9473 28.5877C97.5411 28.5877 97.1772 28.5183 96.8556 28.3795C96.534 28.2407 96.2632 28.0461 96.0432 27.7956C95.8231 27.5417 95.6556 27.2455 95.5405 26.9069C95.4254 26.565 95.3678 26.1944 95.3678 25.7949ZM96.7083 25.6883V25.7949C96.7083 26.0353 96.732 26.2604 96.7794 26.4703C96.8268 26.6801 96.8996 26.8646 96.9978 27.0237C97.0959 27.1828 97.2229 27.3081 97.3786 27.3995C97.5377 27.4875 97.7273 27.5315 97.9473 27.5315C98.164 27.5315 98.3501 27.4875 98.5059 27.3995C98.6616 27.3081 98.7885 27.1828 98.8867 27.0237C98.9882 26.8646 99.0627 26.6801 99.1101 26.4703C99.1575 26.2604 99.1812 26.0353 99.1812 25.7949V25.6883C99.1812 25.4513 99.1575 25.2296 99.1101 25.0231C99.0627 24.8132 98.9882 24.6287 98.8867 24.4696C98.7885 24.3071 98.6599 24.1802 98.5008 24.0888C98.3451 23.994 98.1572 23.9466 97.9372 23.9466C97.7205 23.9466 97.5343 23.994 97.3786 24.0888C97.2229 24.1802 97.0959 24.3071 96.9978 24.4696C96.8996 24.6287 96.8268 24.8132 96.7794 25.0231C96.732 25.2296 96.7083 25.4513 96.7083 25.6883Z" fill="#434343"/>
<path d="M104.518 26.9831C104.518 26.868 104.487 26.7648 104.427 26.6734C104.366 26.582 104.25 26.499 104.081 26.4246C103.915 26.3467 103.672 26.2739 103.35 26.2062C103.066 26.1453 102.803 26.0691 102.563 25.9777C102.323 25.8863 102.116 25.7763 101.943 25.6477C101.771 25.5156 101.635 25.3616 101.537 25.1856C101.442 25.0062 101.395 24.7997 101.395 24.5661C101.395 24.3393 101.444 24.126 101.542 23.9263C101.641 23.7232 101.783 23.5455 101.969 23.3931C102.155 23.2374 102.382 23.1156 102.649 23.0276C102.917 22.9362 103.218 22.8905 103.553 22.8905C104.02 22.8905 104.421 22.9666 104.757 23.119C105.095 23.2713 105.354 23.4812 105.533 23.7486C105.713 24.0126 105.803 24.3105 105.803 24.6423H104.462C104.462 24.4967 104.428 24.3647 104.361 24.2462C104.296 24.1277 104.196 24.0329 104.061 23.9619C103.926 23.8874 103.755 23.8501 103.548 23.8501C103.362 23.8501 103.204 23.8806 103.076 23.9415C102.951 24.0025 102.856 24.082 102.791 24.1802C102.727 24.2784 102.695 24.3867 102.695 24.5052C102.695 24.5932 102.712 24.6727 102.746 24.7438C102.783 24.8115 102.842 24.8742 102.923 24.9317C103.005 24.9893 103.115 25.0417 103.254 25.0891C103.396 25.1365 103.57 25.1822 103.777 25.2262C104.186 25.3075 104.543 25.4158 104.848 25.5512C105.156 25.6832 105.396 25.8592 105.569 26.0793C105.742 26.2993 105.828 26.5803 105.828 26.9222C105.828 27.1659 105.775 27.3893 105.671 27.5924C105.566 27.7922 105.413 27.9665 105.214 28.1154C105.014 28.2644 104.775 28.3812 104.498 28.4658C104.22 28.5471 103.907 28.5877 103.558 28.5877C103.054 28.5877 102.627 28.498 102.279 28.3186C101.93 28.1358 101.666 27.9056 101.486 27.628C101.307 27.347 101.217 27.0559 101.217 26.7546H102.502C102.512 26.9679 102.57 27.1388 102.675 27.2675C102.78 27.3961 102.912 27.4892 103.071 27.5467C103.233 27.6009 103.404 27.628 103.584 27.628C103.787 27.628 103.958 27.6009 104.096 27.5467C104.235 27.4892 104.34 27.413 104.411 27.3182C104.482 27.2201 104.518 27.1084 104.518 26.9831Z" fill="#434343"/>
<path d="M108.189 24.0482V30.5985H106.844V22.992H108.088L108.189 24.0482ZM111.718 25.6832V25.7898C111.718 26.1893 111.671 26.56 111.576 26.9019C111.485 27.2404 111.349 27.5366 111.17 27.7905C110.99 28.041 110.767 28.2373 110.499 28.3795C110.235 28.5183 109.931 28.5877 109.585 28.5877C109.247 28.5877 108.952 28.5234 108.702 28.3947C108.451 28.2627 108.24 28.0765 108.067 27.8362C107.895 27.5958 107.756 27.3166 107.651 26.9983C107.549 26.6768 107.473 26.3264 107.422 25.9473V25.607C107.473 25.2042 107.549 24.8386 107.651 24.5103C107.756 24.1785 107.895 23.8925 108.067 23.6521C108.24 23.4084 108.45 23.2205 108.697 23.0885C108.947 22.9565 109.24 22.8905 109.575 22.8905C109.924 22.8905 110.23 22.9565 110.494 23.0885C110.762 23.2205 110.987 23.4101 111.17 23.6572C111.353 23.9043 111.49 24.1988 111.581 24.5407C111.672 24.8826 111.718 25.2635 111.718 25.6832ZM110.373 25.7898V25.6832C110.373 25.4395 110.351 25.2144 110.307 25.0079C110.263 24.798 110.195 24.6152 110.103 24.4595C110.012 24.3004 109.894 24.1768 109.748 24.0888C109.602 24.0008 109.426 23.9568 109.22 23.9568C109.013 23.9568 108.836 23.9906 108.687 24.0583C108.538 24.126 108.416 24.2225 108.321 24.3478C108.226 24.473 108.152 24.622 108.098 24.7946C108.047 24.9639 108.013 25.1517 107.996 25.3582V26.2011C108.027 26.4516 108.086 26.6768 108.174 26.8765C108.262 27.0762 108.391 27.2353 108.56 27.3538C108.732 27.4723 108.956 27.5315 109.23 27.5315C109.437 27.5315 109.613 27.4858 109.758 27.3944C109.904 27.303 110.022 27.1778 110.114 27.0187C110.205 26.8562 110.271 26.67 110.312 26.4601C110.352 26.2502 110.373 26.0268 110.373 25.7898Z" fill="#434343"/>
<path d="M114.12 22.992V28.4861H112.774V22.992H114.12ZM112.683 21.555C112.683 21.3553 112.751 21.1894 112.886 21.0574C113.025 20.9254 113.211 20.8594 113.445 20.8594C113.678 20.8594 113.863 20.9254 113.998 21.0574C114.137 21.1894 114.206 21.3553 114.206 21.555C114.206 21.7513 114.137 21.9155 113.998 22.0475C113.863 22.1796 113.678 22.2456 113.445 22.2456C113.211 22.2456 113.025 22.1796 112.886 22.0475C112.751 21.9155 112.683 21.7513 112.683 21.555Z" fill="#434343"/>
<path d="M117.999 22.992V23.9568H114.851V22.992H117.999ZM115.694 21.6413H117.04V26.9019C117.04 27.0644 117.062 27.1896 117.106 27.2776C117.15 27.3656 117.216 27.4249 117.304 27.4553C117.392 27.4858 117.497 27.501 117.618 27.501C117.707 27.501 117.788 27.496 117.862 27.4858C117.937 27.4757 117.999 27.4655 118.05 27.4553L118.055 28.4607C117.943 28.498 117.817 28.5284 117.674 28.5521C117.536 28.5758 117.378 28.5877 117.202 28.5877C116.901 28.5877 116.637 28.5369 116.41 28.4353C116.183 28.3304 116.007 28.1628 115.882 27.9327C115.757 27.6991 115.694 27.391 115.694 27.0085V21.6413Z" fill="#434343"/>
<path d="M121.919 27.3182V24.7845C121.919 24.5983 121.887 24.4375 121.823 24.3021C121.759 24.1667 121.66 24.0617 121.528 23.9872C121.396 23.9128 121.229 23.8755 121.026 23.8755C120.846 23.8755 120.689 23.906 120.553 23.9669C120.421 24.0279 120.32 24.1142 120.249 24.2259C120.178 24.3342 120.142 24.4595 120.142 24.6017H118.797C118.797 24.3748 118.851 24.1599 118.959 23.9568C119.067 23.7503 119.221 23.5675 119.421 23.4084C119.624 23.2459 119.866 23.119 120.147 23.0276C120.432 22.9362 120.75 22.8905 121.102 22.8905C121.518 22.8905 121.889 22.9615 122.214 23.1037C122.542 23.2425 122.799 23.4524 122.986 23.7334C123.175 24.0143 123.27 24.3681 123.27 24.7946V27.1913C123.27 27.4655 123.287 27.7008 123.321 27.8971C123.358 28.0901 123.412 28.2576 123.483 28.3998V28.4861H122.117C122.053 28.3473 122.004 28.1713 121.97 27.958C121.936 27.7414 121.919 27.5281 121.919 27.3182ZM122.107 25.1399L122.117 25.9371H121.269C121.06 25.9371 120.875 25.9591 120.716 26.0031C120.557 26.0437 120.426 26.1047 120.325 26.1859C120.223 26.2638 120.147 26.3586 120.096 26.4703C120.046 26.5786 120.02 26.7021 120.02 26.8409C120.02 26.9763 120.051 27.0982 120.112 27.2065C120.176 27.3149 120.267 27.4012 120.386 27.4655C120.508 27.5264 120.65 27.5569 120.812 27.5569C121.049 27.5569 121.256 27.5095 121.432 27.4147C121.608 27.3166 121.745 27.1981 121.843 27.0593C121.941 26.9205 121.994 26.7885 122.001 26.6632L122.386 27.2421C122.339 27.3809 122.268 27.5281 122.173 27.6838C122.078 27.8396 121.957 27.9851 121.808 28.1205C121.659 28.2559 121.479 28.3676 121.269 28.4557C121.06 28.5437 120.816 28.5877 120.538 28.5877C120.183 28.5877 119.865 28.5166 119.584 28.3744C119.303 28.2322 119.081 28.0376 118.918 27.7905C118.756 27.5434 118.675 27.2624 118.675 26.9476C118.675 26.6564 118.729 26.3992 118.837 26.1758C118.945 25.9523 119.106 25.7645 119.32 25.6121C119.533 25.4564 119.797 25.3396 120.112 25.2618C120.43 25.1805 120.794 25.1399 121.203 25.1399H122.107Z" fill="#434343"/>
<path d="M125.9 20.6867V28.4861H124.555V20.6867H125.9Z" fill="#434343"/>
<path d="M130.201 26.9831C130.201 26.868 130.171 26.7648 130.11 26.6734C130.049 26.582 129.934 26.499 129.764 26.4246C129.599 26.3467 129.355 26.2739 129.033 26.2062C128.749 26.1453 128.487 26.0691 128.246 25.9777C128.006 25.8863 127.799 25.7763 127.627 25.6477C127.454 25.5156 127.319 25.3616 127.221 25.1856C127.126 25.0062 127.078 24.7997 127.078 24.5661C127.078 24.3393 127.127 24.126 127.226 23.9263C127.324 23.7232 127.466 23.5455 127.652 23.3931C127.838 23.2374 128.065 23.1156 128.333 23.0276C128.6 22.9362 128.901 22.8905 129.236 22.8905C129.704 22.8905 130.105 22.9666 130.44 23.119C130.778 23.2713 131.037 23.4812 131.217 23.7486C131.396 24.0126 131.486 24.3105 131.486 24.6423H130.145C130.145 24.4967 130.111 24.3647 130.044 24.2462C129.979 24.1277 129.88 24.0329 129.744 23.9619C129.609 23.8874 129.438 23.8501 129.231 23.8501C129.045 23.8501 128.888 23.8806 128.759 23.9415C128.634 24.0025 128.539 24.082 128.475 24.1802C128.41 24.2784 128.378 24.3867 128.378 24.5052C128.378 24.5932 128.395 24.6727 128.429 24.7438C128.466 24.8115 128.525 24.8742 128.607 24.9317C128.688 24.9893 128.798 25.0417 128.937 25.0891C129.079 25.1365 129.253 25.1822 129.46 25.2262C129.869 25.3075 130.227 25.4158 130.531 25.5512C130.839 25.6832 131.08 25.8592 131.252 26.0793C131.425 26.2993 131.511 26.5803 131.511 26.9222C131.511 27.1659 131.459 27.3893 131.354 27.5924C131.249 27.7922 131.097 27.9665 130.897 28.1154C130.697 28.2644 130.458 28.3812 130.181 28.4658C129.903 28.5471 129.59 28.5877 129.241 28.5877C128.737 28.5877 128.311 28.498 127.962 28.3186C127.613 28.1358 127.349 27.9056 127.17 27.628C126.99 27.347 126.901 27.0559 126.901 26.7546H128.185C128.195 26.9679 128.253 27.1388 128.358 27.2675C128.463 27.3961 128.595 27.4892 128.754 27.5467C128.916 27.6009 129.087 27.628 129.267 27.628C129.47 27.628 129.641 27.6009 129.78 27.5467C129.918 27.4892 130.023 27.413 130.095 27.3182C130.166 27.2201 130.201 27.1084 130.201 26.9831Z" fill="#434343"/>
<path d="M42.064 2.57988H4.86719V17.5586H42.064V2.57988ZM19.8232 4.02532L17.2548 16.0815H13.2255L10.6919 7.7394H10.6579L8.97261 16.0815H5.91642L8.50511 4.02532H12.5481L15.0315 12.3861H15.0655L16.767 4.02532H19.8232ZM31.3487 4.02532L28.8305 16.0815H25.5856L26.6615 10.918H22.8235L21.7475 16.0815H18.5025L21.0199 4.02532H24.2649L23.3121 8.63796H27.1477L28.1029 4.02532H31.3487ZM40.6712 4.35428L39.8886 6.755C39.2639 6.4617 38.4131 6.20321 37.2164 6.20321C35.9322 6.20321 34.8902 6.39117 34.8902 7.3602C34.8902 9.06898 39.5944 8.43133 39.5944 12.0928C39.5944 15.426 36.4864 16.2906 33.6741 16.2906C32.4247 16.2906 30.9833 15.9956 29.9252 15.6667L30.6892 13.2141C31.3301 13.629 32.6159 13.9061 33.6741 13.9061C34.6828 13.9061 36.2603 13.7157 36.2603 12.472C36.2603 10.5371 31.5561 11.2623 31.5561 7.86175C31.5561 4.75128 34.2996 3.81871 36.9555 3.81871C38.4496 3.81871 39.8545 3.97509 40.6712 4.35428Z" fill="#5B5B5B"/>
</svg>
