<svg width="141" height="41" viewBox="0 0 141 41" fill="none" xmlns="http://www.w3.org/2000/svg">
<path d="M69.184 20.0607C66.54 20.0607 66.33 18.0468 66.33 17.4538C66.33 16.7496 66.4906 15.44 68.2079 14.8099C69.9253 14.1798 70.2959 14.1056 71.519 13.7227V13.4261C71.519 12.8331 71.519 12.7219 71.3831 12.3389C71.1731 11.6594 70.5059 11.2023 69.5793 11.2023C68.7021 11.2023 67.9485 11.6965 67.6025 12.4254L67.1084 12.1289C67.4049 11.0417 68.5292 9.95443 70.4565 9.95443C71.7908 9.95443 72.7174 10.3374 73.2611 11.1776C73.6688 11.8571 73.7182 12.7713 73.7182 13.6979C73.7182 14.5381 73.6688 15.4647 73.6688 16.2183C73.6688 16.7125 73.6193 17.1944 73.6193 17.4662C73.6193 18.1457 73.7552 18.6893 74.2989 18.6893C74.546 18.6893 74.5954 18.6028 74.7931 18.4793L75.0896 18.8623C74.5954 19.5418 74.0023 20.0854 73.0263 20.0854C72.2727 20.0854 71.7291 19.7024 71.5067 19.0846C71.1978 19.5171 70.3947 20.0607 69.184 20.0607ZM71.519 14.9334C70.2218 15.3164 69.7523 15.5265 69.3816 15.7241C68.7886 16.0206 68.5415 16.5643 68.5415 17.2685C68.5415 17.8121 68.7515 18.6893 70.0117 18.6893C70.4194 18.6893 71.0125 18.6028 71.5561 18.2322V14.9211H71.519V14.9334ZM49.688 19.5418C49.688 18.5657 49.688 17.738 49.6016 16.7372H50.1946C50.1946 17.3673 50.3552 17.8245 50.6517 18.121C51.0594 18.5781 52.0355 18.8746 52.9127 18.8746C54.7535 18.8746 55.6307 18.1704 55.6307 16.6507C55.6307 15.3535 54.84 14.8099 53.7528 14.0439L53.5922 13.908L52.4185 13.1173C50.7876 12.03 49.9475 11.1899 49.9475 9.47259C49.9475 8.63246 50.2811 5.86498 54.3458 5.86498C55.396 5.86498 56.7303 6.00088 57.5334 6.11208C57.5334 6.24798 57.4839 6.86572 57.4839 7.40933C57.4839 8.03943 57.4839 8.20004 57.5334 8.95369H57.0392C57.0392 8.27417 56.8291 7.86646 56.545 7.56995C56.162 7.18695 55.2971 6.97691 54.3705 6.97691C52.1961 6.97691 51.949 8.06414 51.949 8.90427C51.949 10.0409 52.542 10.4486 53.8269 11.2887L55.2971 12.2648C56.545 13.1049 57.7187 13.8956 57.7187 15.9959C57.7187 19.5171 54.4076 19.8877 53.0238 19.8877C51.7513 20.0607 50.6888 19.8754 49.688 19.5418ZM76.0038 10.5845C76.498 10.6339 77.2517 10.5845 77.9806 10.4486C78.6107 10.3127 78.8207 10.2386 79.2779 10.0409L79.4879 10.1768V10.9305C79.9821 10.5475 80.9581 10.0038 82.3419 10.0038C84.1086 10.0038 85.2452 10.844 85.5665 12.3142C85.653 12.6972 85.7024 13.562 85.7024 14.0809V16.9349C85.7024 18.5287 85.7889 18.9982 86.0854 19.2823C86.246 19.4182 86.5796 19.5788 87.0614 19.5788V20.036C86.4313 19.9865 85.2947 19.9495 84.6399 19.9495C83.7627 19.9495 82.7619 19.9989 82.2183 20.036V19.5788C82.7125 19.5294 83.009 19.3688 83.1943 19.2453C83.4909 18.9487 83.5279 18.4051 83.5773 17.182C83.5773 16.799 83.6268 16.0454 83.6268 15.5017C83.6268 14.7975 83.6268 14.0315 83.5403 13.2779C83.4044 12.03 82.7496 11.437 81.477 11.437C80.5998 11.437 80.0562 11.647 79.6361 11.8447V16.9596C79.6361 18.5534 79.7226 19.0229 80.0191 19.307C80.1798 19.4429 80.5628 19.6035 80.9458 19.6035V20.0607C80.1551 20.0113 79.179 19.9742 78.5613 19.9742C77.264 19.9742 76.844 20.0236 76.0903 20.0607V19.5788C76.498 19.5788 76.9304 19.4182 77.1405 19.1711C77.437 18.8375 77.4741 17.9974 77.4741 16.3666V13.4632C77.4741 12.2401 77.4246 11.7459 77.264 11.4864C77.1281 11.2764 76.8069 11.1034 76.1274 11.1034V10.5598H76.0409V10.5845H76.0038ZM88.1239 19.5171C88.5316 19.5171 88.964 19.3812 89.1741 19.1094C89.4706 18.7758 89.5077 17.9356 89.5077 16.3048V11.4247H88.2598V10.881C88.8034 10.671 89.2606 10.4239 89.5077 10.2015C89.5077 9.32433 89.5571 8.22475 89.6683 7.59466C90.0513 5.58082 91.3485 4.58008 93.56 4.58008C94.5361 4.58008 95.438 4.91366 96.031 5.37079L96.0804 5.58082L95.1044 6.91514H94.8573C94.5237 6.12443 94.0172 5.6673 93.14 5.6673C92.8435 5.6673 92.4358 5.75379 92.1639 6.00088C91.7562 6.40859 91.6698 7.05104 91.6698 8.31124V10.1892H93.8442V11.4123H91.6698V16.8237C91.6698 18.121 91.7192 18.7511 91.8798 18.9982C92.1269 19.4059 93.0164 19.4553 93.4241 19.4553V19.9495C92.7199 19.9001 91.5833 19.863 90.7802 19.863C89.5571 19.863 88.7664 19.9124 88.1363 19.9495L88.1239 19.5171ZM99.3545 20.1348C96.3893 20.1348 94.6226 18.2939 94.6226 15.1929C94.6226 12.7713 95.9198 9.95443 99.5645 9.95443C102.53 9.95443 104.296 11.7953 104.296 14.8964C104.296 17.3179 102.987 20.1348 99.3545 20.1348ZM99.478 11.0787C98.885 11.0787 98.4278 11.2393 98.0943 11.5358C97.3036 12.2154 96.9206 13.3767 96.9206 15.094C96.9206 15.7736 97.0565 19.0352 99.4409 19.0352C100.034 19.0352 100.491 18.8746 100.825 18.5781C101.615 17.8986 101.998 16.7372 101.998 15.0199C101.986 14.3527 101.875 11.0787 99.478 11.0787ZM105.297 10.5351C105.977 10.5845 106.681 10.4857 107.435 10.3745C108.028 10.288 108.411 10.1645 108.608 10.0409L108.769 10.1274V10.9675C109.226 10.5104 109.992 10.0409 111.03 10.0409C111.783 10.0409 112.278 10.2509 112.747 10.6339V10.9305L111.907 12.4501H111.499C111.252 11.993 110.746 11.5729 109.868 11.5729C109.461 11.5729 109.115 11.6594 108.818 11.8694V16.8608C108.818 18.158 108.868 18.7387 109.028 18.9982C109.275 19.4059 110.116 19.4553 110.573 19.4059V19.9495C109.893 19.9001 108.732 19.863 107.929 19.863C107.002 19.863 106.051 19.863 105.285 19.9495V19.4553C105.828 19.4059 106.125 19.2947 106.335 19.0476C106.631 18.714 106.669 17.9109 106.669 16.243V13.525C106.669 12.3018 106.669 11.8077 106.458 11.5482C106.298 11.3382 105.964 11.2146 105.322 11.2146V10.5845L105.297 10.5351ZM119.011 5.17311C119.604 5.17311 120.345 5.03721 121.321 4.87659C121.865 4.79011 122.199 4.66656 122.371 4.6295L122.532 4.71598C122.446 5.50669 122.446 7.32285 122.446 8.60775V16.5643C122.446 17.738 122.446 18.4916 122.606 18.7387C122.767 18.9487 123.1 19.1217 123.743 19.1217V19.6159C123.113 19.6159 122.409 19.7024 121.655 19.8259C121.161 19.9124 120.778 19.9865 120.568 20.073L120.321 19.9865V19.1464C119.826 19.5294 118.9 20.073 117.603 20.073C114.922 20.073 113.204 18.2322 113.204 15.3411C113.204 14.3651 113.365 13.5003 113.698 12.6972C114.539 10.9305 116.219 9.92972 118.344 9.92972C119.135 9.92972 119.814 10.0162 120.222 10.0903V8.02707C120.222 6.80395 120.222 6.1862 120.012 5.88969C119.876 5.67966 119.678 5.59317 118.962 5.55611V5.16075H119.011V5.17311ZM118.665 18.7016C119.345 18.7016 119.802 18.6152 120.259 18.3186V11.7953C120.098 11.6347 119.505 11.1158 118.331 11.1158C116.454 11.1158 115.527 12.413 115.527 15.1064C115.49 16.2307 115.823 18.7016 118.665 18.7016ZM65.3663 18.9982C65.0698 19.3812 64.3162 20.1348 62.7224 20.1348C61.2027 20.1348 60.375 19.5912 60.0043 18.3681C59.8437 17.9109 59.8437 16.9473 59.8437 16.3913C59.8437 14.8469 59.8437 13.5867 59.8931 12.1165V11.437H58.5835V11.054C59.0777 10.844 59.4607 10.6463 59.8067 10.3745C60.5603 9.78146 61.0545 9.07723 61.6105 8.02707H62.0182V10.2015H65.3293V11.4247H62.0182V16.5395C62.0182 18.0839 62.3147 18.924 63.7355 18.924C64.415 18.924 64.8721 18.714 65.1192 18.541L65.3663 18.9982Z" fill="#5B5B5B"/>
<path d="M111.809 28.1411C111.648 28.1411 111.426 28.1905 111.314 28.3017C111.178 28.3882 111.178 28.5117 111.178 28.5982C111.178 28.7588 111.228 28.8947 111.339 29.2283L112.266 31.6499C112.402 32.0329 112.513 32.3294 112.562 32.5271L113.699 29.216C113.835 28.833 113.859 28.7588 113.859 28.5859C113.859 28.4994 113.81 28.4253 113.724 28.3388C113.588 28.2523 113.427 28.1782 113.229 28.1782V27.7952C113.365 27.7952 113.637 27.7952 113.773 27.8446C113.909 27.8446 114.156 27.894 114.366 27.894C114.774 27.894 115.367 27.8446 115.614 27.8446V28.2276C115.453 28.277 115.07 28.1782 114.737 29.1542L112.352 35.5169C112.019 36.4435 111.561 37.5802 109.931 37.5802C109.251 37.5802 108.794 37.4196 108.411 37.086V36.9254L109.004 36.2212H109.165C109.325 36.6042 109.659 36.7648 110.141 36.7648C110.894 36.7648 111.228 36.0853 111.734 34.7509L111.87 34.3679L109.869 29.1418C109.869 29.0924 109.819 29.0059 109.782 28.9318C109.733 28.7959 109.622 28.5488 109.622 28.5488C109.486 28.3017 109.288 28.2152 109.029 28.2152V27.8322C109.412 27.8816 110.079 27.8816 110.412 27.8816C110.622 27.8816 110.956 27.8816 111.29 27.8322C111.45 27.8322 111.747 27.7828 111.883 27.7828V28.1164H111.833V28.1411H111.809ZM89.6193 28.0546C90.027 28.104 90.4965 28.0052 90.9536 27.9187C91.3366 27.8322 91.5466 27.7828 91.7072 27.7087L91.8432 27.7581V28.3017C92.1397 28.0052 92.5968 27.7087 93.264 27.7087C93.7581 27.7087 94.0547 27.8446 94.3512 28.0917V28.3017L93.857 29.2777H93.6099C93.4493 28.9812 93.1528 28.7341 92.5597 28.7341C92.3126 28.7341 92.1026 28.8206 91.8802 28.9442V32.0946C91.8802 32.9348 91.9296 33.3178 92.0161 33.4784C92.1767 33.7255 92.6956 33.7749 92.9921 33.7749V34.1085C92.5844 34.0591 91.8184 34.0591 91.3119 34.0591C90.7189 34.0591 90.0888 34.0591 89.6316 34.1455V33.812C89.9652 33.812 90.1752 33.6761 90.3111 33.5649C90.5212 33.3548 90.5212 32.8606 90.5212 31.7611V29.9943C90.5212 29.2407 90.5212 28.9071 90.3853 28.7465C90.2988 28.6106 90.0517 28.5365 89.6811 28.5365V28.0793H89.6193V28.0546ZM61.7221 34.1332C59.9553 34.1332 58.9175 33.5896 58.5345 32.4159C58.3245 31.8228 58.3245 31.0815 58.3245 30.4885V27.1404C58.3245 26.1396 58.2751 25.9666 58.0774 25.806C57.9909 25.7196 57.7809 25.6454 57.4844 25.596V25.2624C57.8921 25.3118 58.621 25.3489 59.0287 25.3489C59.733 25.3489 60.1654 25.3489 60.6225 25.2624V25.6454C60.326 25.6454 60.1283 25.7319 59.943 25.8925C59.733 26.1026 59.733 26.4856 59.733 27.5728V30.5379C59.733 32.3047 59.8936 33.4413 61.8703 33.4413C63.8842 33.4413 64.0077 32.2676 64.0077 30.4762V27.2145C64.0077 26.2137 63.9583 26.0408 63.7606 25.8802C63.6247 25.7937 63.427 25.7196 63.1676 25.6701V25.3366C63.5506 25.3366 64.0448 25.386 64.5513 25.386C65.0085 25.386 65.4779 25.386 66.0216 25.2995V25.6825C65.725 25.6825 65.5274 25.769 65.342 25.9296C65.132 26.1396 65.132 26.5226 65.132 27.6098V30.1302C65.132 30.9209 65.132 31.8105 64.8849 32.5147C64.4896 33.5896 63.4765 34.1332 61.7221 34.1332ZM73.6692 33.7502C74.0028 33.7008 74.2128 33.6637 74.3734 33.5031C74.5835 33.2931 74.5835 32.7989 74.5835 31.6993V29.9325C74.5835 29.1789 74.5835 28.7959 74.4476 28.6353C74.3611 28.4994 74.2005 28.4253 73.7433 28.3882V28.0052C73.9904 28.0546 74.6699 27.9558 75.1641 27.8693C75.4112 27.8199 75.6583 27.7334 75.8436 27.6593L75.9796 27.7952C75.9301 28.2029 75.9301 29.0924 75.9301 30.2661V32.0699C75.9301 32.9101 75.9796 33.2931 76.066 33.4537C76.2019 33.6143 76.449 33.7502 76.8197 33.7502V34.0467C76.4861 33.9973 75.8437 33.9973 75.3 33.9973C74.6699 33.9973 74.0028 34.0467 73.6692 34.0838V33.7502ZM75.2136 26.5844C74.7194 26.5844 74.4228 26.2879 74.4228 25.8307C74.4228 25.3736 74.7564 25.04 75.263 25.04C75.7572 25.04 76.0537 25.3366 76.0537 25.7937C76.0413 26.2879 75.7077 26.5844 75.2136 26.5844ZM100.158 33.7502C100.492 33.7008 100.702 33.6637 100.862 33.5031C101.072 33.2931 101.072 32.7989 101.072 31.6993V29.9325C101.072 29.1789 101.072 28.7959 100.936 28.6353C100.85 28.4994 100.689 28.4253 100.232 28.3882V28.0052C100.479 28.0546 101.159 27.9558 101.653 27.8693C101.9 27.8199 102.196 27.7334 102.332 27.6593L102.468 27.7952C102.419 28.2029 102.419 29.0924 102.419 30.2661V32.0699C102.419 32.9101 102.468 33.2931 102.555 33.4537C102.691 33.6143 102.938 33.7502 103.308 33.7502V34.0467C102.925 33.9973 102.308 33.9973 101.764 33.9973C101.134 33.9973 100.467 34.0467 100.133 34.0838V33.7502H100.158ZM101.702 26.5844C101.208 26.5844 100.912 26.2879 100.912 25.8307C100.912 25.3736 101.245 25.04 101.752 25.04C102.246 25.04 102.542 25.3366 102.542 25.7937C102.542 26.2879 102.196 26.5844 101.702 26.5844ZM95.0801 33.8367C95.0801 33.2066 95.0307 32.5394 94.9936 32.2058H95.4013C95.4013 32.5394 95.4878 32.8359 95.6484 32.9965C95.8955 33.2931 96.192 33.4043 96.7357 33.4043H96.8221C97.5017 33.4043 97.8723 33.1077 97.8723 32.5271C97.8723 32.0699 97.5758 31.8475 97.0816 31.551L96.2044 31.0074C95.7473 30.7109 95.2037 30.3032 95.2037 29.4136C95.2037 28.7094 95.5002 28.1658 96.0809 27.8693C96.4639 27.6593 97.0569 27.6593 97.3287 27.6593C97.8229 27.6593 98.5518 27.7457 98.9595 27.8199C98.9101 27.9805 98.9101 28.4129 98.9101 28.5735C98.9101 28.7094 98.9101 29.2777 98.9595 29.4136H98.5518C98.5518 29.1666 98.4653 28.9195 98.3047 28.7094C98.1441 28.4994 97.7611 28.3758 97.304 28.3758C96.6739 28.3758 96.328 28.6229 96.328 29.1666C96.328 29.5743 96.6615 29.7966 96.958 30.0067H97.0075L97.8476 30.5009C98.3912 30.8345 99.0954 31.2545 99.0954 32.2182C99.0954 33.849 97.5758 34.0961 96.711 34.0961C96.2168 34.0838 95.6731 34.0467 95.0801 33.8367ZM108.238 33.429C108.028 33.639 107.558 34.1332 106.558 34.1332C105.582 34.1332 105.038 33.7996 104.84 32.9965C104.754 32.7 104.754 32.0699 104.754 31.7487C104.754 30.748 104.754 29.9449 104.754 29.0306V28.6229H103.914V28.3758C104.247 28.2399 104.457 28.1287 104.705 27.9681C105.162 27.5851 105.495 27.128 105.878 26.4485H106.175V27.8322H108.263V28.5859H106.175V31.8475C106.175 32.8236 106.335 33.3919 107.262 33.3919C107.67 33.3919 107.966 33.256 108.139 33.1448L108.238 33.429ZM79.896 27.8075C79.7601 27.8075 79.4883 27.8075 79.303 27.8569C78.9694 27.8569 78.6235 27.9064 78.3764 27.9064C77.9193 27.9064 77.2397 27.8569 77.0421 27.8569V28.2399C77.1285 28.2399 77.4498 28.1905 77.6722 28.6229C77.7586 28.7836 77.8081 28.9195 77.8328 29.0059C77.8822 29.0924 77.9193 29.1666 77.9193 29.216L79.9331 34.2444L80.5632 34.1085L82.7871 29.1666C82.7871 29.1171 82.8365 29.0801 82.8735 29.0059C82.923 28.9565 82.923 28.87 83.0836 28.6229C83.2195 28.3758 83.4913 28.2399 83.7137 28.2399V27.8569C83.4666 27.8569 82.923 27.9064 82.4905 27.9064C82.2805 27.9064 82.0828 27.9064 81.8604 27.8569C81.6998 27.8569 81.4527 27.8075 81.2674 27.8075V28.1411C81.4775 28.1411 81.6751 28.2276 81.7616 28.3017C81.811 28.3511 81.8975 28.4623 81.8975 28.5488C81.8975 28.6847 81.8481 28.7959 81.7369 29.1789L80.5138 32.1441C80.4644 31.9835 80.3779 31.7364 80.2667 31.3904L79.4265 29.1666C79.2906 28.833 79.2659 28.7094 79.2659 28.5365C79.2659 28.45 79.2659 28.3758 79.3524 28.3264C79.4883 28.1905 79.686 28.1164 79.896 28.1164V27.7828V27.8075ZM66.2069 28.0546C66.5405 28.104 66.9976 28.0546 67.4547 27.9681C67.8377 27.8816 67.9983 27.8322 68.2949 27.721L68.4308 27.8075V28.3017C68.7273 28.0546 69.4068 27.7087 70.2346 27.7087C71.3712 27.7087 72.0754 28.2523 72.2978 29.1789C72.3472 29.426 72.3843 29.9696 72.3843 30.3155V32.1194C72.3843 33.1201 72.4337 33.4166 72.6314 33.639C72.7179 33.7255 72.965 33.7996 73.2244 33.7996V34.0961C72.8167 34.0961 72.0878 34.0467 71.6801 34.0467C71.087 34.0467 70.4569 34.0961 70.1357 34.1332V33.8367C70.4322 33.7873 70.6299 33.7008 70.7658 33.6266C70.9264 33.466 70.9758 33.083 71.0129 32.3294C71.0129 32.0823 71.0129 31.6252 71.0129 31.2422C71.0129 30.785 71.0129 30.2661 70.9635 29.8214C70.877 29.0306 70.4693 28.6476 69.6662 28.6476C69.1226 28.6476 68.7396 28.7835 68.4925 28.8947V32.1811C68.4925 33.1819 68.5419 33.4784 68.7396 33.7008C68.8261 33.7873 69.0732 33.8614 69.3327 33.8614V34.1579C68.789 34.022 68.1589 34.022 67.7389 34.022C66.8988 34.022 66.6517 34.022 66.1945 34.1085V33.812C66.4416 33.812 66.7381 33.7255 66.874 33.5649C67.0347 33.3548 67.0841 32.8112 67.0841 31.7611V29.9943C67.0841 29.2407 67.0841 28.9071 66.9482 28.7465C66.8617 28.6106 66.6517 28.4994 66.2439 28.5365V28.067H66.2069V28.0546ZM86.5676 34.1332C84.6897 34.1332 83.6643 33.046 83.6643 31.0692C83.6643 30.7356 83.7507 27.6716 86.5923 27.6716C87.4325 27.6716 88.1861 28.0052 88.5197 28.5982C88.9027 29.1913 88.9274 29.7719 88.9274 30.2785V30.6615H85.0356C85.0356 30.9951 85.0851 31.2545 85.1221 31.4522C85.3322 32.6753 85.9993 33.256 87.1854 33.256C87.8649 33.256 88.2726 33.1201 88.6556 32.873L88.8162 33.1695C88.4209 33.7255 87.5807 34.1332 86.5676 34.1332ZM85.0603 29.9449H87.4819C87.4819 29.1913 87.346 28.3511 86.2588 28.3511C85.3074 28.4006 85.1098 29.3025 85.0603 29.9449Z" fill="#5B5B5B"/>
<g clip-path="url(#clip0_560_6861)">
<path d="M22.3795 4.72965L17.8379 9.23105V21.3264L21.7859 25.4064H23.5963C23.5522 25.5292 23.4944 25.7184 23.6201 25.9037C23.7568 26.109 23.9927 26.109 24.0831 26.109C24.1889 26.109 24.3366 26.0956 24.5637 26.0644H24.5664C24.5664 26.0644 24.6612 26.1496 24.3724 26.2456C24.1343 26.3304 23.9266 26.4706 23.8582 26.7116C23.8537 26.7295 23.8521 26.7478 23.8477 26.7634H17.8397L17.8379 32.9457L22.3795 37.4632H34.3239L38.8655 32.952V21.3663L34.9167 17.2925H31.5684C31.5661 17.2925 31.5631 17.2907 31.5631 17.2907C31.4154 17.2015 31.2637 17.1073 31.1248 17.0158L31.0737 16.9827L31.0648 16.9774C30.9899 16.9305 30.911 16.8729 30.825 16.797C30.75 16.7368 30.6879 16.6765 30.6416 16.6229L30.6283 16.6095C30.5402 16.5158 30.463 16.4261 30.4035 16.348C30.9259 16.4997 31.4952 16.5381 31.7685 16.5471H31.8012C31.8188 16.5471 31.8369 16.5498 31.8523 16.5498L31.8761 16.5515C31.9422 16.5561 31.993 16.5671 32.026 16.5783C32.0613 16.5917 32.0926 16.6078 32.1213 16.6212L32.2623 16.6747C32.2954 16.6837 32.3307 16.6855 32.3682 16.6855C32.5732 16.6855 32.765 16.5605 32.8532 16.3641C32.8818 16.2971 32.9259 16.1636 32.8928 15.9873L38.8648 15.9918V9.23808L34.3241 4.72949H22.3798L22.3795 4.72965Z" fill="#5B5B5B"/>
<path d="M38.3231 9.47651L34.1045 5.28711H22.5987L18.3791 9.46972V21.096L22.01 24.8457L24.3512 24.848C24.0889 25.0868 24.0073 25.3346 23.9654 25.4551C23.875 25.7207 23.7802 25.7966 24.6025 25.6805C24.8627 25.6426 25.3367 25.4729 25.5593 25.3212C25.7776 25.1694 26.2096 25.2921 26.1722 25.6203C25.9693 26.1224 25.4491 26.4371 24.953 26.4997C23.8111 26.6447 24.3049 27.0755 24.3049 27.0755C24.4305 27.1625 24.5209 27.2474 24.5849 27.3232H24.0293V27.321H18.3812L18.3789 32.7066L22.5963 36.9027H34.1043L38.3216 32.7133V21.5983L34.6907 17.8531H31.7565C31.5228 17.6947 31.2076 17.5183 30.921 17.3286C30.921 17.3263 30.921 17.3263 30.9187 17.3263C30.8085 17.2616 30.7005 17.1813 30.5968 17.0898C30.5109 17.0206 30.4337 16.9469 30.3676 16.8733C30.1141 16.6054 29.9245 16.3264 29.8737 16.197C29.779 15.9604 29.801 15.6613 30.0148 15.7841C30.5572 16.101 31.4478 16.1613 31.7785 16.1724C31.816 16.1724 32.0827 16.2037 32.1467 16.2237C32.2128 16.2505 32.3142 16.2996 32.3142 16.2996C32.4487 16.3577 32.6912 16.1702 32.4112 15.8242C32.3385 15.7059 32.2282 15.5698 32.0981 15.4314H38.3214V9.47653" fill="white"/>
<path d="M22.8152 5.84613L18.9199 9.70968V20.8638L22.2356 24.2881H25.3484C25.8797 24.0518 25.9922 24.072 26.1398 23.7708C26.1619 23.7229 26.1837 23.5845 26.186 23.4493C26.1927 23.411 26.2589 23.0044 26.0648 23.1034C25.732 23.2726 25.0595 22.8255 24.5568 23.0917C24.0542 23.3546 24.4224 22.7436 24.4929 22.6382C24.4929 22.6382 24.7619 22.2795 25.1675 22.0421C25.1829 22.0336 25.1962 22.0251 25.2071 22.0155C25.2469 21.9932 25.2866 21.974 25.3285 21.9538C25.6371 21.808 26.5166 21.2151 26.6754 21.0299C26.7702 20.9223 26.9378 20.6765 26.9444 20.5402C26.973 20.4221 26.9952 20.2347 26.8828 20.1613C26.7152 20.0495 26.5806 20.2677 26.3183 20.3869C26.0559 20.5051 25.8575 20.5541 25.6238 20.5626C25.399 20.57 25.1829 20.4827 25.0485 20.503C24.9139 20.5253 24.8345 20.4221 25.0815 20.1698C25.1939 20.0559 25.2425 20.0048 25.2954 19.9665C25.8819 19.5854 26.4087 19.5812 26.7042 18.9042C26.7042 18.9042 26.9335 18.2975 26.4903 18.5561C26.2479 18.6988 26.1156 18.9042 25.4211 18.9042C24.7288 18.9042 24.4576 19.2374 24.3408 19.3821C24.3408 19.3821 23.8691 20.0495 23.986 19.1139C24.1051 18.1814 24.2835 17.7057 24.7178 17.3416C25.0925 17.0297 26.0228 16.6104 26.3579 16.1484C26.5298 15.976 26.9621 15.4757 26.7107 15.0521C26.6048 14.8735 26.347 15.3362 26.0803 15.3958C25.776 15.4767 25.3903 15.5768 25.0948 15.5161C24.7288 15.4427 24.4951 15.5832 24.3585 15.646C24.2218 15.7088 23.9638 15.5097 24.279 15.1459C24.7022 14.6571 25.7253 14.0189 26.4131 13.6372C26.508 13.597 26.7393 13.4944 26.9509 13.3582C26.9553 13.3559 26.9598 13.3536 26.9621 13.3536C27.0149 13.329 27.0921 13.2821 27.1362 13.2219C27.2861 13.0946 27.3898 12.9519 27.3544 12.8068C27.3236 12.6752 27.2595 12.6305 27.0567 12.6081C26.8958 12.5925 26.6292 12.7823 26.4043 12.7645C26.0604 12.7354 25.5554 12.8157 25.723 12.568C25.8795 12.3381 26.133 12.1906 26.2057 12.1505C26.3468 12.0858 26.5365 12.0011 26.8164 11.8738C27.2552 11.6729 27.1934 11.1686 27.0237 11.1508C26.759 11.1217 26.0448 11.3537 26.5474 10.7735C26.5474 10.7735 26.7856 10.5302 27.0259 10.3718C27.2154 10.2602 27.372 10.2177 27.5593 10.1484C27.6763 10.1061 27.9828 9.83155 27.2553 9.8025C27.2553 9.8025 26.8496 9.81367 26.9267 9.62399C26.9907 9.49903 27.3479 9.27135 27.3479 9.27135C27.3479 9.27135 27.6343 9.07262 27.7512 8.95436C27.8636 8.84494 27.943 8.75797 27.9364 8.65973C27.932 8.54818 27.6454 8.4098 27.524 8.25354C27.4381 8.14188 27.5109 8.10186 27.5593 8.08845C27.5858 8.08409 27.6168 8.07951 27.6543 8.07951C27.9496 8.08174 28.0334 7.78264 28.2058 7.00593C28.2563 6.77378 28.2605 6.72481 28.3352 6.72258C28.3425 6.72258 28.3467 6.72481 28.3509 6.72481C28.3509 6.72481 28.4235 7.11759 28.5297 7.5573C28.6201 7.80052 28.7189 7.90324 28.8934 7.9009C28.9281 7.9009 28.9597 7.90526 28.986 7.90984C29.0343 7.92325 29.109 7.96359 29.0206 8.07514C28.9544 8.16221 28.7568 8.30283 28.741 8.38766C28.6842 8.62865 28.9113 8.71572 29.1426 8.7336C29.4706 8.75585 29.334 8.96341 28.9796 9.22898C28.6379 9.48562 29.5127 10.0348 29.5127 10.0348C30.011 10.4254 29.6557 10.5257 29.5547 10.5815C29.4528 10.6351 29.1731 10.8092 29.4528 10.9208C29.7356 11.0302 30.1235 11.4252 30.1235 11.4252C30.624 12.0054 29.9112 11.7757 29.6473 11.8026C29.4769 11.8203 29.416 12.3269 29.8544 12.5256C30.522 12.8313 30.6702 12.8827 30.9058 13.0613C31.3463 13.3916 31.1129 13.6729 30.562 13.5746C30.562 13.5746 30.2097 13.4854 29.9627 13.5345C29.8081 13.5635 29.7019 13.5992 29.6294 13.6372C29.5915 13.6952 29.5043 13.925 30.2707 14.1638C30.6366 14.2798 31.0908 14.559 31.4945 14.8781L37.7828 14.8715L37.7817 9.71362L33.8864 5.8457H22.8155L22.8152 5.84613ZM32.3104 18.4117C32.4912 18.715 32.5964 19.1121 32.6742 19.6954C32.6763 20.0456 32.22 19.8753 32.0717 19.7837C31.9687 19.7124 31.832 19.6464 31.6554 19.6038C31.3221 19.5229 30.5294 19.1706 30.3128 19.0919C30.092 19.0099 29.9311 19.1749 29.9048 19.2377H29.907C29.8502 19.3441 29.9669 19.5591 29.9669 19.5591C30.2781 20.2734 30.8511 20.235 31.4809 20.6928C32.3472 21.3176 31.8846 21.4496 31.7058 21.3559C31.5303 21.2601 31.239 21.3197 31.239 21.3197C30.5399 21.5145 30.3307 21.2196 29.9206 21.11C29.5127 20.9982 29.8481 21.5124 29.9953 21.6837C30.1519 21.8689 31.034 22.4629 31.34 22.6077C32.0086 22.9227 32.3566 23.4336 32.5638 24.0829C32.7604 24.6971 32.5459 24.563 32.3871 24.4874C32.2284 24.4108 32.1821 24.2458 31.7879 24.2554C31.3915 24.2639 31.1686 24.2352 30.8858 24.0095C30.8111 23.951 30.7512 23.8839 30.7007 23.8286C30.6965 23.8264 30.6944 23.8243 30.6923 23.8222C30.4211 23.6125 30.4736 24.3086 30.5294 24.4225C30.7249 24.8217 30.8574 24.6588 31.9866 25.2687C32.5217 25.5582 32.6479 25.9468 32.7046 26.1096C32.7951 26.3736 32.8876 26.4492 32.0675 26.3331C31.8057 26.297 31.3337 26.1277 31.1087 25.9734C30.8931 25.8222 30.4589 25.9446 30.4978 26.2725C30.7007 26.7749 31.2212 27.09 31.7174 27.1517C32.1516 27.2081 32.3482 27.3039 32.4271 27.4018C32.6647 27.6765 32.2242 28.0788 32.2242 28.0788C32.0034 28.3375 32.242 28.6408 32.405 28.7302C32.67 28.8665 33.183 29.1784 33.3533 29.6254C34.2439 31.9459 33.3817 31.2806 32.9601 31.0156C32.5375 30.7495 31.7321 30.0672 30.9983 30.1268C30.2644 30.1853 30.0194 30.2258 29.5831 29.8745C29.1489 29.5243 29.191 30.0916 29.191 30.0916V32.89C29.2173 33.517 29.3319 34.1152 29.8239 34.6218C30.2266 35.0402 30.5336 34.9614 31.1024 35.665C31.3642 35.9886 32.22 36.3366 32.7909 36.343L33.8864 36.3451L37.7817 32.477V21.8285L34.4688 18.4117H32.3104ZM18.9222 27.8819L18.92 32.4685L22.8154 36.3388H24.0675C25.2449 36.2802 25.6857 35.3563 26.0429 34.7879C26.3118 34.3568 26.7881 33.9906 27.0901 33.6777C27.4097 33.3498 27.4671 32.5994 27.4759 31.7873V30.0916L27.4782 30.1087V29.7031H27.4804V29.4328H27.4806V29.37V28.6387C27.4806 28.4684 27.2866 28.4556 26.8633 28.9197C26.4379 29.3817 25.7259 29.3433 25.3136 29.3817C24.9014 29.4189 23.7153 30.0448 23.3757 30.4929C23.1663 30.7718 22.8687 30.5419 22.9899 29.9926H22.9855C23.0428 29.7457 23.1485 29.4125 23.3183 28.9729C23.5519 28.3598 24.4294 28 24.4294 28C24.4294 28 24.5198 27.9596 24.5992 27.8819H18.9222Z" fill="#5B5B5B"/>
</g>
<defs>
<clipPath id="clip0_560_6861">
<rect width="21.2902" height="32.9997" fill="white" transform="translate(17.666 4.58008)"/>
</clipPath>
</defs>
</svg>
