<svg width="33" height="33" viewBox="0 0 33 33" fill="none" xmlns="http://www.w3.org/2000/svg">
<path fill-rule="evenodd" clip-rule="evenodd" d="M7.2207 13.6055C7.2207 10.6197 9.64116 8.19922 12.627 8.19922C15.6127 8.19922 18.0332 10.6197 18.0332 13.6055V18.5346H7.2207V13.6055ZM18.0332 26.4638V21.5346H7.2207V26.4638C7.2207 27.2922 6.54913 27.9638 5.7207 27.9638C4.89228 27.9638 4.2207 27.2922 4.2207 26.4638V13.6055C4.2207 8.96282 7.98431 5.19922 12.627 5.19922C17.2696 5.19922 21.0332 8.96282 21.0332 13.6055V26.4638C21.0332 27.2922 20.3616 27.9638 19.5332 27.9638C18.7048 27.9638 18.0332 27.2922 18.0332 26.4638ZM27.8535 7.64648C27.8535 6.81806 27.1819 6.14648 26.3535 6.14648C25.5251 6.14648 24.8535 6.81806 24.8535 7.64648V26.4629C24.8535 27.2913 25.5251 27.9629 26.3535 27.9629C27.1819 27.9629 27.8535 27.2913 27.8535 26.4629V7.64648Z" fill="black"/>
<path fill-rule="evenodd" clip-rule="evenodd" d="M7.2207 13.6055C7.2207 10.6197 9.64116 8.19922 12.627 8.19922C15.6127 8.19922 18.0332 10.6197 18.0332 13.6055V18.5346H7.2207V13.6055ZM18.0332 26.4638V21.5346H7.2207V26.4638C7.2207 27.2922 6.54913 27.9638 5.7207 27.9638C4.89228 27.9638 4.2207 27.2922 4.2207 26.4638V13.6055C4.2207 8.96282 7.98431 5.19922 12.627 5.19922C17.2696 5.19922 21.0332 8.96282 21.0332 13.6055V26.4638C21.0332 27.2922 20.3616 27.9638 19.5332 27.9638C18.7048 27.9638 18.0332 27.2922 18.0332 26.4638ZM27.8535 7.64648C27.8535 6.81806 27.1819 6.14648 26.3535 6.14648C25.5251 6.14648 24.8535 6.81806 24.8535 7.64648V26.4629C24.8535 27.2913 25.5251 27.9629 26.3535 27.9629C27.1819 27.9629 27.8535 27.2913 27.8535 26.4629V7.64648Z" fill="url(#paint0_linear_686_263)"/>
<defs>
<linearGradient id="paint0_linear_686_263" x1="9.58987" y1="3.13721" x2="17.0192" y2="4.16826" gradientUnits="userSpaceOnUse">
<stop stop-color="#5D5CF1"/>
<stop offset="1" stop-color="#708DF5"/>
</linearGradient>
</defs>
</svg>
