<svg width="33" height="33" viewBox="0 0 33 33" fill="none" xmlns="http://www.w3.org/2000/svg">
<path d="M10.5798 20.9036C11.3572 20.0693 12.2973 19.4032 13.3422 18.9465C14.3871 18.4898 15.5145 18.2522 16.6548 18.2482C17.7952 18.2443 18.9242 18.4742 19.9722 18.9238C21.0202 19.3733 21.9649 20.0329 22.7479 20.8619M6.91771 15.8194C8.15951 14.4877 9.66055 13.424 11.3286 12.6938C12.9966 11.9636 14.7963 11.5822 16.6171 11.5731C17.3916 11.577 18.1622 11.6482 18.9205 11.7849M2.03711 11.266C3.90318 9.26483 6.15946 7.66724 8.66679 6.57176C11.1741 5.47628 13.8793 4.90613 16.6155 4.89648C17.3905 4.90035 18.1617 4.97167 18.9205 5.10862M23.3605 11.5731L26.6988 8.23478M26.6988 8.23478L30.0371 4.89648M26.6988 8.23478L23.3605 4.89648M26.6988 8.23478L30.0371 11.5731M26.6988 15.3454C26.3612 14.9834 26.2541 14.8629 25.809 14.5718M16.6839 28.2646C16.2412 28.2646 15.8167 28.0887 15.5036 27.7757C15.1906 27.4627 15.0148 27.0381 15.0148 26.5954C15.0148 26.1527 15.1906 25.7282 15.5036 25.4152C15.8167 25.1021 16.2412 24.9263 16.6839 24.9263C17.1266 24.9263 17.5511 25.1021 17.8642 25.4152C18.1772 25.7282 18.3531 26.1527 18.3531 26.5954C18.3531 27.0381 18.1772 27.4627 17.8642 27.7757C17.5511 28.0887 17.1266 28.2646 16.6839 28.2646Z" stroke="#6B6D6D" stroke-width="2.5" stroke-linecap="round" stroke-linejoin="round"/>
<path d="M23.3605 11.5731L26.6988 8.23478M26.6988 8.23478L30.0371 4.89648M26.6988 8.23478L23.3605 4.89648M26.6988 8.23478L30.0371 11.5731" stroke="#CD0707" stroke-width="2.5" stroke-linecap="round" stroke-linejoin="round"/>
</svg>
