<svg width="33" height="33" viewBox="0 0 33 33" fill="none" xmlns="http://www.w3.org/2000/svg">
<path d="M10.7402 6.82813C10.7402 5.30934 11.9714 4.07812 13.4902 4.07812H18.5837C20.1025 4.07812 21.3337 5.30934 21.3337 6.82812V9.83351C21.3337 10.6343 21.9829 11.2835 22.7837 11.2835H25.7891C27.3078 11.2835 28.5391 12.5147 28.5391 14.0335V19.127C28.5391 20.6458 27.3078 21.877 25.7891 21.877H22.7837C21.9829 21.877 21.3337 22.5262 21.3337 23.327V26.332C21.3337 27.8508 20.1025 29.082 18.5837 29.082H13.4902C11.9714 29.082 10.7402 27.8508 10.7402 26.332V23.327C10.7402 22.5262 10.091 21.877 9.29016 21.877H6.28516C4.76637 21.877 3.53516 20.6458 3.53516 19.127V14.0335C3.53516 12.5147 4.76637 11.2835 6.28516 11.2835H9.29016C10.091 11.2835 10.7402 10.6343 10.7402 9.83351V6.82813Z" stroke="#44CBB3" stroke-width="2.5"/>
</svg>
