<svg width="33" height="33" viewBox="0 0 33 33" fill="none" xmlns="http://www.w3.org/2000/svg">
<path d="M12.7181 5.92176C12.7181 6.80751 13.072 7.65699 13.702 8.28331C14.332 8.90963 15.1865 9.26149 16.0774 9.26149C16.9684 9.26149 17.8228 8.90963 18.4528 8.28331C19.0828 7.65699 19.4368 6.80751 19.4368 5.92176C19.4368 5.03601 19.0828 4.18654 18.4528 3.56022C17.8228 2.93389 16.9684 2.58203 16.0774 2.58203C15.1865 2.58203 14.332 2.93389 13.702 3.56022C13.072 4.18654 12.7181 5.03601 12.7181 5.92176V5.92176Z" stroke="#67CACA" stroke-width="2.5" stroke-linecap="round" stroke-linejoin="round"/>
<path d="M20.079 17.3577C20.4608 17.3516 20.8385 17.4376 21.1795 17.6084C21.5206 17.7791 21.8149 18.0296 22.0373 18.3382C22.2596 18.6469 22.4034 19.0046 22.4562 19.3806C22.5091 19.7566 22.4694 20.1397 22.3407 20.4971" stroke="#67CACA" stroke-width="2.5" stroke-linecap="round" stroke-linejoin="round"/>
<path d="M16.0771 9.26172V30.5793" stroke="#67CACA" stroke-width="2.5" stroke-linecap="round" stroke-linejoin="round"/>
<path d="M19.1572 7.24805H29.0313C32.3819 7.24805 27.5293 15.2776 20.5553 12.5986" stroke="#67CACA" stroke-width="2.5" stroke-linecap="round" stroke-linejoin="round"/>
<path d="M12.9933 7.24805H3.1218C-0.227543 7.24805 4.62374 15.2776 11.5978 12.5986" stroke="#67CACA" stroke-width="2.5" stroke-linecap="round" stroke-linejoin="round"/>
<path d="M12.0749 17.3575C11.4455 17.3512 10.8392 17.5933 10.389 18.0306C9.93874 18.4679 9.68129 19.0649 9.67303 19.6906C9.67635 20.3281 9.92873 20.9394 10.3769 21.3954C10.825 21.8514 11.4339 22.1164 12.0749 22.1345H18.4782C19.1152 22.1345 19.7261 22.386 20.1766 22.8338C20.627 23.2816 20.88 23.889 20.88 24.5223C20.88 25.1556 20.627 25.7629 20.1766 26.2107C19.7261 26.6585 19.1152 26.9101 18.4782 26.9101H14.0762C13.5327 26.9225 13.0163 27.1491 12.6408 27.5399C12.2652 27.9308 12.0612 28.4539 12.0736 28.9943C12.0721 29.2844 12.1302 29.5717 12.2445 29.8385C12.3588 30.1054 12.5268 30.3461 12.7383 30.546" stroke="#67CACA" stroke-width="2.5" stroke-linecap="round" stroke-linejoin="round"/>
</svg>
