<svg width="33" height="33" viewBox="0 0 33 33" fill="none" xmlns="http://www.w3.org/2000/svg">
<path d="M26.8353 7.2673L26.8353 7.26731C27.1313 7.37831 27.3897 7.57114 27.5803 7.82333C27.7666 8.0698 27.8807 8.36304 27.9101 8.67031L27.918 8.85606V16.6541C27.9179 18.7932 27.3403 20.8926 26.2462 22.7307C25.1537 24.5661 23.5866 26.073 21.7099 27.0929L21.3405 27.2859L16.4577 29.7273C16.4575 29.7274 16.4574 29.7274 16.4572 29.7275C16.4572 29.7276 16.4571 29.7276 16.4571 29.7276C16.3417 29.7851 16.2157 29.8182 16.087 29.8249C15.9658 29.8312 15.8445 29.8138 15.73 29.774L15.5852 29.7117L10.7237 27.2809C8.81039 26.3242 7.19085 24.8687 6.03607 23.068C4.88312 21.2701 4.23616 19.1947 4.16319 17.0603L4.15625 16.6437V8.82959C4.15625 8.82958 4.15625 8.82958 4.15625 8.82957C4.15626 8.51361 4.24601 8.20414 4.41506 7.9372L3.35902 7.26841L4.41506 7.9372C4.58028 7.67632 4.81459 7.46655 5.09176 7.33107L5.26406 7.25788L15.4509 3.4378C15.4511 3.43774 15.4512 3.43768 15.4514 3.43762C15.7735 3.3172 16.1249 3.29936 16.4572 3.38625L16.6513 3.44829L26.8353 7.2673Z" stroke="#377CB7" stroke-width="2.5"/>
<path d="M10.9272 16.4677L14.8843 20.4247L22.5727 12.7363" stroke="#377CB7" stroke-width="2.5" stroke-linecap="round" stroke-linejoin="round"/>
</svg>
