<svg width="33" height="33" viewBox="0 0 33 33" fill="none" xmlns="http://www.w3.org/2000/svg">
<path d="M5.58789 29.6474V26.7434C5.58789 25.203 6.19979 23.7258 7.28899 22.6366C8.37819 21.5474 9.85546 20.9355 11.3958 20.9355H13.3847M8.49185 9.31964C8.49185 10.86 9.10376 12.3373 10.193 13.4265C11.2821 14.5157 12.7594 15.1276 14.2998 15.1276C15.8401 15.1276 17.3174 14.5157 18.4066 13.4265C19.4958 12.3373 20.1077 10.86 20.1077 9.31964C20.1077 7.77928 19.4958 6.30202 18.4066 5.21282C17.3174 4.12362 15.8401 3.51172 14.2998 3.51172C12.7594 3.51172 11.2821 4.12362 10.193 5.21282C9.10376 6.30202 8.49185 7.77928 8.49185 9.31964Z" stroke="#6B6D6D" stroke-width="2.5" stroke-linecap="round" stroke-linejoin="round"/>
<path d="M22.6772 29.6477L27.5414 24.8794C27.8397 24.5899 28.0769 24.2437 28.2392 23.861C28.4014 23.4783 28.4854 23.067 28.486 22.6514C28.4867 22.2358 28.4041 21.8242 28.2431 21.441C28.0821 21.0578 27.846 20.7108 27.5486 20.4204C26.9419 19.827 26.1274 19.494 25.2788 19.4924C24.4301 19.4908 23.6144 19.8206 23.0054 20.4116L22.6801 20.7311L22.3563 20.4116C21.7497 19.8187 20.9355 19.486 20.0872 19.4844C19.2389 19.4828 18.4235 19.8123 17.8146 20.4029C17.5162 20.6923 17.2788 21.0385 17.1164 21.4211C16.954 21.8037 16.87 22.215 16.8691 22.6306C16.8683 23.0462 16.9508 23.4578 17.1117 23.8411C17.2726 24.2243 17.5086 24.5714 17.8058 24.862L22.6772 29.6477Z" stroke="#CD0707" stroke-width="2.5" stroke-linecap="round" stroke-linejoin="round"/>
</svg>
