<svg width="35" height="30" viewBox="0 0 35 30" fill="none" xmlns="http://www.w3.org/2000/svg">
<path d="M6.38323 8.10981H2.4697C2.28478 8.10981 2.10744 8.03636 1.97668 7.9056C1.84592 7.77484 1.77246 7.5975 1.77246 7.41258C1.77246 7.22766 1.84592 7.05031 1.97668 6.91956C2.10744 6.7888 2.28478 6.71533 2.4697 6.71533H6.38323C6.56815 6.71533 6.7455 6.7888 6.87626 6.91956C7.00701 7.05031 7.08047 7.22766 7.08047 7.41258C7.08047 7.5975 7.00701 7.77484 6.87626 7.9056C6.7455 8.03636 6.56815 8.10981 6.38323 8.10981Z" fill="#E6D9E2"/>
<path d="M2.47724 11.8137C2.36276 11.8105 2.25053 11.7812 2.14916 11.7279C2.0478 11.6746 1.95998 11.5988 1.89245 11.5063C1.79191 11.3516 1.75602 11.1638 1.79246 10.9829C1.8289 10.8021 1.93479 10.6428 2.08738 10.5392C2.70306 10.1501 3.3903 9.88794 4.10871 9.76821C4.82712 9.64847 5.56222 9.67354 6.27082 9.84193C7.248 10.1382 8.25281 10.3341 9.26969 10.4267C9.36235 10.4314 9.45311 10.4547 9.53655 10.4953C9.61998 10.5359 9.69437 10.5929 9.75527 10.6628C9.81616 10.7328 9.86231 10.8144 9.89095 10.9026C9.91959 10.9909 9.93013 11.084 9.92195 11.1764C9.89985 11.3593 9.8112 11.5276 9.67293 11.6493C9.53465 11.771 9.35642 11.8375 9.17223 11.8362C8.05657 11.7345 6.95394 11.521 5.88096 11.1989C4.85208 10.9756 3.77668 11.1611 2.88208 11.7162C2.76078 11.7906 2.61909 11.8247 2.47724 11.8137Z" fill="#E6D9E2"/>
<path d="M17.779 4.10981H13.8655C13.6805 4.10981 13.5032 4.03636 13.3724 3.9056C13.2417 3.77484 13.1682 3.5975 13.1682 3.41258C13.1682 3.22766 13.2417 3.05031 13.3724 2.91956C13.5032 2.7888 13.6805 2.71533 13.8655 2.71533H17.779C17.9639 2.71533 18.1412 2.7888 18.272 2.91956C18.4028 3.05031 18.4762 3.22766 18.4762 3.41258C18.4762 3.5975 18.4028 3.77484 18.272 3.9056C18.1412 4.03636 17.9639 4.10981 17.779 4.10981Z" fill="#6063F1"/>
<path d="M20.5979 7.81421C19.4849 7.71145 18.3849 7.49798 17.3142 7.17695C16.2843 6.95586 15.2088 7.14406 14.3153 7.70175C14.1609 7.80118 13.9735 7.83569 13.7939 7.79779C13.6142 7.75989 13.4567 7.65264 13.3557 7.49933C13.2483 7.35284 13.203 7.1699 13.2296 6.99023C13.2563 6.81056 13.3528 6.64866 13.4981 6.53969C14.1136 6.1502 14.8008 5.88785 15.5193 5.76811C16.2378 5.64836 16.973 5.67364 17.6815 5.84245C18.6586 6.13898 19.6635 6.33493 20.6804 6.42723C20.8519 6.44509 21.0107 6.52585 21.1261 6.65392C21.2416 6.782 21.3054 6.9483 21.3054 7.12071C21.3054 7.29313 21.2416 7.45944 21.1261 7.58752C21.0107 7.71559 20.8519 7.79635 20.6804 7.81421H20.5979Z" fill="#6063F1"/>
<path d="M29.1672 8.10981H25.2612C25.0763 8.10981 24.8989 8.03636 24.7682 7.9056C24.6374 7.77484 24.564 7.5975 24.564 7.41258C24.564 7.22766 24.6374 7.05031 24.7682 6.91956C24.8989 6.7888 25.0763 6.71533 25.2612 6.71533H29.1672C29.3522 6.71533 29.5295 6.7888 29.6603 6.91956C29.791 7.05031 29.8645 7.22766 29.8645 7.41258C29.8645 7.5975 29.791 7.77484 29.6603 7.9056C29.5295 8.03636 29.3522 8.10981 29.1672 8.10981Z" fill="#E6D9E2"/>
<path d="M25.2613 11.8137C25.1474 11.8129 25.0354 11.7845 24.9348 11.731C24.8343 11.6775 24.7482 11.6004 24.684 11.5063C24.5808 11.3531 24.5425 11.1653 24.5777 10.984C24.6128 10.8026 24.7185 10.6427 24.8714 10.5392C25.4871 10.1501 26.1743 9.88794 26.8928 9.76821C27.6112 9.64847 28.3463 9.67354 29.0549 9.84193C30.0322 10.1374 31.037 10.3334 32.0537 10.4267C32.1464 10.4314 32.2372 10.4547 32.3206 10.4953C32.404 10.5359 32.4784 10.5929 32.5393 10.6628C32.6002 10.7328 32.6464 10.8144 32.675 10.9026C32.7036 10.9909 32.7142 11.084 32.706 11.1764C32.7003 11.269 32.6763 11.3596 32.6355 11.4429C32.5947 11.5263 32.5378 11.6007 32.4682 11.662C32.3985 11.7233 32.3174 11.7703 32.2296 11.8001C32.1417 11.83 32.0489 11.8423 31.9563 11.8362C30.8432 11.7334 29.7432 11.5199 28.6725 11.1989C27.6436 10.9772 26.5688 11.1626 25.6736 11.7162C25.5502 11.7921 25.4056 11.8263 25.2613 11.8137Z" fill="#E6D9E2"/>
<path d="M32.2863 17.8417H2.17761C1.58892 17.8082 1.03537 17.5506 0.63047 17.122C0.225571 16.6933 0 16.126 0 15.5363C0 14.9467 0.225571 14.3794 0.63047 13.9507C1.03537 13.5221 1.58892 13.2645 2.17761 13.231H32.2863C32.875 13.2645 33.4286 13.5221 33.8335 13.9507C34.2384 14.3794 34.4639 14.9467 34.4639 15.5363C34.4639 16.126 34.2384 16.6933 33.8335 17.122C33.4286 17.5506 32.875 17.8082 32.2863 17.8417ZM2.17761 14.6179C1.94836 14.6387 1.73514 14.7444 1.57988 14.9143C1.42461 15.0843 1.33852 15.3061 1.33852 15.5363C1.33852 15.7665 1.42461 15.9884 1.57988 16.1583C1.73514 16.3283 1.94836 16.434 2.17761 16.4548H32.2863C32.5156 16.434 32.7288 16.3283 32.8841 16.1583C33.0393 15.9884 33.1254 15.7665 33.1254 15.5363C33.1254 15.3061 33.0393 15.0843 32.8841 14.9143C32.7288 14.7444 32.5156 14.6387 32.2863 14.6179H2.17761Z" fill="#E6D9E2"/>
<path d="M31.9936 14.6175H25.2462C25.0613 14.6175 24.8839 14.5441 24.7532 14.4133C24.6224 14.2826 24.5489 14.1052 24.5489 13.9203V8.08748C24.2934 8.04489 24.0612 7.91303 23.8937 7.71535C23.7262 7.51766 23.6343 7.26698 23.6343 7.00788V5.54594C23.6343 5.25364 23.7504 4.97333 23.9571 4.76664C24.1638 4.55996 24.4441 4.44385 24.7364 4.44385H32.4885C32.8783 4.44385 33.9879 4.71375 33.9879 5.54594V7.00788C33.9879 7.7576 33.1407 8.02751 32.6609 8.09499V13.9203C32.6611 14.1001 32.5917 14.2731 32.4674 14.403C32.3431 14.5329 32.1733 14.6098 31.9936 14.6175ZM25.9509 13.2306H31.2964V7.41274C31.2964 7.22782 31.3699 7.05048 31.5006 6.91972C31.6314 6.78896 31.8087 6.7155 31.9936 6.7155H32.5035H32.6234V5.87581H32.4885H25.0363V6.76049H25.2612C25.4448 6.76246 25.6202 6.83679 25.7494 6.96733C25.8785 7.09788 25.9509 7.27409 25.9509 7.45772V13.2306Z" fill="#E6D9E2"/>
<path d="M28.6274 29.6721H28.3575C27.3142 29.5885 26.3418 29.1113 25.6373 28.3372C24.9329 27.5632 24.5491 26.5502 24.5639 25.5037V17.1518C24.5639 17.0603 24.5819 16.9696 24.617 16.885C24.652 16.8004 24.7034 16.7235 24.7681 16.6588C24.8328 16.5941 24.9097 16.5427 24.9943 16.5077C25.0789 16.4726 25.1696 16.4546 25.2611 16.4546H32.0086C32.1922 16.4566 32.3676 16.5309 32.4968 16.6614C32.6259 16.792 32.6983 16.9682 32.6983 17.1518V25.6087C32.7029 26.1699 32.5914 26.726 32.3708 27.2421C32.1501 27.7582 31.8252 28.2231 31.4163 28.6075C30.6579 29.3074 29.6592 29.6886 28.6274 29.6721ZM25.9509 17.8416V25.4887C25.9349 26.1837 26.184 26.8588 26.6477 27.3768C27.1114 27.8948 27.7549 28.2169 28.4474 28.2777C28.8159 28.2975 29.1845 28.2412 29.5302 28.1122C29.8759 27.9832 30.1913 27.7843 30.4567 27.5279C30.7232 27.2783 30.9354 26.9763 31.0799 26.6409C31.2243 26.3055 31.298 25.9439 31.2964 25.5787V17.8416H25.9509Z" fill="#E6D9E2"/>
<path d="M20.5981 14.6175C17.9631 14.6175 16.4857 14.6175 13.8507 14.6175C13.667 14.6156 13.4916 14.5412 13.3625 14.4107C13.2333 14.2801 13.1609 14.1039 13.1609 13.9203V4.08748C12.904 4.04649 12.67 3.91532 12.5011 3.71748C12.3321 3.51964 12.2391 3.26807 12.2388 3.00788V1.54594C12.2388 1.25364 12.3549 0.973326 12.5616 0.766645C12.7682 0.559963 13.0486 0.443848 13.3409 0.443848H21.0929C21.3852 0.443848 21.6656 0.559963 21.8722 0.766645C22.0789 0.973326 22.195 1.25364 22.195 1.54594V3.00788C22.195 3.26698 22.1031 3.51766 21.9356 3.71535C21.7681 3.91303 21.5359 4.04489 21.2804 4.08748V13.9203C21.2804 14.1026 21.209 14.2778 21.0815 14.4081C20.954 14.5384 20.7804 14.6136 20.5981 14.6175ZM14.6004 13.2306H19.9459V3.41274C19.9459 3.22911 20.0183 3.05289 20.1474 2.92235C20.2766 2.79181 20.452 2.71747 20.6356 2.7155H20.8605V1.83083H13.6407V2.7155H13.8657C13.9572 2.7155 14.0479 2.73354 14.1325 2.76858C14.2171 2.80362 14.2939 2.85497 14.3587 2.91972C14.4234 2.98446 14.4748 3.06132 14.5098 3.14592C14.5449 3.23051 14.5629 3.32118 14.5629 3.41274L14.6004 13.2306Z" fill="#6063F1"/>
<path d="M17.2468 29.6721H16.9694C15.9274 29.5867 14.9568 29.1087 14.254 28.3348C13.5511 27.561 13.1684 26.549 13.1833 25.5037V17.1518C13.1833 16.9682 13.2557 16.792 13.3848 16.6614C13.514 16.5309 13.6894 16.4566 13.873 16.4546H20.6205C20.8054 16.4546 20.9828 16.528 21.1135 16.6588C21.2443 16.7896 21.3177 16.9669 21.3177 17.1518V25.6087C21.321 26.1697 21.2088 26.7254 20.9883 27.2413C20.7677 27.7572 20.4435 28.2222 20.0357 28.6075C19.276 29.3054 18.2782 29.6863 17.2468 29.6721ZM14.5703 17.8416V25.4887C14.5541 26.1826 14.8022 26.8566 15.2644 27.3744C15.7265 27.8922 16.3681 28.2151 17.0593 28.2777C17.4278 28.2975 17.7964 28.2412 18.1421 28.1122C18.4878 27.9832 18.8032 27.7843 19.0686 27.5279C19.3376 27.2798 19.5518 26.9783 19.6977 26.6426C19.8436 26.307 19.9178 25.9446 19.9158 25.5787V17.8416H14.5703Z" fill="#6063F1"/>
<path d="M9.20971 14.6175H2.46224C2.27862 14.6156 2.1032 14.5412 1.97406 14.4107C1.84492 14.2801 1.77249 14.1039 1.7725 13.9203V8.08748C1.5162 8.04508 1.28313 7.9135 1.11441 7.71597C0.945684 7.51845 0.852159 7.26766 0.850342 7.00788V5.54594C0.850342 5.25364 0.966457 4.97333 1.17314 4.76664C1.37982 4.55996 1.66014 4.44385 1.95243 4.44385H9.74951C10.0418 4.44385 10.3221 4.55996 10.5288 4.76664C10.7355 4.97333 10.8516 5.25364 10.8516 5.54594V7.00788C10.8513 7.26807 10.7583 7.51964 10.5893 7.71748C10.4203 7.91532 10.1864 8.04649 9.92944 8.08748V13.9203C9.92949 14.0138 9.91074 14.1063 9.8743 14.1924C9.83786 14.2785 9.78448 14.3564 9.71734 14.4214C9.65019 14.4865 9.57065 14.5374 9.48345 14.5711C9.39624 14.6047 9.30315 14.6206 9.20971 14.6175ZM3.16698 13.2306H8.51247V7.41274C8.51247 7.22782 8.58593 7.05048 8.71669 6.91972C8.84745 6.78896 9.02479 6.7155 9.20971 6.7155H9.43463V5.83083H2.25232V6.7155H2.46974C2.65466 6.7155 2.832 6.78896 2.96276 6.91972C3.09352 7.05048 3.16698 7.22782 3.16698 7.41274V13.2306Z" fill="#E6D9E2"/>
<path d="M5.84367 29.6721H5.57377C4.5305 29.5885 3.55806 29.1113 2.85362 28.3372C2.14917 27.5632 1.76543 26.5502 1.7802 25.5037V17.1518C1.78019 16.9682 1.85261 16.792 1.98175 16.6614C2.11089 16.5309 2.28632 16.4566 2.46994 16.4546H9.21741C9.40102 16.4566 9.57645 16.5309 9.70559 16.6614C9.83473 16.792 9.90716 16.9682 9.90715 17.1518V25.6087C9.90715 26.6851 9.48006 27.7175 8.71963 28.4793C7.9592 29.2412 6.92757 29.6702 5.85117 29.6721H5.84367ZM3.16717 17.8416V25.4887C3.15118 26.1837 3.40033 26.8588 3.86402 27.3768C4.32771 27.8948 4.97118 28.2169 5.66374 28.2777C6.02857 28.3001 6.39415 28.2478 6.73806 28.124C7.08196 28.0001 7.39695 27.8074 7.6637 27.5575C7.93046 27.3076 8.14335 27.0058 8.28933 26.6707C8.43532 26.3356 8.51132 25.9742 8.51267 25.6087V17.8416H3.16717Z" fill="#E6D9E2"/>
</svg>
