<svg width="88" height="84" viewBox="0 0 88 84" fill="none" xmlns="http://www.w3.org/2000/svg">
<path fill-rule="evenodd" clip-rule="evenodd" d="M65.6306 4.85626C66.1212 4.36562 66.9167 4.36562 67.4073 4.85626L69.5902 7.03912L71.773 4.85626C72.2637 4.36562 73.0592 4.36562 73.5498 4.85626C74.0404 5.3469 74.0404 6.14239 73.5498 6.63303L71.3669 8.81588L74.0702 11.5191C74.5608 12.0098 74.5608 12.8052 74.0702 13.2959C73.5795 13.7865 72.7841 13.7865 72.2934 13.2959L69.5902 10.5926L66.8869 13.2959C66.3963 13.7865 65.6008 13.7865 65.1102 13.2959C64.6195 12.8052 64.6195 12.0098 65.1102 11.5191L67.8134 8.81588L65.6306 6.63303C65.1399 6.14239 65.1399 5.3469 65.6306 4.85626Z" fill="#E6D9E2"/>
<path fill-rule="evenodd" clip-rule="evenodd" d="M65.6306 18.048C66.1212 17.5574 66.9167 17.5574 67.4073 18.048L69.5902 20.2309L71.773 18.048C72.2637 17.5574 73.0592 17.5574 73.5498 18.048C74.0404 18.5387 74.0404 19.3342 73.5498 19.8248L71.3669 22.0077L74.0702 24.7109C74.5608 25.2015 74.5608 25.997 74.0702 26.4877C73.5795 26.9783 72.7841 26.9783 72.2934 26.4877L69.5902 23.7844L66.8869 26.4877C66.3963 26.9783 65.6008 26.9783 65.1102 26.4877C64.6195 25.997 64.6195 25.2015 65.1102 24.7109L67.8134 22.0077L65.6306 19.8248C65.1399 19.3342 65.1399 18.5387 65.6306 18.048Z" fill="#E6D9E2"/>
<path d="M60.0351 60.7088C59.4486 60.7088 58.9727 60.2342 58.9727 59.6463V27.9843C58.9727 27.3964 59.4486 26.9219 60.0351 26.9219C60.623 26.9219 61.0975 27.3964 61.0975 27.9843V59.6463C61.0975 60.2342 60.623 60.7088 60.0351 60.7088Z" fill="#E6D9E2"/>
<path d="M27.1194 60.4804C27.1194 59.8939 27.5939 59.418 28.1818 59.418L59.8438 59.418C60.4317 59.418 60.9062 59.8939 60.9062 60.4804C60.9062 61.0683 60.4317 61.5428 59.8438 61.5428L28.1818 61.5428C27.5939 61.5428 27.1194 61.0683 27.1194 60.4804Z" fill="#E6D9E2"/>
<path d="M83.7504 31.746H65.8632C65.2768 31.746 64.8008 31.2714 64.8008 30.6835C64.8008 30.0971 65.2768 29.6211 65.8632 29.6211H83.7504C84.3369 29.6211 84.8128 30.0971 84.8128 30.6835C84.8128 31.2714 84.3369 31.746 83.7504 31.746Z" fill="#E6D9E2"/>
<path d="M83.8496 50.3788H80.5702C79.9838 50.3788 79.5078 49.9028 79.5078 49.3163C79.5078 48.7285 79.9838 48.2539 80.5702 48.2539H83.8496C84.4361 48.2539 84.9121 48.7285 84.9121 49.3163C84.9121 49.9028 84.4361 50.3788 83.8496 50.3788Z" fill="#E6D9E2"/>
<path d="M68.4541 50.3788H65.8632C65.2768 50.3788 64.8008 49.9028 64.8008 49.3163C64.8008 48.7285 65.2768 48.2539 65.8632 48.2539H68.4541C69.0406 48.2539 69.5166 48.7285 69.5166 49.3163C69.5166 49.9028 69.0406 50.3788 68.4541 50.3788Z" fill="#E6D9E2"/>
<path d="M85.9823 83.2869C85.9497 83.2869 85.9172 83.2854 85.8846 83.2826C85.3009 83.2302 84.8703 82.7131 84.9227 82.1281L85.8747 71.6666V61.8611C85.8747 60.7505 85.1168 59.8084 84.0331 59.569C84.0218 59.5662 84.009 59.5634 83.9977 59.5605L76.1527 57.5447C75.6838 57.4243 75.3551 57.0008 75.3551 56.5163V41.7017C75.3551 41.0798 74.8494 40.5741 74.2275 40.5741C73.6056 40.5741 73.0999 41.0798 73.0999 41.7017V57.2388C73.0999 57.4923 73.0093 57.7388 72.8435 57.9315L69.2029 62.16C68.6844 62.762 68.3983 63.5326 68.3983 64.3288V70.0829C68.3983 70.794 68.7567 71.4471 69.3573 71.8296L71.7896 73.3736C73.0079 74.1471 73.7346 75.4716 73.7346 76.9137V82.2244C73.7346 82.8109 73.2586 83.2869 72.6721 83.2869C72.0857 83.2869 71.6097 82.8109 71.6097 82.2244V76.9137C71.6097 76.2025 71.2513 75.5495 70.6507 75.167L68.2184 73.6229C67.0001 72.8495 66.2734 71.525 66.2734 70.0829V64.3288C66.2734 63.0241 66.7423 61.7619 67.5937 60.7731L70.9751 56.845V41.7017C70.9751 39.9083 72.4341 38.4492 74.2275 38.4492C76.0209 38.4492 77.48 39.9083 77.48 41.7017V55.6919L84.5105 57.498C86.566 57.9612 87.9995 59.7518 87.9995 61.8611V71.7148C87.9995 71.7474 87.9981 71.78 87.9939 71.8111L87.0391 82.3208C86.9895 82.8718 86.5263 83.2869 85.9823 83.2869Z" fill="#E6D9E2"/>
<path d="M73.2734 62.5584C72.6869 62.5584 72.2109 62.0824 72.2109 61.4959V57.164C72.2109 56.5775 72.6869 56.1016 73.2734 56.1016C73.8598 56.1016 74.3358 56.5775 74.3358 57.164V61.4959C74.3358 62.0824 73.8598 62.5584 73.2734 62.5584Z" fill="#E6D9E2"/>
<path d="M82.03 44.0038H80.0808C79.4943 44.0038 79.0183 43.5279 79.0183 42.9414C79.0183 42.3549 79.4943 41.879 80.0808 41.879H82.03C83.3361 41.879 84.3999 40.8165 84.3999 39.509C84.3999 38.2029 83.3361 37.1405 82.03 37.1405H66.966C65.66 37.1405 64.5975 38.2029 64.5975 39.509C64.5975 40.8165 65.66 41.879 66.966 41.879H68.4889C69.0753 41.879 69.5513 42.3549 69.5513 42.9414C69.5513 43.5279 69.0753 44.0038 68.4889 44.0038H66.966C64.4884 44.0038 62.4727 41.988 62.4727 39.509C62.4727 37.0314 64.4884 35.0156 66.966 35.0156H82.03C84.5076 35.0156 86.5248 37.0314 86.5248 39.509C86.5248 41.988 84.5076 44.0038 82.03 44.0038Z" fill="#E6D9E2"/>
<path d="M54.0437 17.0333H2.63821V7.87939H10.5234V11.4018C10.5234 12.1311 11.1138 12.7207 11.8423 12.7207H18.8916C19.6199 12.7207 20.2104 12.1311 20.2104 11.4018V7.87939H36.4709V11.4018C36.4709 12.1311 37.0614 12.7207 37.7899 12.7207H44.8391C45.5675 12.7207 46.158 12.1311 46.158 11.4018V7.87939H54.0437V17.0333ZM45.5836 39.1074L39.016 45.6755V39.1074H45.5836ZM37.6972 36.4696C36.9688 36.4696 36.3783 37.0592 36.3783 37.7885V47.5405H9.23266V19.6711H47.4487V36.4696H37.6972ZM54.0437 54.135H2.63821V19.6711H6.59488V48.859C6.59488 49.5882 7.1854 50.1779 7.91377 50.1779H37.6972C38.0414 50.1779 38.3808 50.0405 38.6297 49.7915L49.7002 38.7211C49.9172 38.5039 50.0507 38.1753 50.0699 37.8713C50.0722 37.8427 50.087 19.6711 50.087 19.6711H54.0437V54.135ZM13.1612 2.63831H17.5727V10.0833H13.1612V2.63831ZM39.1088 2.63831H43.5203V10.0833H39.1088V2.63831ZM55.3625 5.24118H46.158V1.31888C46.158 0.590508 45.5675 0 44.8391 0H37.7899C37.0614 0 36.4709 0.590508 36.4709 1.31888V5.24118H20.2104V1.31888C20.2104 0.590508 19.6199 0 18.8916 0H11.8423C11.1138 0 10.5234 0.590508 10.5234 1.31888V5.24118H1.31889C0.590949 5.24118 0 5.83115 0 6.56006V55.4534C0 56.1827 0.590949 56.7728 1.31889 56.7728H55.3625C56.0909 56.7728 56.6813 56.1827 56.6813 55.4534V6.56006C56.6813 5.83115 56.0909 5.24118 55.3625 5.24118Z" fill="#E6D9E2"/>
<rect x="15.0631" y="25.9615" width="6.41005" height="6.41005" stroke="#6063F1" stroke-width="1.92302"/>
<rect x="15.0631" y="36.2154" width="6.41005" height="6.41005" stroke="#6063F1" stroke-width="1.92302"/>
<rect x="27.8834" y="25.9615" width="6.41005" height="6.41005" stroke="#6063F1" stroke-width="1.92302"/>
</svg>
