<svg width="29" height="50" viewBox="0 0 29 50" fill="none" xmlns="http://www.w3.org/2000/svg">
<path fill-rule="evenodd" clip-rule="evenodd" d="M13.0644 12.8528C12.8995 12.8718 12.3983 12.9485 11.9507 13.0232C8.65064 13.5739 5.66542 15.3645 3.61977 18.0202C2.27931 19.7605 1.43757 21.7377 1.10674 23.9234C0.923847 25.1317 0.982184 27.096 1.23429 28.2185C1.58423 29.7767 2.21189 31.2467 3.08917 32.5631C3.65832 33.4171 3.95155 33.7612 5.55389 35.4554C6.95209 36.9338 7.60828 37.7009 8.04722 38.3699C8.42902 38.9521 8.87439 39.8497 8.82213 39.932C8.80158 39.9644 8.66837 40.0136 8.52599 40.0414C8.21032 40.1029 7.92532 40.5186 7.92489 40.9181C7.92464 41.125 8.00028 41.2715 8.21581 41.4815L8.50706 41.7653H14.0923H19.6776L19.9689 41.4815C20.1844 41.2715 20.2601 41.125 20.2598 40.9181C20.2594 40.5186 19.9744 40.1029 19.6587 40.0414C19.5163 40.0136 19.3814 39.9618 19.3588 39.9261C19.282 39.8051 20.1649 38.2218 20.6801 37.5562C20.962 37.1923 21.7248 36.3509 22.3753 35.6865C24.0273 33.9996 24.4069 33.5677 24.9916 32.7094C25.9386 31.3193 26.5131 30.0191 26.9092 28.3692C27.1306 27.4467 27.1498 27.2326 27.1524 25.6566C27.1545 24.3264 27.1206 23.7795 27 23.1998C26.7731 22.1094 26.3054 20.8145 25.7692 19.7915C24.9411 18.2122 23.8656 16.8959 22.5199 15.8151C20.6629 14.3237 18.6449 13.4086 16.3207 13.0038C15.5954 12.8775 13.6367 12.7866 13.0644 12.8528ZM16.3196 14.8411C17.8887 15.1718 19.4107 15.8259 20.707 16.7268C21.5518 17.3137 22.679 18.4149 23.2881 19.2482C24.1806 20.4692 24.9054 22.1703 25.1915 23.7153C25.3711 24.6847 25.3693 26.5542 25.188 27.5342C25.0225 28.4284 24.6639 29.5037 24.242 30.3698C23.6944 31.4941 22.9819 32.4113 21.2862 34.1749C20.3839 35.1132 19.4298 36.1599 19.1659 36.5007C18.5504 37.2957 17.96 38.3239 17.6041 39.2208L17.3231 39.9291H16.1789H15.0346V36.9447V33.9602L17.6049 31.4571C19.3463 29.761 20.2049 28.8662 20.2672 28.6823C20.3965 28.3005 20.2336 27.8593 19.8872 27.6536C19.582 27.4723 19.3073 27.4502 19.0338 27.585C18.9309 27.6358 17.7769 28.7154 16.4695 29.9841L14.0923 32.2909L11.7152 29.9841C10.4078 28.7154 9.25379 27.6358 9.15091 27.585C8.87739 27.4502 8.60266 27.4723 8.29744 27.6536C7.95111 27.8593 7.78817 28.3005 7.91753 28.6823C7.9798 28.8662 8.83841 29.761 10.5798 31.4571L13.15 33.9602V36.9447V39.9291H12.0052H10.8604L10.7085 39.5326C10.466 38.8997 9.83442 37.7026 9.45785 37.1623C8.99706 36.5012 8.12886 35.5068 6.55367 33.8361C5.83958 33.0787 5.02663 32.1273 4.74728 31.722C3.83967 30.4051 3.2647 29.0132 2.98783 27.4624C2.88512 26.8873 2.86216 26.3614 2.89429 25.3227C2.92958 24.1834 2.97738 23.7942 3.17081 23.0692C3.73568 20.9525 4.89196 19.0414 6.46801 17.6197C7.12805 17.0242 8.31509 16.2038 9.01171 15.8615C10.1093 15.3221 11.2474 14.9626 12.5076 14.7568C13.3892 14.6129 15.4536 14.6586 16.3196 14.8411ZM8.47177 43.5989C8.16689 43.7205 7.92455 44.0957 7.92455 44.4461C7.92455 44.6831 7.99008 44.8389 8.17452 45.0399L8.42448 45.3125H14.0923H19.7602L20.0102 45.0399C20.1973 44.8359 20.2601 44.6842 20.2601 44.4362C20.2601 44.1881 20.1973 44.0364 20.0102 43.8324L19.7603 43.5598L14.2064 43.5433C11.1519 43.5342 8.57131 43.5592 8.47177 43.5989ZM10.7847 46.2669C10.6852 46.3081 10.5214 46.4441 10.4206 46.5688C10.1886 46.8562 10.1797 47.4341 10.4 47.9067C10.4874 48.094 10.7081 48.389 10.8907 48.5621C11.6024 49.237 12.3541 49.444 14.0923 49.444C15.8305 49.444 16.5823 49.237 17.294 48.5621C17.7146 48.1632 17.9429 47.6755 17.9453 47.171C17.9469 46.8508 17.8998 46.7241 17.6972 46.5032C17.4842 46.2709 17.3896 46.2306 17.0567 46.2306C16.7495 46.2306 16.6182 46.2773 16.4414 46.4496C16.3179 46.57 16.1911 46.7954 16.1597 46.9504C16.1138 47.1769 16.0278 47.2691 15.7218 47.42C15.3788 47.5892 15.2173 47.6078 14.0923 47.6078C12.9674 47.6078 12.8059 47.5892 12.4628 47.42C12.1569 47.2691 12.0708 47.1769 12.025 46.9504C11.9936 46.7954 11.8753 46.5782 11.762 46.4679C11.5349 46.2467 11.0658 46.1502 10.7847 46.2669Z" fill="#E6D9E2"/>
<line x1="15" y1="0.400879" x2="15" y2="9.40088" stroke="#6063F1" stroke-width="2"/>
<line x1="28.116" y1="6.90088" x2="25.616" y2="11.231" stroke="#6063F1" stroke-width="2"/>
<line y1="-1" x2="5" y2="-1" transform="matrix(0.5 0.866025 0.866025 -0.5 1.75 6.40088)" stroke="#6063F1" stroke-width="2"/>
</svg>
