<svg width="36" height="37" viewBox="0 0 36 37" fill="none" xmlns="http://www.w3.org/2000/svg">
<path fill-rule="evenodd" clip-rule="evenodd" d="M15.5932 0.0886517C14.7989 0.1815 13.4143 0.475866 12.589 0.727447C11.8143 0.963659 10.4293 1.5274 9.73198 1.89035C8.92268 2.31163 7.7251 3.08147 6.98424 3.65654C6.09378 4.34783 4.82079 5.61221 4.02542 6.59543C1.96811 9.13848 0.614402 12.2982 0.136867 15.6721C-0.046432 16.9664 -0.0454742 19.3916 0.13887 20.7459C0.467763 23.163 1.2903 25.5618 2.48301 27.5826C3.22143 28.8337 4.08759 29.9843 5.04135 30.981C6.47204 32.4763 7.93373 33.5711 9.74304 34.5026C12.3008 35.8194 14.7199 36.401 17.6395 36.401C19.248 36.401 20.4919 36.2527 21.8722 35.8966C23.1983 35.5544 23.9954 35.252 25.3024 34.5951C27.3462 33.5679 28.7568 32.5127 30.314 30.8463C31.3377 29.7508 31.9964 28.8799 32.6875 27.7084C33.3209 26.6344 33.6504 25.9461 34.0993 24.7593C34.8296 22.8284 35.1792 21.0063 35.2476 18.7745C35.284 17.5844 35.2601 16.9126 35.1491 16.0143C34.6316 11.828 32.9223 8.22815 30.0569 5.28989C29.5013 4.72021 28.6941 3.98362 28.263 3.65313C25.0682 1.20329 21.4286 -0.0348474 17.5262 0.000746149C16.8222 0.00712781 15.9524 0.0466766 15.5932 0.0886517ZM20.8382 2.26732C23.8101 2.93442 26.3525 4.32329 28.5135 6.46025C30.7124 8.63451 32.2122 11.2962 32.9168 14.2744C33.292 15.8606 33.3843 16.8385 33.3352 18.7063C33.3041 19.8866 33.2386 20.6221 33.1015 21.3253C32.6943 23.4157 31.8593 25.4851 30.7032 27.2684C29.001 29.8942 26.5987 31.9487 23.7981 33.1737C22.5908 33.7019 21.3456 34.074 20.0651 34.2893C18.7663 34.5078 16.4874 34.5079 15.2013 34.2895C13.2507 33.9582 11.216 33.2035 9.60476 32.2135C8.44532 31.5011 7.43121 30.6751 6.40647 29.6085C4.98136 28.1252 3.88653 26.4412 3.10291 24.527C2.62416 23.3576 2.31573 22.2736 2.07992 20.9317C1.8361 19.5446 1.81825 17.0917 2.04161 15.6866C2.53795 12.5657 3.84734 9.722 5.87904 7.3526C7.86625 5.03507 10.852 3.16965 13.7669 2.42434C15.259 2.04288 15.9704 1.9716 17.9443 2.00567C19.5497 2.03335 19.9621 2.07065 20.8382 2.26732ZM16.6781 7.74144C16.6553 7.80328 16.6467 10.4004 16.6591 13.5129L16.6817 19.1721L21.4709 22.0266C24.1051 23.5966 26.2963 24.8699 26.3403 24.8563C26.3843 24.8427 26.616 24.4762 26.8552 24.042C27.2077 23.4023 27.2669 23.2372 27.1671 23.1719C27.0993 23.1275 25.1337 21.9522 22.7989 20.5604L18.5538 18.0298V12.8294V7.62908H17.6368C16.9834 7.62908 16.7078 7.66135 16.6781 7.74144Z" fill="#E6D9E2"/>
<path d="M16.6565 13.5126C16.6441 10.4002 16.6527 7.80299 16.6755 7.74115C16.7052 7.66107 16.9808 7.6288 17.6343 7.6288H18.5513V12.8291V18.0295L22.7963 20.5601C25.1311 21.952 27.0968 23.1272 27.1645 23.1716C27.2643 23.2369 27.2052 23.402 26.8527 24.0417C26.6135 24.4759 26.3818 24.8424 26.3377 24.8561C26.2937 24.8696 24.1025 23.5963 21.4684 22.0263L16.6791 19.1718L16.6565 13.5126Z" fill="#6063F1"/>
</svg>
