<svg width="72" height="109" viewBox="0 0 72 109" fill="none" xmlns="http://www.w3.org/2000/svg">
<path d="M23.7022 43.8468C21.4424 43.8468 19.6046 45.6846 19.6046 47.9443C19.6046 50.2035 21.4424 52.0413 23.7022 52.0413C25.9613 52.0413 27.7991 50.2035 27.7991 47.9443C27.7991 45.6846 25.9613 43.8468 23.7022 43.8468ZM23.7022 54.5137C20.0796 54.5137 17.1328 51.5669 17.1328 47.9443C17.1328 44.3212 20.0796 41.375 23.7022 41.375C27.3248 41.375 30.2715 44.3212 30.2715 47.9443C30.2715 51.5669 27.3248 54.5137 23.7022 54.5137Z" fill="#E6D9E2"/>
<path d="M48.0615 43.8468C45.8024 43.8468 43.9646 45.6846 43.9646 47.9443C43.9646 50.2035 45.8024 52.0413 48.0615 52.0413C50.3212 52.0413 52.159 50.2035 52.159 47.9443C52.159 45.6846 50.3212 43.8468 48.0615 43.8468ZM48.0615 54.5137C44.4389 54.5137 41.4922 51.5669 41.4922 47.9443C41.4922 44.3212 44.4389 41.375 48.0615 41.375C51.6847 41.375 54.6309 44.3212 54.6309 47.9443C54.6309 51.5669 51.6847 54.5137 48.0615 54.5137Z" fill="#E6D9E2"/>
<path d="M6.31044 86.0716C5.62811 86.0716 5.07422 85.5177 5.07422 84.8354V83.0247C5.07422 82.3423 5.62811 81.7891 6.31044 81.7891C6.99277 81.7891 7.54605 82.3423 7.54605 83.0247V84.8354C7.54605 85.5177 6.99277 86.0716 6.31044 86.0716Z" fill="#E6D9E2"/>
<path d="M30.5911 86.0716C29.9087 86.0716 29.3555 85.5177 29.3555 84.8354V83.0247C29.3555 82.3423 29.9087 81.7891 30.5911 81.7891C31.274 81.7891 31.8273 82.3423 31.8273 83.0247V84.8354C31.8273 85.5177 31.274 86.0716 30.5911 86.0716Z" fill="#E6D9E2"/>
<path d="M54.8819 86.0716C54.1984 86.0716 53.6445 85.5177 53.6445 84.8354V83.0247C53.6445 82.3423 54.1984 81.7891 54.8819 81.7891C55.5654 81.7891 56.1193 82.3423 56.1193 83.0247V84.8354C56.1193 85.5177 55.5654 86.0716 54.8819 86.0716Z" fill="#E6D9E2"/>
<path d="M26.8371 55.4722C26.2013 55.23 25.4848 55.5447 25.2397 56.1828L23.7076 60.1678L22.1756 56.1828C21.9299 55.5447 21.2111 55.23 20.5782 55.4722C19.9407 55.7173 19.6231 56.4321 19.8676 57.0696L22.5533 64.0556C22.5563 64.0632 22.5622 64.0685 22.5651 64.0762C22.6064 64.1781 22.6618 64.2736 22.7289 64.3614C22.7443 64.3814 22.7607 64.3985 22.7772 64.4173C22.8403 64.491 22.911 64.557 22.9917 64.6147C23.0029 64.623 23.0129 64.633 23.0253 64.6412C23.099 64.6901 23.1779 64.7332 23.2639 64.7662C23.2763 64.7709 23.2893 64.7691 23.3017 64.7732C23.4319 64.8186 23.5674 64.8481 23.7076 64.8481C23.8479 64.8481 23.9834 64.8186 24.1136 64.7732C24.126 64.7691 24.1384 64.7709 24.1507 64.7662C24.2368 64.7332 24.3157 64.6901 24.39 64.6412C24.4018 64.633 24.4118 64.623 24.4236 64.6147C24.5037 64.557 24.5744 64.491 24.6381 64.4173C24.654 64.3985 24.6705 64.3814 24.6858 64.3614C24.7529 64.2736 24.8083 64.1781 24.8496 64.0762C24.8525 64.0685 24.8584 64.0632 24.8614 64.0556L27.5477 57.0696C27.7922 56.4321 27.474 55.7173 26.8371 55.4722Z" fill="#E6D9E2"/>
<path d="M51.1804 55.4722C50.5464 55.23 49.8288 55.5447 49.5837 56.1828L48.0511 60.1678L46.519 56.1828C46.2739 55.5447 45.555 55.23 44.9216 55.4722C44.2847 55.7173 43.9665 56.4321 44.2116 57.0696L46.8973 64.0556C46.9003 64.0632 46.9062 64.0685 46.9091 64.0762C46.9504 64.1781 47.0057 64.2736 47.0729 64.3614C47.0882 64.3814 47.1047 64.3985 47.1212 64.4173C47.1843 64.491 47.255 64.557 47.3351 64.6147C47.3469 64.623 47.3569 64.633 47.3687 64.6412C47.443 64.6901 47.5219 64.7332 47.6079 64.7662C47.6203 64.7709 47.6333 64.7691 47.6457 64.7732C47.7753 64.8186 47.9108 64.8481 48.0511 64.8481C48.1919 64.8481 48.3274 64.8186 48.457 64.7732C48.4694 64.7691 48.4824 64.7709 48.4947 64.7662C48.5808 64.7332 48.6597 64.6901 48.734 64.6412C48.7458 64.633 48.7558 64.623 48.767 64.6147C48.8477 64.557 48.9184 64.491 48.9814 64.4173C48.9979 64.3985 49.0145 64.3814 49.0298 64.3614C49.0969 64.2736 49.1523 64.1781 49.1936 64.0762C49.1965 64.0685 49.2024 64.0632 49.2054 64.0556L51.8911 57.0696C52.1362 56.4321 51.818 55.7173 51.1804 55.4722Z" fill="#E6D9E2"/>
<path d="M60.2731 54.1789C62.5357 54.1789 64.3741 56.0179 64.3741 58.277C64.3741 60.5367 62.5357 62.3745 60.2731 62.3745C58.0163 62.3745 56.1779 60.5367 56.1779 58.277C56.1779 56.0179 58.0163 54.1789 60.2731 54.1789ZM60.2731 64.8463C63.8969 64.8463 66.843 61.8996 66.843 58.277C66.843 54.6544 63.8969 51.707 60.2731 51.707C56.6552 51.707 53.7031 54.6544 53.7031 58.277C53.7031 61.8996 56.6552 64.8463 60.2731 64.8463Z" fill="#E6D9E2"/>
<path d="M69.438 82.3522C69.438 83.0151 68.996 83.6084 68.4186 83.7321C67.9767 83.8252 67.5053 83.6897 67.1694 83.3645C66.9927 83.193 66.863 82.9667 66.81 82.7287V82.7281C66.8277 82.6421 66.8395 82.5531 66.8395 82.4606V72.9728C66.8395 72.2899 66.2856 71.7366 65.6021 71.7366C64.9186 71.7366 64.3647 72.2905 64.3647 72.9728L64.3706 82.4606C64.3706 82.5531 64.3824 82.6427 64.4001 82.7293C64.3942 82.7405 64.3942 82.7517 64.3942 82.7629C64.3824 82.8177 64.3765 82.8736 64.3765 82.9302C64.3706 82.9538 64.3647 82.9762 64.3647 82.9997V83.0233L64.1703 104.907C64.1703 105.025 64.1879 105.143 64.2174 105.257C64.3647 105.775 64.0642 106.318 63.5574 106.464C63.033 106.607 62.3083 106.5 62.0902 106.142L61.5364 87.2469C61.5187 86.5805 60.9707 86.0496 60.3049 86.0472H60.299C59.6391 86.0472 59.0911 86.5728 59.0675 87.2363L58.3604 105.966C58.2779 106.128 58.107 106.276 57.8831 106.382C57.5767 106.523 57.2055 106.56 56.9757 106.497C56.958 106.491 56.8991 106.471 56.8815 106.465C56.6281 106.395 56.4219 106.23 56.2922 106.003C56.1685 105.776 56.139 105.511 56.2097 105.257C56.2451 105.145 56.2569 105.029 56.2569 104.914L56.1685 85.9453V72.9728C56.1685 72.2899 55.6146 71.7366 54.9311 71.7366C54.2476 71.7366 53.6937 72.2905 53.6937 72.9728L53.6996 82.4606V82.4617C53.6996 82.5519 53.6819 82.6403 53.6701 82.7275C53.6112 82.9709 53.4875 83.1918 53.3048 83.3674C52.9713 83.6897 52.507 83.827 52.0645 83.7327C51.4817 83.6084 51.0428 83.0151 51.0428 82.3522V71.8945C51.0428 69.7768 52.7657 68.0539 54.8839 68.0539H56.5986L59.0911 74.5354C59.0911 74.5431 59.0969 74.5484 59.1028 74.5554C59.1441 74.658 59.1971 74.7528 59.2619 74.8412C59.2796 74.8607 59.2973 74.8784 59.315 74.8972C59.3739 74.9703 59.4446 75.0368 59.5271 75.0946C59.5389 75.1028 59.5507 75.1129 59.5625 75.1211C59.6332 75.17 59.7156 75.213 59.7981 75.246C59.8099 75.2507 59.8276 75.2484 59.8394 75.2531C59.969 75.2985 60.1045 75.3279 60.2459 75.3279C60.3815 75.3279 60.517 75.2985 60.6466 75.2531C60.6643 75.2484 60.6761 75.2507 60.6879 75.246C60.7704 75.213 60.8529 75.17 60.9236 75.1211C60.9354 75.1129 60.9471 75.1028 60.9589 75.0946C61.0414 75.0368 61.1121 74.9703 61.171 74.8972C61.1887 74.8784 61.2064 74.8607 61.2241 74.8412C61.2889 74.7528 61.3419 74.658 61.3832 74.5554C61.3891 74.5484 61.395 74.5431 61.395 74.5354L63.8874 68.0539H65.6021C67.7174 68.0592 69.438 69.7821 69.438 71.8945V82.3522ZM60.2459 70.6477L59.2443 68.0539H61.2417L60.2459 70.6477ZM65.6021 65.582H54.8839C51.4022 65.582 48.5703 68.4133 48.5703 71.8945V82.3522C48.5703 84.1853 49.8236 85.7827 51.5512 86.151C51.814 86.2063 52.0792 86.234 52.342 86.234C52.811 86.234 53.2754 86.1415 53.7114 85.9753L53.7821 104.769C53.3873 106.542 54.4361 108.341 56.1508 108.827C56.1685 108.833 56.2274 108.853 56.2451 108.858C57.0995 109.102 58.0776 109.015 58.9202 108.624C59.4151 108.395 59.8335 108.073 60.1635 107.687C60.794 108.499 61.8604 108.999 63.0802 108.999C63.469 108.999 63.8462 108.948 64.2292 108.842C65.9851 108.336 67.0398 106.538 66.645 104.774L66.8395 85.9948C67.2578 86.1451 67.6938 86.2328 68.1358 86.2328C68.4009 86.2328 68.6661 86.2057 68.9312 86.1503C70.6577 85.7827 71.9069 84.1853 71.9069 82.3522V71.8945C71.9069 68.4221 69.0786 65.5909 65.6021 65.582Z" fill="#E6D9E2"/>
<path d="M35.9762 54.1789C38.2359 54.1789 40.0737 56.0179 40.0737 58.277C40.0737 60.5367 38.2359 62.3745 35.9762 62.3745C33.7171 62.3745 31.8781 60.5367 31.8781 58.277C31.8781 56.0179 33.7171 54.1789 35.9762 54.1789ZM35.9762 64.8463C39.5988 64.8463 42.5455 61.8996 42.5455 58.277C42.5455 54.6544 39.5988 51.707 35.9762 51.707C32.3536 51.707 29.4062 54.6544 29.4062 58.277C29.4062 61.8996 32.3536 64.8463 35.9762 64.8463Z" fill="#E6D9E2"/>
<path d="M45.1583 82.3522C45.1583 83.0151 44.7193 83.6084 44.1389 83.7321C43.6882 83.8294 43.235 83.6938 42.8933 83.3651C42.713 83.193 42.5851 82.9679 42.5321 82.7305C42.5315 82.7299 42.5315 82.7293 42.5315 82.7293C42.5503 82.6427 42.5627 82.5531 42.5627 82.4606L42.5604 72.9728C42.5604 72.2899 42.0065 71.7366 41.3242 71.7366C40.6407 71.7366 40.0879 72.2905 40.0879 72.9728L40.0903 82.4606C40.0903 82.5531 40.1021 82.6427 40.1215 82.7293C40.1192 82.7411 40.1156 82.7528 40.1133 82.7646C40.1038 82.813 40.1021 82.8624 40.0986 82.9113C40.0962 82.9414 40.0897 82.9697 40.0897 82.9997L39.8935 104.907C39.8923 105.025 39.9077 105.142 39.9401 105.257C40.0874 105.775 39.7856 106.318 39.2801 106.463C38.7498 106.61 38.028 106.501 37.8135 106.142L37.259 87.2469C37.2396 86.5805 36.6957 86.0496 36.0287 86.0472H36.0234C35.3599 86.0472 34.8131 86.5728 34.7884 87.2363L34.0825 105.966C34 106.128 33.8303 106.276 33.6029 106.382C33.2959 106.524 32.9282 106.562 32.6925 106.494C32.6772 106.489 32.6165 106.47 32.6012 106.465C32.0856 106.319 31.7857 105.777 31.9324 105.257C31.9642 105.145 31.9801 105.029 31.9795 104.914L31.8923 85.9453V82.4606L31.8899 72.9728C31.8899 72.2899 31.3367 71.7366 30.6538 71.7366C29.9708 71.7366 29.4181 72.2905 29.4181 72.9728L29.4205 82.4606V82.4617C29.4205 82.5525 29.4063 82.6421 29.3916 82.7299C29.3339 82.972 29.2107 83.1924 29.0275 83.3674C28.694 83.6897 28.2285 83.827 27.7871 83.7327C27.2044 83.6084 26.7648 83.0151 26.7648 82.3522V71.8945C26.7648 69.7768 28.4877 68.0539 30.6054 68.0539H32.0885C32.1003 68.0992 32.1086 68.1458 32.1256 68.1906L34.812 75.1771C34.8149 75.1842 34.8202 75.1895 34.8232 75.1971C34.865 75.2991 34.9198 75.3945 34.9875 75.4823C35.0023 75.5023 35.0194 75.52 35.0353 75.5389C35.0983 75.6119 35.1696 75.6785 35.2498 75.7357C35.2615 75.7439 35.2716 75.7539 35.2833 75.7622C35.357 75.8111 35.436 75.8541 35.5226 75.8871C35.5344 75.8918 35.5473 75.89 35.5597 75.8942C35.6899 75.9395 35.8254 75.9696 35.9657 75.9696C36.1059 75.9696 36.2414 75.9395 36.3717 75.8942C36.384 75.89 36.397 75.8918 36.4088 75.8871C36.4954 75.8541 36.5743 75.8111 36.648 75.7622C36.6598 75.7539 36.6698 75.7439 36.6816 75.7357C36.7623 75.6785 36.833 75.6119 36.8961 75.5389C36.9126 75.52 36.9291 75.5023 36.9444 75.4823C37.0115 75.3945 37.0664 75.2991 37.1082 75.1971C37.1111 75.1895 37.1164 75.1842 37.1194 75.1771L39.8057 68.1906C39.8228 68.1458 39.831 68.0992 39.8428 68.0539H41.3224C43.4377 68.0592 45.1583 69.7821 45.1583 71.8945V82.3522ZM35.9657 71.2887L34.7218 68.0539H37.2095L35.9657 71.2887ZM41.3259 65.582H30.6054C27.1248 65.582 24.293 68.4133 24.293 71.8945V82.3522C24.293 84.1853 25.5457 85.7827 27.2733 86.151C27.5367 86.2063 27.8013 86.234 28.0646 86.234C28.5337 86.234 28.9956 86.1415 29.4311 85.9753L29.5065 104.769C29.1088 106.542 30.16 108.341 31.8788 108.829C31.8941 108.834 31.953 108.853 31.9683 108.858C32.8215 109.102 33.7961 109.015 34.6428 108.624C35.136 108.395 35.5585 108.074 35.8838 107.689C36.5131 108.499 37.5796 108.999 38.8017 108.999C39.1876 108.999 39.57 108.948 39.9512 108.842C41.7095 108.336 42.7601 106.538 42.3671 104.774L42.561 85.9948C42.9775 86.1451 43.4147 86.2328 43.8602 86.2328C44.1236 86.2328 44.3893 86.2057 44.6521 86.1503C46.378 85.7827 47.6301 84.1853 47.6301 82.3522V71.8945C47.6301 68.4221 44.8036 65.5909 41.3259 65.582Z" fill="#E6D9E2"/>
<path d="M11.7022 54.1789C13.9619 54.1789 15.8008 56.0179 15.8008 58.277C15.8008 60.5367 13.9619 62.3745 11.7022 62.3745C9.44304 62.3745 7.60522 60.5367 7.60522 58.277C7.60522 56.0179 9.44304 54.1789 11.7022 54.1789ZM11.7022 64.8463C15.3253 64.8463 18.2727 61.8996 18.2727 58.277C18.2727 54.6544 15.3253 51.707 11.7022 51.707C8.07955 51.707 5.13281 54.6544 5.13281 58.277C5.13281 61.8996 8.07955 64.8463 11.7022 64.8463Z" fill="#E6D9E2"/>
<path d="M20.8653 82.3522C20.8653 83.0151 20.4257 83.6084 19.8448 83.7321C19.4028 83.8252 18.9362 83.6897 18.5991 83.3645C18.42 83.193 18.2915 82.9679 18.2385 82.7305V82.7293C18.2574 82.6427 18.2691 82.5531 18.2691 82.4606L18.2668 72.9728C18.2668 72.2899 17.7129 71.7366 17.0306 71.7366C16.3477 71.7366 15.795 72.2905 15.795 72.9728L15.7973 82.4606C15.7973 82.5531 15.8091 82.6427 15.8286 82.7293C15.8256 82.7411 15.8226 82.7528 15.8203 82.7646C15.8109 82.813 15.8091 82.8624 15.8056 82.9113C15.8032 82.9414 15.7967 82.9697 15.7967 82.9997L15.5993 104.907C15.5987 105.025 15.6141 105.143 15.6459 105.257C15.7932 105.775 15.4921 106.318 14.9872 106.463C14.4568 106.61 13.7338 106.501 13.5199 106.142L12.9655 87.2469C12.946 86.5805 12.4022 86.0496 11.7352 86.0472H11.7304C11.0664 86.0472 10.5202 86.5728 10.4954 87.2363L9.78951 105.966C9.70643 106.128 9.53673 106.275 9.30928 106.382C9.00229 106.523 8.63463 106.56 8.40483 106.497C8.38715 106.491 8.32587 106.471 8.30819 106.465C7.79144 106.319 7.49151 105.776 7.63941 105.257C7.67064 105.145 7.68713 105.029 7.68595 104.914L7.59935 85.9453V82.4606L7.59697 72.9728C7.59697 72.2899 7.04312 71.7366 6.36079 71.7366C5.67787 71.7366 5.12456 72.2905 5.12456 72.9728L5.12694 82.4606C5.12694 82.4612 5.12751 82.4612 5.12751 82.4612L5.12694 82.4617C5.12694 82.5519 5.11337 82.6415 5.09863 82.7287C5.04207 82.9708 4.91834 83.1912 4.7345 83.3674C4.40041 83.6897 3.93492 83.827 3.49299 83.7327C2.91083 83.6084 2.47183 83.0151 2.47183 82.3522V71.8945C2.47183 69.7768 4.19476 68.0539 6.31188 68.0539H8.04836L10.5408 74.5354C10.5437 74.5431 10.5496 74.5484 10.5526 74.5554C10.5938 74.658 10.6492 74.7528 10.7164 74.8412C10.7317 74.8607 10.7482 74.8784 10.7647 74.8972C10.8278 74.9703 10.8985 75.0368 10.9792 75.0946C10.991 75.1028 11.0004 75.1129 11.0127 75.1211C11.0864 75.17 11.1654 75.213 11.2514 75.246C11.2638 75.2507 11.2768 75.2484 11.2891 75.2531C11.4194 75.2985 11.5549 75.3279 11.6951 75.3279C11.8353 75.3279 11.9709 75.2985 12.1011 75.2531C12.1135 75.2484 12.1258 75.2507 12.1382 75.246C12.2242 75.213 12.3032 75.17 12.3774 75.1211C12.3892 75.1129 12.3992 75.1023 12.4116 75.094C12.4911 75.0369 12.5619 74.9709 12.6249 74.8978C12.6414 74.8789 12.6585 74.8607 12.6738 74.8406C12.7404 74.7528 12.7958 74.658 12.837 74.556C12.84 74.5484 12.8459 74.5431 12.8488 74.5354L15.3407 68.0539H17.0294C19.1447 68.0592 20.8653 69.7821 20.8653 71.8945V82.3522ZM11.6951 70.6477L10.6969 68.0539H12.6921L11.6951 70.6477ZM17.0323 65.582H6.31188C2.83128 65.582 0 68.4133 0 71.8945V82.3522C0 84.1853 1.25153 85.7827 2.97975 86.151C3.24255 86.2063 3.50714 86.234 3.77052 86.234C4.24014 86.234 4.7021 86.1415 5.13755 85.9748L5.21354 104.769C4.81522 106.541 5.86583 108.341 7.57931 108.827C7.59581 108.833 7.65651 108.853 7.67419 108.858C8.52681 109.102 9.50199 109.015 10.3487 108.624C10.8419 108.395 11.2644 108.074 11.5902 107.687C12.2195 108.499 13.2866 108.999 14.5081 108.999C14.8946 108.999 15.2765 108.948 15.6583 108.842C17.4171 108.336 18.4672 106.538 18.073 104.774L18.268 85.9954C18.684 86.145 19.1206 86.2328 19.5655 86.2328C19.8294 86.2328 20.0952 86.2057 20.358 86.1503C22.0844 85.7827 23.3371 84.1853 23.3371 82.3522V71.8945C23.3371 68.4221 20.51 65.5909 17.0323 65.582Z" fill="#E6D9E2"/>
<path d="M66.3355 27.9687H55.7794C55.0476 27.9687 54.4453 27.5209 54.4453 26.9687C54.4453 26.4165 55.0476 25.9688 55.7794 25.9688H66.3355C67.0738 25.9688 67.6696 26.4165 67.6696 26.9687C67.6696 27.5209 67.0738 27.9687 66.3355 27.9687Z" fill="#E6D9E2"/>
<path d="M66.385 13.918H54.9002C54.1902 13.918 53.6172 13.4698 53.6172 12.9182C53.6172 12.3656 54.1902 11.918 54.9002 11.918H66.385C67.095 11.918 67.668 12.3656 67.668 12.9182C67.668 13.4698 67.095 13.918 66.385 13.918Z" fill="#E6D9E2"/>
<path d="M66.3526 35.4062H52.459C51.7358 35.4062 51.1406 34.9585 51.1406 34.4063C51.1406 33.8541 51.7358 33.4062 52.459 33.4062H66.3526C67.0822 33.4062 67.671 33.8541 67.671 34.4063C67.671 34.9585 67.0822 35.4062 66.3526 35.4062Z" fill="#E6D9E2"/>
<path d="M66.3034 20.5312H59.1149C58.3596 20.5312 57.75 20.0831 57.75 19.531C57.75 18.9789 58.3596 18.5312 59.1149 18.5312H66.3034C67.0587 18.5312 67.6682 18.9789 67.6682 19.531C67.6682 20.0831 67.0587 20.5312 66.3034 20.5312Z" fill="#E6D9E2"/>
<path d="M66.3034 6.48047H59.1149C58.3596 6.48047 57.75 6.03278 57.75 5.48071C57.75 4.92863 58.3596 4.48047 59.1149 4.48047H66.3034C67.0587 4.48047 67.6682 4.92863 67.6682 5.48071C67.6682 6.03278 67.0587 6.48047 66.3034 6.48047Z" fill="#E6D9E2"/>
<path d="M25.4883 16.8404H24.4883V17.8404H25.4883V16.8404ZM25.4883 1.99951L25.6121 1.00721L24.4883 0.866981V1.99951H25.4883ZM40.3261 16.8404V17.8404H41.4584L41.3184 16.7167L40.3261 16.8404ZM26.4883 16.8404V1.99951H24.4883V16.8404H26.4883ZM40.3261 15.8404H25.4883V17.8404H40.3261V15.8404ZM25.3645 2.99182C32.6499 3.90086 38.4262 9.67808 39.3338 16.964L41.3184 16.7167C40.2977 8.52242 33.8059 2.0296 25.6121 1.00721L25.3645 2.99182Z" fill="#6063F1"/>
<mask id="path-20-inside-1_1074_12845" fill="white">
<path fill-rule="evenodd" clip-rule="evenodd" d="M22.2773 5.33957V20.1804H37.1151C37.2023 20.8804 37.2472 21.5934 37.2472 22.317C37.2472 31.7666 29.5869 39.4269 20.1373 39.4269C10.6877 39.4269 3.02734 31.7666 3.02734 22.317C3.02734 12.8674 10.6877 5.20703 20.1373 5.20703C20.8621 5.20703 21.5763 5.25209 22.2773 5.33957Z"/>
</mask>
<path d="M22.2773 20.1804H19.9673V22.4904H22.2773V20.1804ZM22.2773 5.33957H24.5873V3.29989L22.5634 3.04734L22.2773 5.33957ZM37.1151 20.1804L39.4074 19.8949L39.1552 17.8704H37.1151V20.1804ZM24.5873 20.1804V5.33957H19.9673V20.1804H24.5873ZM37.1151 17.8704H22.2773V22.4904H37.1151V17.8704ZM34.8229 20.466C34.8983 21.0714 34.9373 21.6891 34.9373 22.317H39.5573C39.5573 21.4977 39.5064 20.6893 39.4074 19.8949L34.8229 20.466ZM34.9373 22.317C34.9373 30.4908 28.3111 37.1169 20.1373 37.1169V41.7369C30.8626 41.7369 39.5573 33.0423 39.5573 22.317H34.9373ZM20.1373 37.1169C11.9635 37.1169 5.33734 30.4908 5.33734 22.317H0.717344C0.717344 33.0423 9.41195 41.7369 20.1373 41.7369V37.1169ZM5.33734 22.317C5.33734 14.1432 11.9635 7.51703 20.1373 7.51703V2.89703C9.41195 2.89703 0.717344 11.5916 0.717344 22.317H5.33734ZM20.1373 7.51703C20.7662 7.51703 21.3849 7.55613 21.9913 7.63179L22.5634 3.04734C21.7677 2.94806 20.9579 2.89703 20.1373 2.89703V7.51703Z" fill="#E6D9E2" mask="url(#path-20-inside-1_1074_12845)"/>
</svg>
