<svg width="196" height="156" viewBox="0 0 196 156" fill="none" xmlns="http://www.w3.org/2000/svg">
<path d="M0.585791 139.586C-0.195261 140.367 -0.195261 141.633 0.585791 142.414L13.3137 155.142C14.0948 155.923 15.3611 155.923 16.1421 155.142C16.9232 154.361 16.9232 153.095 16.1421 152.314L4.82844 141L16.1421 129.686C16.9232 128.905 16.9232 127.639 16.1421 126.858C15.3611 126.077 14.0948 126.077 13.3137 126.858L0.585791 139.586ZM191.5 -4.38983e-07L191.5 101L195.5 101L195.5 4.38983e-07L191.5 -4.38983e-07ZM153.5 139L2.00001 139L2.00001 143L153.5 143L153.5 139ZM191.5 101C191.5 121.987 174.487 139 153.5 139L153.5 143C176.696 143 195.5 124.196 195.5 101L191.5 101Z" fill="white"/>
</svg>
