<svg width="146" height="63" viewBox="0 0 146 63" fill="none" xmlns="http://www.w3.org/2000/svg">
<path d="M1.08579 46.5858C0.304735 47.3668 0.304735 48.6332 1.08579 49.4142L13.8137 62.1421C14.5948 62.9232 15.8611 62.9232 16.6421 62.1421C17.4232 61.3611 17.4232 60.0948 16.6421 59.3137L5.32843 48L16.6421 36.6863C17.4232 35.9052 17.4232 34.6389 16.6421 33.8579C15.8611 33.0768 14.5948 33.0768 13.8137 33.8579L1.08579 46.5858ZM142 1.05636e-07L142 7.99999L146 7.99999L146 -1.05636e-07L142 1.05636e-07ZM104 46L2.5 46L2.5 50L104 50L104 46ZM142 7.99999C142 28.9868 124.987 46 104 46L104 50C127.196 50 146 31.196 146 7.99999L142 7.99999Z" fill="white"/>
</svg>
