<svg width="146" height="63" viewBox="0 0 146 63" fill="none" xmlns="http://www.w3.org/2000/svg">
<path d="M144.914 46.5858C145.695 47.3668 145.695 48.6332 144.914 49.4142L132.186 62.1421C131.405 62.9232 130.139 62.9232 129.358 62.1421C128.577 61.3611 128.577 60.0948 129.358 59.3137L140.672 48L129.358 36.6863C128.577 35.9052 128.577 34.6389 129.358 33.8579C130.139 33.0768 131.405 33.0768 132.186 33.8579L144.914 46.5858ZM4 1.05636e-07L4 7.99999L7.9371e-09 7.99999L4.76837e-07 -1.05636e-07L4 1.05636e-07ZM42 46L143.5 46L143.5 50L42 50L42 46ZM4 7.99999C4 28.9868 21.0132 46 42 46L42 50C18.804 50 -1.24441e-06 31.196 7.9371e-09 7.99999L4 7.99999Z" fill="white"/>
</svg>
