<svg width="195" height="156" viewBox="0 0 195 156" fill="none" xmlns="http://www.w3.org/2000/svg">
<path d="M194.414 139.586C195.195 140.367 195.195 141.633 194.414 142.414L181.686 155.142C180.905 155.923 179.639 155.923 178.858 155.142C178.077 154.361 178.077 153.095 178.858 152.314L190.172 141L178.858 129.686C178.077 128.905 178.077 127.639 178.858 126.858C179.639 126.077 180.905 126.077 181.686 126.858L194.414 139.586ZM4 -4.36622e-07L4.00002 101L2.20496e-05 101L0 4.36622e-07L4 -4.36622e-07ZM42 139L193 139L193 143L42 143L42 139ZM4.00002 101C4.00003 121.987 21.0132 139 42 139L42 143C18.8041 143 2.71154e-05 124.196 2.20496e-05 101L4.00002 101Z" fill="white"/>
</svg>
