<svg width="676" height="235" viewBox="0 0 676 235" fill="none" xmlns="http://www.w3.org/2000/svg">
<path d="M675.903 142.815C675.903 193.045 528.5 233.764 346.67 233.764C164.84 233.764 17.4375 193.045 17.4375 142.815C17.4375 92.5861 164.84 51.8672 346.67 51.8672C386.992 51.8672 465.334 54.915 501.038 58.5794C626.34 71.4396 675.903 103.725 675.903 142.815Z" fill="#E7F3FD"/>
<path opacity="0.3" d="M675.903 106.437C675.903 164.704 528.5 211.937 346.67 211.937C164.84 211.937 17.4375 164.704 17.4375 106.437C17.4375 48.1715 164.84 0.9375 346.67 0.9375C386.992 0.9375 465.334 4.47291 501.038 8.72367C626.34 23.6415 675.903 61.0923 675.903 106.437Z" fill="#E7F3FD"/>
<path d="M508.559 144.03C508.559 194.26 361.157 234.979 179.327 234.979C-2.50372 234.979 -149.906 194.26 -149.906 144.03C-149.906 93.801 -2.50372 53.082 179.327 53.082C219.648 53.082 297.99 56.1298 333.694 59.7943C458.996 72.6545 508.559 104.94 508.559 144.03Z" fill="#E7F3FD"/>
<path opacity="0.3" d="M508.559 107.648C508.559 165.914 361.157 213.148 179.327 213.148C-2.50372 213.148 -149.906 165.914 -149.906 107.648C-149.906 49.3824 -2.50372 2.14844 179.327 2.14844C219.648 2.14844 297.99 5.68385 333.694 9.93461C458.996 24.8525 508.559 62.3033 508.559 107.648Z" fill="#E7F3FD"/>
</svg>
