<svg width="1440" height="2945" viewBox="0 0 1440 2945" fill="none" xmlns="http://www.w3.org/2000/svg">
<g filter="url(#filter0_f_2227_17745)">
<path d="M716.018 991.992C596.772 1071.54 340.809 1006.87 250.016 870.779C159.224 734.685 182.291 559.869 301.537 480.317C354.501 444.983 382.294 477.129 436.195 474.227C503.652 470.596 596 443.385 646.467 519.032C694.399 590.881 687.409 696.422 683.784 786.892C680.543 867.789 772.31 954.437 716.018 991.992Z" fill="#FFA6A6"/>
</g>
<g opacity="0.3" filter="url(#filter1_f_2227_17745)">
<path d="M716.018 991.992C596.772 1071.54 340.809 1006.87 250.016 870.779C159.224 734.685 182.291 559.869 301.537 480.317C354.501 444.983 382.294 477.129 436.195 474.227C503.652 470.596 596 443.385 646.467 519.032C694.399 590.881 687.409 696.422 683.784 786.892C680.543 867.789 772.31 954.437 716.018 991.992Z" fill="#FFA6A6"/>
</g>
<g filter="url(#filter2_f_2227_17745)">
<path d="M1464 370.787C1464 514.951 1267.16 693 1102.73 693C938.297 693 805 576.131 805 431.966C805 367.935 847.38 362.625 875.019 315.91C909.609 257.447 938.368 165 1029.77 165C1116.57 165 1200.92 229.754 1274.54 283.281C1340.37 331.144 1464 302.731 1464 370.787Z" fill="#EEFFD3"/>
</g>
<g opacity="0.4" filter="url(#filter3_f_2227_17745)">
<path d="M1464 370.787C1464 514.951 1267.16 693 1102.73 693C938.297 693 805 576.131 805 431.966C805 367.935 847.38 362.625 875.019 315.91C909.609 257.447 938.368 165 1029.77 165C1116.57 165 1200.92 229.754 1274.54 283.281C1340.37 331.144 1464 302.731 1464 370.787Z" fill="#EEFFD3"/>
</g>
<g filter="url(#filter4_f_2227_17745)">
<path d="M1593 777.382C1593 969.602 1146.14 1207 772.871 1207C399.598 1207 97 1051.17 97 858.955C97 773.581 193.207 766.499 255.95 704.213C334.472 626.263 399.759 503 607.243 503C804.305 503 995.775 589.339 1162.9 660.708C1312.34 724.525 1593 686.641 1593 777.382Z" fill="#D3EDFF"/>
</g>
<defs>
<filter id="filter0_f_2227_17745" x="-405.458" y="-136.391" width="1739.79" height="1763.01" filterUnits="userSpaceOnUse" color-interpolation-filters="sRGB">
<feFlood flood-opacity="0" result="BackgroundImageFix"/>
<feBlend mode="normal" in="SourceGraphic" in2="BackgroundImageFix" result="shape"/>
<feGaussianBlur stdDeviation="300" result="effect1_foregroundBlur_2227_17745"/>
</filter>
<filter id="filter1_f_2227_17745" x="-405.458" y="-136.391" width="1739.79" height="1763.01" filterUnits="userSpaceOnUse" color-interpolation-filters="sRGB">
<feFlood flood-opacity="0" result="BackgroundImageFix"/>
<feBlend mode="normal" in="SourceGraphic" in2="BackgroundImageFix" result="shape"/>
<feGaussianBlur stdDeviation="300" result="effect1_foregroundBlur_2227_17745"/>
</filter>
<filter id="filter2_f_2227_17745" x="205" y="-435" width="1859" height="1728" filterUnits="userSpaceOnUse" color-interpolation-filters="sRGB">
<feFlood flood-opacity="0" result="BackgroundImageFix"/>
<feBlend mode="normal" in="SourceGraphic" in2="BackgroundImageFix" result="shape"/>
<feGaussianBlur stdDeviation="300" result="effect1_foregroundBlur_2227_17745"/>
</filter>
<filter id="filter3_f_2227_17745" x="205" y="-435" width="1859" height="1728" filterUnits="userSpaceOnUse" color-interpolation-filters="sRGB">
<feFlood flood-opacity="0" result="BackgroundImageFix"/>
<feBlend mode="normal" in="SourceGraphic" in2="BackgroundImageFix" result="shape"/>
<feGaussianBlur stdDeviation="300" result="effect1_foregroundBlur_2227_17745"/>
</filter>
<filter id="filter4_f_2227_17745" x="-503" y="-97" width="2696" height="1904" filterUnits="userSpaceOnUse" color-interpolation-filters="sRGB">
<feFlood flood-opacity="0" result="BackgroundImageFix"/>
<feBlend mode="normal" in="SourceGraphic" in2="BackgroundImageFix" result="shape"/>
<feGaussianBlur stdDeviation="300" result="effect1_foregroundBlur_2227_17745"/>
</filter>
</defs>
</svg>
