<svg width="2696" height="3380" viewBox="0 0 2696 3380" fill="none" xmlns="http://www.w3.org/2000/svg">
<g filter="url(#filter0_f_2219_17698)">
<path d="M1219.02 1426.99C1099.77 1506.54 843.809 1441.87 753.016 1305.78C662.224 1169.69 685.291 994.869 804.537 915.317C857.501 879.983 885.294 912.129 939.195 909.227C1006.65 905.596 1099 878.385 1149.47 954.032C1197.4 1025.88 1190.41 1131.42 1186.78 1221.89C1183.54 1302.79 1275.31 1389.44 1219.02 1426.99Z" fill="#FFA6A6"/>
</g>
<g opacity="0.3" filter="url(#filter1_f_2219_17698)">
<path d="M1219.02 1426.99C1099.77 1506.54 843.809 1441.87 753.016 1305.78C662.224 1169.69 685.291 994.869 804.537 915.317C857.501 879.983 885.294 912.129 939.195 909.227C1006.65 905.596 1099 878.385 1149.47 954.032C1197.4 1025.88 1190.41 1131.42 1186.78 1221.89C1183.54 1302.79 1275.31 1389.44 1219.02 1426.99Z" fill="#FFA6A6"/>
</g>
<g filter="url(#filter2_f_2219_17698)">
<path d="M1967 805.787C1967 949.951 1770.16 1128 1605.73 1128C1441.3 1128 1308 1011.13 1308 866.966C1308 802.935 1350.38 797.625 1378.02 750.91C1412.61 692.447 1441.37 600 1532.77 600C1619.57 600 1703.92 664.754 1777.54 718.281C1843.37 766.144 1967 737.731 1967 805.787Z" fill="#EEFFD3"/>
</g>
<g opacity="0.4" filter="url(#filter3_f_2219_17698)">
<path d="M1967 805.787C1967 949.951 1770.16 1128 1605.73 1128C1441.3 1128 1308 1011.13 1308 866.966C1308 802.935 1350.38 797.625 1378.02 750.91C1412.61 692.447 1441.37 600 1532.77 600C1619.57 600 1703.92 664.754 1777.54 718.281C1843.37 766.144 1967 737.731 1967 805.787Z" fill="#EEFFD3"/>
</g>
<g filter="url(#filter4_f_2219_17698)">
<path d="M2096 1212.38C2096 1404.6 1649.14 1642 1275.87 1642C902.598 1642 600 1486.17 600 1293.96C600 1208.58 696.207 1201.5 758.95 1139.21C837.472 1061.26 902.759 938 1110.24 938C1307.31 938 1498.77 1024.34 1665.9 1095.71C1815.34 1159.52 2096 1121.64 2096 1212.38Z" fill="#D3EDFF"/>
</g>
<defs>
<filter id="filter0_f_2219_17698" x="97.5415" y="298.609" width="1739.79" height="1763.01" filterUnits="userSpaceOnUse" color-interpolation-filters="sRGB">
<feFlood flood-opacity="0" result="BackgroundImageFix"/>
<feBlend mode="normal" in="SourceGraphic" in2="BackgroundImageFix" result="shape"/>
<feGaussianBlur stdDeviation="300" result="effect1_foregroundBlur_2219_17698"/>
</filter>
<filter id="filter1_f_2219_17698" x="97.5415" y="298.609" width="1739.79" height="1763.01" filterUnits="userSpaceOnUse" color-interpolation-filters="sRGB">
<feFlood flood-opacity="0" result="BackgroundImageFix"/>
<feBlend mode="normal" in="SourceGraphic" in2="BackgroundImageFix" result="shape"/>
<feGaussianBlur stdDeviation="300" result="effect1_foregroundBlur_2219_17698"/>
</filter>
<filter id="filter2_f_2219_17698" x="708" y="0" width="1859" height="1728" filterUnits="userSpaceOnUse" color-interpolation-filters="sRGB">
<feFlood flood-opacity="0" result="BackgroundImageFix"/>
<feBlend mode="normal" in="SourceGraphic" in2="BackgroundImageFix" result="shape"/>
<feGaussianBlur stdDeviation="300" result="effect1_foregroundBlur_2219_17698"/>
</filter>
<filter id="filter3_f_2219_17698" x="708" y="0" width="1859" height="1728" filterUnits="userSpaceOnUse" color-interpolation-filters="sRGB">
<feFlood flood-opacity="0" result="BackgroundImageFix"/>
<feBlend mode="normal" in="SourceGraphic" in2="BackgroundImageFix" result="shape"/>
<feGaussianBlur stdDeviation="300" result="effect1_foregroundBlur_2219_17698"/>
</filter>
<filter id="filter4_f_2219_17698" x="0" y="338" width="2696" height="1904" filterUnits="userSpaceOnUse" color-interpolation-filters="sRGB">
<feFlood flood-opacity="0" result="BackgroundImageFix"/>
<feBlend mode="normal" in="SourceGraphic" in2="BackgroundImageFix" result="shape"/>
<feGaussianBlur stdDeviation="300" result="effect1_foregroundBlur_2219_17698"/>
</filter>
</defs>
</svg>
