<svg width="179" height="68" viewBox="0 0 179 68" fill="none" xmlns="http://www.w3.org/2000/svg">
<path d="M91.7919 7.82637C90.9574 6.98938 89.6231 6.96487 88.4429 6.96487C86.5253 6.96487 84.9707 5.40573 84.9707 3.48244C84.9707 1.55914 86.5253 0 88.4429 0C90.3605 0 91.915 1.55914 91.915 3.48244C91.915 4.66611 91.9395 6.0044 92.774 6.84139L93.3787 7.44788C94.3807 8.45284 96.0534 8.35785 97.4705 8.35785C99.3881 8.35785 100.943 9.91699 100.943 11.8403C100.943 13.7636 99.3881 15.3227 97.4705 15.3227C95.5529 15.3227 93.9983 13.7636 93.9983 11.8403C93.9983 10.9266 93.8949 9.9356 93.2507 9.2895L91.7919 7.82637Z" fill="url(#paint0_linear_1074_12807)"/>
<path d="M84.8476 24.5421C84.0131 23.7051 82.6788 23.6806 81.4986 23.6806C79.581 23.6806 78.0265 22.1214 78.0265 20.1981C78.0265 18.2748 79.581 16.7157 81.4986 16.7157C83.4162 16.7157 84.9707 18.2748 84.9707 20.1981C84.9707 21.3818 84.9952 22.7201 85.8297 23.5571L86.4344 24.1636C87.4364 25.1685 89.1091 25.0735 90.5262 25.0735C92.4438 25.0735 93.9983 26.6327 93.9983 28.556C93.9983 30.4793 92.4438 32.0384 90.5262 32.0384C88.6086 32.0384 87.054 30.4793 87.054 28.556C87.054 27.6423 86.9506 26.6513 86.3064 26.0052L84.8476 24.5421Z" fill="url(#paint1_linear_1074_12807)"/>
<path d="M92.4863 16.1842C91.6518 15.3472 90.3175 15.3227 89.1373 15.3227C87.2197 15.3227 85.6652 13.7636 85.6652 11.8403C85.6652 9.91699 87.2197 8.35785 89.1373 8.35785C91.0549 8.35785 92.6095 9.91699 92.6095 11.8403C92.6095 13.024 92.6339 14.3622 93.4684 15.1992L94.0731 15.8057C95.0751 16.8107 96.7479 16.7157 98.1649 16.7157C100.083 16.7157 101.637 18.2748 101.637 20.1981C101.637 22.1214 100.083 23.6806 98.1649 23.6806C96.2473 23.6806 94.6928 22.1214 94.6928 20.1981C94.6928 19.2844 94.5893 18.2934 93.9452 17.6474L92.4863 16.1842Z" fill="url(#paint2_linear_1074_12807)"/>
<path d="M84.1532 16.1842C83.3187 15.3472 81.9844 15.3227 80.8042 15.3227C78.8866 15.3227 77.332 13.7636 77.332 11.8403C77.332 9.91699 78.8866 8.35785 80.8042 8.35785C82.7218 8.35785 84.2763 9.91699 84.2763 11.8403C84.2763 13.024 84.3008 14.3622 85.1353 15.1992L85.74 15.8057C86.742 16.8107 88.4147 16.7157 89.8318 16.7157C91.7494 16.7157 93.3039 18.2748 93.3039 20.1981C93.3039 22.1214 91.7494 23.6806 89.8318 23.6806C87.9141 23.6806 86.3596 22.1214 86.3596 20.1981C86.3596 19.2844 86.2562 18.2934 85.612 17.6474L84.1532 16.1842Z" fill="url(#paint3_linear_1074_12807)"/>
<path d="M129.742 67.0214H128.012V56.2401C126.312 58.9631 124.741 61.4801 123.125 64.0688C121.505 61.4734 119.937 58.9608 118.27 56.2897V67.0058H116.495V54.2164C117.21 54.2164 117.893 54.1743 118.564 54.2403C118.792 54.2623 119.057 54.5207 119.191 54.7366C120.195 56.3565 121.172 57.9928 122.157 59.6242C122.466 60.1358 122.774 60.6478 123.145 61.2639C124.09 59.7238 124.991 58.2628 125.884 56.7976C126.319 56.0839 126.708 55.3418 127.184 54.6549C127.335 54.4375 127.689 54.2668 127.97 54.2347C128.535 54.1702 129.113 54.2153 129.742 54.2153V67.0214Z" fill="#141415"/>
<path d="M169.205 65.6045C170.48 65.6045 171.691 65.6888 172.883 65.5829C174.307 65.4568 175.486 64.8781 176.094 63.4909C176.766 61.9568 176.682 60.3876 176.406 58.814C176.02 56.6176 174.767 55.8975 172.997 55.6719C171.766 55.5149 170.495 55.6417 169.205 55.6417V65.6045ZM167.372 67.0409V54.2016C169.025 54.2016 170.657 54.2068 172.29 54.2001C173.785 54.1937 175.233 54.441 176.324 55.4754C176.991 56.1075 177.66 56.8823 177.943 57.7147C178.656 59.8036 178.678 61.9355 177.738 64.0208C176.839 66.0177 175.113 66.8556 173.032 67.0114C171.184 67.1505 169.316 67.0409 167.372 67.0409Z" fill="#141415"/>
<path d="M34.0892 59.8302C34.0213 57.642 32.9343 56.0061 30.4711 55.5582C28.4583 55.192 25.8249 56.096 25.426 58.4702C25.2372 59.5956 25.2647 60.7598 25.2519 61.9069C25.2333 63.6054 26.3975 65.0773 28.0726 65.5669C30.3776 66.2403 32.9711 65.3264 33.622 63.3556C33.9027 62.5061 34.0892 61.5537 34.0892 60.6923V59.8302ZM29.6147 67.2162C26.0629 67.3083 23.723 64.9963 23.3803 61.8494C23.2179 60.353 23.314 58.93 23.8432 57.5719C24.6658 55.462 26.4045 54.3202 28.6863 54.0827C30.7448 53.8686 32.6932 54.2426 34.195 55.7876C35.1657 56.7862 35.6065 57.9925 35.8073 59.3476C36.0302 60.8549 35.9127 62.3178 35.3646 63.705C34.502 65.8868 32.4323 67.271 29.6147 67.2162Z" fill="#141415"/>
<path d="M95.2468 55.5707V59.6723H101.927V61.1143H95.2887V65.5339H102.407V66.9431H93.4562V54.2H102.406V55.5707H95.2468Z" fill="#141415"/>
<path d="M146.164 59.6864H152.807V61.1005H146.178V65.5469H153.317V66.9341H144.346V54.2H153.316V55.5573H146.164V59.6864Z" fill="#141415"/>
<path d="M10.4026 56.1667C9.92852 56.4695 9.48658 56.7518 9.00471 57.0602C7.64904 55.4776 5.89137 55.2076 3.9352 55.6387C2.9389 55.8579 2.40159 56.4531 2.35469 57.3495C2.30274 58.3433 2.6152 58.793 3.76463 59.1279C4.81288 59.434 5.90106 59.6112 6.95163 59.9095C8.3701 60.3122 9.83897 60.7164 10.2743 62.3449C10.883 64.6189 9.84401 66.1425 7.77853 66.8398C5.80647 67.5055 3.77975 67.4033 1.92089 66.3513C1.25255 65.974 0.667561 65.4605 0 64.9768C0.530715 64.5834 0.968003 64.2594 1.23162 64.0643C2.1783 64.5924 3.00248 65.28 3.94877 65.5172C4.92259 65.761 6.05225 65.7275 7.04622 65.5187C8.13944 65.2893 9.01053 64.2933 8.59573 62.8025C8.35227 61.928 7.55794 61.7184 6.82215 61.5074C5.56689 61.1483 4.27092 60.9186 3.02225 60.5423C0.986998 59.9293 0.201974 58.5775 0.703615 56.6041C1.0436 55.2661 2.08836 54.6691 3.39402 54.3313C6.10613 53.6298 8.45772 54.1027 10.4026 56.1667Z" fill="#141415"/>
<path d="M80.4538 54.2131C79.1466 57.5554 77.8914 60.7631 76.6376 63.9719C76.3543 64.6965 76.0364 65.4121 75.8104 66.1534C75.608 66.8171 75.2847 67.1177 74.5047 67.073C73.2355 66.9999 73.251 67.0472 72.8187 65.8905C72.1562 64.1185 71.465 62.3565 70.785 60.5908C70.0027 58.5585 69.2177 56.5277 68.4374 54.4954C68.4114 54.4275 68.4238 54.3462 68.4156 54.2415H70.3036C71.6503 57.9361 73.0044 61.6506 74.4152 65.5209C74.866 64.2095 75.244 63.0303 75.6762 61.8699C76.5725 59.4658 77.489 57.068 78.4283 54.6792C78.507 54.4801 78.8039 54.2713 79.0299 54.234C79.4536 54.1628 79.8998 54.2131 80.4538 54.2131Z" fill="#141415"/>
<path d="M51.5628 65.5604H57.8011V66.917H49.8245V54.1958H51.5628V65.5604Z" fill="#141415"/>
<defs>
<linearGradient id="paint0_linear_1074_12807" x1="72.9129" y1="4.77168" x2="114.565" y2="4.40314" gradientUnits="userSpaceOnUse">
<stop stop-color="#5242EE"/>
<stop offset="1" stop-color="#97ECFF"/>
</linearGradient>
<linearGradient id="paint1_linear_1074_12807" x1="72.9129" y1="4.77168" x2="114.565" y2="4.40314" gradientUnits="userSpaceOnUse">
<stop stop-color="#5242EE"/>
<stop offset="1" stop-color="#97ECFF"/>
</linearGradient>
<linearGradient id="paint2_linear_1074_12807" x1="72.9129" y1="4.77168" x2="114.565" y2="4.40314" gradientUnits="userSpaceOnUse">
<stop stop-color="#5242EE"/>
<stop offset="1" stop-color="#97ECFF"/>
</linearGradient>
<linearGradient id="paint3_linear_1074_12807" x1="72.9129" y1="4.77168" x2="114.565" y2="4.40314" gradientUnits="userSpaceOnUse">
<stop stop-color="#5242EE"/>
<stop offset="1" stop-color="#97ECFF"/>
</linearGradient>
</defs>
</svg>
