<svg width="12" height="12" viewBox="0 0 12 12" fill="none" xmlns="http://www.w3.org/2000/svg">
<path d="M11.6569 0.313592C12.0474 0.704116 12.0474 1.33728 11.6569 1.72781L7.41421 5.97045L11.6569 10.2131C12.0474 10.6036 12.0474 11.2368 11.6569 11.6273C11.2663 12.0178 10.6332 12.0178 10.2426 11.6273L6 7.38466L1.75736 11.6273C1.36683 12.0178 0.73367 12.0178 0.343146 11.6273C-0.0473784 11.2368 -0.0473788 10.6036 0.343146 10.2131L4.58578 5.97045L0.343143 1.72781C-0.0473812 1.33728 -0.0473808 0.704119 0.343143 0.313595C0.733667 -0.0769291 1.36683 -0.0769292 1.75736 0.313595L6 4.55624L10.2426 0.313592C10.6332 -0.0769319 11.2663 -0.0769318 11.6569 0.313592Z" fill="#0D0D0D"/>
</svg>
