<svg width="893" height="35" viewBox="0 0 893 35" fill="none" xmlns="http://www.w3.org/2000/svg">
<path opacity="0.2" d="M1 34L17.5 17.5C26.6127 8.3873 41.3873 8.3873 50.5 17.5V17.5C59.6127 26.6127 74.3873 26.6127 83.5 17.5V17.5C92.6127 8.3873 107.387 8.3873 116.5 17.5V17.5C125.613 26.6127 140.387 26.6127 149.5 17.5V17.5C158.613 8.3873 173.387 8.3873 182.5 17.5V17.5C191.613 26.6127 206.387 26.6127 215.5 17.5V17.5C224.613 8.3873 239.387 8.3873 248.5 17.5V17.5C257.613 26.6127 272.387 26.6127 281.5 17.5V17.5C290.613 8.3873 305.387 8.3873 314.5 17.5V17.5C323.613 26.6127 338.387 26.6127 347.5 17.5V17.5C356.613 8.3873 371.387 8.3873 380.5 17.5V17.5C389.613 26.6127 404.387 26.6127 413.5 17.5V17.5C422.613 8.3873 437.387 8.3873 446.5 17.5V17.5C455.613 26.6127 470.387 26.6127 479.5 17.5V17.5C488.613 8.3873 503.387 8.3873 512.5 17.5V17.5C521.613 26.6127 536.387 26.6127 545.5 17.5V17.5C554.613 8.3873 569.387 8.3873 578.5 17.5V17.5C587.613 26.6127 602.387 26.6127 611.5 17.5V17.5C620.613 8.3873 635.387 8.3873 644.5 17.5V17.5C653.613 26.6127 668.387 26.6127 677.5 17.5V17.5C686.613 8.3873 701.387 8.3873 710.5 17.5V17.5C719.613 26.6127 734.387 26.6127 743.5 17.5V17.5C752.613 8.3873 767.387 8.3873 776.5 17.5V17.5C785.613 26.6127 800.387 26.6127 809.5 17.5V17.5C818.613 8.3873 833.387 8.3873 842.5 17.5V17.5C851.613 26.6127 866.387 26.6127 875.5 17.5L892 1" stroke="black"/>
</svg>
