<svg width="24" height="24" viewBox="0 0 24 24" fill="none" xmlns="http://www.w3.org/2000/svg">
<path d="M9.55522 16.75H7.04024V8.36002H9.55522V16.75ZM15.893 8.62158C16.8319 8.62158 17.5462 8.92337 18.0357 9.52697C18.5253 10.1306 18.7701 10.9555 18.7701 12.0017V16.75H16.2551V12.2633C16.2551 11.0963 15.846 10.5128 15.0278 10.5128C14.3706 10.5128 13.9414 10.8415 13.7402 11.4987V16.75H11.2252C11.252 11.72 11.252 8.92338 11.2252 8.36002H13.217L13.378 10.03H13.4182C13.995 9.09103 14.8199 8.62158 15.893 8.62158ZM7 6.26755C7 5.42251 7.43593 5 8.30779 5C9.16624 5 9.59546 5.42251 9.59546 6.26755C9.59546 7.09918 9.16624 7.51498 8.30779 7.51498C7.43593 7.51498 7 7.09918 7 6.26755Z" fill="#5242EE"/>
<circle cx="12" cy="12" r="11.5536" stroke="#5242EE" stroke-width="0.892857"/>
</svg>
