<svg width="24" height="24" viewBox="0 0 24 24" fill="none" xmlns="http://www.w3.org/2000/svg">
<path d="M11.5312 0C9.93749 0 8.44141 0.300778 7.04297 0.902344C5.64452 1.50391 4.42579 2.32421 3.38672 3.36328C2.34765 4.40235 1.52344 5.62109 0.914062 7.01953C0.304684 8.41798 0 9.91405 0 11.5078C0 13.1016 0.304684 14.5976 0.914062 15.9961C1.52344 17.3945 2.34765 18.6133 3.38672 19.6523C4.42579 20.6914 5.64452 21.5156 7.04297 22.125C8.44141 22.7344 9.93749 23.0391 11.5312 23.0391C13.125 23.0391 14.6211 22.7344 16.0195 22.125C17.418 21.5156 18.6367 20.6914 19.6758 19.6523C20.7148 18.6133 21.5391 17.3945 22.1484 15.9961C22.7578 14.5976 23.0625 13.1016 23.0625 11.5078C23.0625 9.91405 22.7578 8.41798 22.1484 7.01953C21.5391 5.62109 20.7148 4.40235 19.6758 3.36328C18.6367 2.32421 17.418 1.50391 16.0195 0.902344C14.6211 0.300778 13.125 0 11.5312 0ZM8.71875 16.2891H6.375V8.78906H8.71875V16.2891ZM7.52344 7.85156C7.16406 7.85156 6.875 7.73828 6.65625 7.51172C6.4375 7.28516 6.32812 7.00781 6.32812 6.67969C6.32812 6.35156 6.44141 6.07813 6.66797 5.85938C6.89453 5.64062 7.19531 5.53125 7.57031 5.53125C7.94531 5.53125 8.23828 5.64062 8.44922 5.85938C8.66016 6.07813 8.77344 6.35156 8.78906 6.67969C8.78906 7.00781 8.67578 7.28516 8.44922 7.51172C8.22265 7.73828 7.91406 7.85156 7.52344 7.85156ZM17.2266 16.2891H14.9062V12.1172C14.9062 11.6328 14.8125 11.2422 14.625 10.9453C14.4375 10.6484 14.1328 10.5 13.7109 10.5C13.3984 10.5 13.1445 10.5937 12.9492 10.7812C12.7539 10.9688 12.6094 11.1641 12.5156 11.3672C12.4844 11.4453 12.4648 11.5352 12.457 11.6367C12.4492 11.7383 12.4453 11.8437 12.4453 11.9531V16.2891H10.1016V11.1797C10.1016 10.7109 10.0977 10.2773 10.0898 9.87891C10.082 9.48047 10.0703 9.11719 10.0547 8.78906H12.0703L12.1875 9.82031H12.2344C12.3906 9.57031 12.6562 9.30469 13.0312 9.02344C13.4063 8.74219 13.9141 8.60156 14.5547 8.60156C15.3203 8.60156 15.957 8.86719 16.4648 9.39844C16.9727 9.92969 17.2266 10.75 17.2266 11.8594V16.2891Z" fill="#5242EE"/>
</svg>
