<svg width="35" height="46" viewBox="0 0 35 46" fill="none" xmlns="http://www.w3.org/2000/svg">
<path d="M20.8227 11.2369C19.621 10.0352 17.6995 10 16 10C13.2386 10 11 7.76142 11 5C11 2.23858 13.2386 0 16 0C18.7614 0 21 2.23858 21 5C21 6.69949 21.0352 8.62097 22.2369 9.8227L23.1077 10.6935C24.5506 12.1364 26.9594 12 29 12C31.7614 12 34 14.2386 34 17C34 19.7614 31.7614 22 29 22C26.2386 22 24 19.7614 24 17C24 15.6881 23.8511 14.2653 22.9234 13.3376L20.8227 11.2369Z" fill="url(#paint0_linear_1077_19811)"/>
<path d="M10.8227 35.2369C9.62097 34.0352 7.69949 34 6 34C3.23858 34 1 31.7614 1 29C1 26.2386 3.23858 24 6 24C8.76142 24 11 26.2386 11 29C11 30.6995 11.0352 32.621 12.2369 33.8227L13.1077 34.6935C14.5506 36.1364 16.9594 36 19 36C21.7614 36 24 38.2386 24 41C24 43.7614 21.7614 46 19 46C16.2386 46 14 43.7614 14 41C14 39.6881 13.8511 38.2653 12.9234 37.3376L10.8227 35.2369Z" fill="url(#paint1_linear_1077_19811)"/>
<path d="M21.8227 23.2369C20.621 22.0352 18.6995 22 17 22C14.2386 22 12 19.7614 12 17C12 14.2386 14.2386 12 17 12C19.7614 12 22 14.2386 22 17C22 18.6995 22.0352 20.621 23.2369 21.8227L24.1077 22.6935C25.5506 24.1364 27.9594 24 30 24C32.7614 24 35 26.2386 35 29C35 31.7614 32.7614 34 30 34C27.2386 34 25 31.7614 25 29C25 27.6881 24.8511 26.2653 23.9234 25.3376L21.8227 23.2369Z" fill="url(#paint2_linear_1077_19811)"/>
<path d="M9.82269 23.2369C8.62097 22.0352 6.69949 22 5 22C2.23858 22 0 19.7614 0 17C0 14.2386 2.23858 12 5 12C7.76142 12 10 14.2386 10 17C10 18.6995 10.0352 20.621 11.2369 21.8227L12.1077 22.6935C13.5506 24.1364 15.9594 24 18 24C20.7614 24 23 26.2386 23 29C23 31.7614 20.7614 34 18 34C15.2386 34 13 31.7614 13 29C13 27.6881 12.8511 26.2653 11.9234 25.3376L9.82269 23.2369Z" fill="url(#paint3_linear_1077_19811)"/>
<defs>
<linearGradient id="paint0_linear_1077_19811" x1="-6.36364" y1="6.85106" x2="53.6172" y2="6.31878" gradientUnits="userSpaceOnUse">
<stop stop-color="#5242EE"/>
<stop offset="1" stop-color="#97ECFF"/>
</linearGradient>
<linearGradient id="paint1_linear_1077_19811" x1="-6.36364" y1="6.85106" x2="53.6172" y2="6.31878" gradientUnits="userSpaceOnUse">
<stop stop-color="#5242EE"/>
<stop offset="1" stop-color="#97ECFF"/>
</linearGradient>
<linearGradient id="paint2_linear_1077_19811" x1="-6.36364" y1="6.85106" x2="53.6172" y2="6.31878" gradientUnits="userSpaceOnUse">
<stop stop-color="#5242EE"/>
<stop offset="1" stop-color="#97ECFF"/>
</linearGradient>
<linearGradient id="paint3_linear_1077_19811" x1="-6.36364" y1="6.85106" x2="53.6172" y2="6.31878" gradientUnits="userSpaceOnUse">
<stop stop-color="#5242EE"/>
<stop offset="1" stop-color="#97ECFF"/>
</linearGradient>
</defs>
</svg>
