<svg width="24" height="24" viewBox="0 0 24 24" fill="none" xmlns="http://www.w3.org/2000/svg">
<path d="M17.6752 9.63588C17.6752 9.69108 17.6752 9.74858 17.6752 9.80839C17.6752 9.86819 17.6752 9.92569 17.6752 9.98089C17.6752 10.8641 17.5096 11.7565 17.1783 12.6582C16.8471 13.5598 16.3618 14.374 15.7224 15.1008C15.083 15.8277 14.2918 16.4211 13.3487 16.8811C12.4057 17.3411 11.3178 17.5711 10.0849 17.5711C9.3305 17.5711 8.60828 17.4653 7.91826 17.2537C7.22823 17.0421 6.58882 16.7477 6 16.3705C6.1012 16.3797 6.20471 16.3889 6.31051 16.3981C6.41631 16.4073 6.52442 16.4119 6.63482 16.4119C7.26044 16.4119 7.85385 16.3107 8.41507 16.1083C8.97629 15.9059 9.48691 15.6253 9.94692 15.2665C9.3673 15.2573 8.84979 15.0802 8.39437 14.7351C7.93896 14.3901 7.62845 13.9508 7.46285 13.4172C7.53645 13.4356 7.61695 13.4471 7.70435 13.4517C7.79176 13.4563 7.87686 13.4586 7.95966 13.4586C8.07926 13.4586 8.19887 13.4517 8.31847 13.4379C8.43808 13.4241 8.55308 13.4034 8.66348 13.3758C8.05626 13.247 7.54795 12.9388 7.13854 12.4512C6.72912 11.9636 6.52442 11.3977 6.52442 10.7537C6.52442 10.7445 6.52442 10.7376 6.52442 10.733C6.52442 10.7284 6.52442 10.7261 6.52442 10.7261C6.69922 10.8181 6.89013 10.894 7.09713 10.9538C7.30414 11.0136 7.51345 11.0481 7.72505 11.0573C7.36624 10.8181 7.07873 10.503 6.86253 10.112C6.64632 9.72098 6.53822 9.29547 6.53822 8.83546C6.53822 8.58705 6.57042 8.35014 6.63482 8.12473C6.69922 7.89933 6.79122 7.69002 6.91083 7.49682C7.23284 7.90163 7.59855 8.26734 8.00796 8.59395C8.41738 8.92056 8.85439 9.20577 9.319 9.44958C9.78362 9.69338 10.2758 9.88659 10.7956 10.0292C11.3155 10.1718 11.8514 10.2569 12.4034 10.2845C12.3758 10.1833 12.3574 10.0821 12.3482 9.98089C12.339 9.87969 12.3344 9.77849 12.3344 9.67728C12.3344 9.30927 12.4034 8.96196 12.5414 8.63535C12.6794 8.30874 12.8703 8.02583 13.1141 7.78662C13.3579 7.54742 13.6408 7.35651 13.9628 7.21391C14.2849 7.0713 14.6299 7 14.9979 7C15.3843 7 15.7454 7.0759 16.0812 7.22771C16.417 7.37951 16.7045 7.58422 16.9437 7.84183C17.2473 7.78662 17.5418 7.70382 17.827 7.59342C18.1122 7.48301 18.3836 7.35421 18.6412 7.20701C18.54 7.51062 18.3882 7.78892 18.1858 8.04193C17.9834 8.29494 17.7442 8.50425 17.4682 8.66985C17.735 8.64225 17.9972 8.59395 18.2548 8.52495C18.5124 8.45594 18.7608 8.36624 19 8.25584C18.8252 8.52265 18.6251 8.77335 18.3997 9.00796C18.1743 9.24257 17.9328 9.45187 17.6752 9.63588Z" fill="#5242EE"/>
<circle cx="12" cy="12" r="11.5536" stroke="#5242EE" stroke-width="0.892857"/>
</svg>
