<svg width="24" height="24" viewBox="0 0 24 24" fill="none" xmlns="http://www.w3.org/2000/svg">
<path d="M11.5312 0C9.93749 0 8.44141 0.300778 7.04297 0.902344C5.64452 1.50391 4.42579 2.32421 3.38672 3.36328C2.34765 4.40235 1.52344 5.62109 0.914062 7.01953C0.304684 8.41798 0 9.91405 0 11.5078C0 13.1016 0.304684 14.5976 0.914062 15.9961C1.52344 17.3945 2.34765 18.6133 3.38672 19.6523C4.42579 20.6914 5.64452 21.5156 7.04297 22.125C8.44141 22.7344 9.93749 23.0391 11.5312 23.0391C13.125 23.0391 14.6211 22.7344 16.0195 22.125C17.418 21.5156 18.6367 20.6914 19.6758 19.6523C20.7148 18.6133 21.5391 17.3945 22.1484 15.9961C22.7578 14.5976 23.0625 13.1016 23.0625 11.5078C23.0625 9.91405 22.7578 8.41798 22.1484 7.01953C21.5391 5.62109 20.7148 4.40235 19.6758 3.36328C18.6367 2.32421 17.418 1.50391 16.0195 0.902344C14.6211 0.300778 13.125 0 11.5312 0ZM16.2188 9.42188C16.2188 9.46875 16.2188 9.51953 16.2188 9.57422C16.2188 9.62891 16.2188 9.67969 16.2188 9.72656C16.2188 10.4766 16.0781 11.2344 15.7969 12C15.5156 12.7656 15.1016 13.457 14.5547 14.0742C14.0078 14.6914 13.3359 15.1953 12.5391 15.5859C11.7422 15.9766 10.8203 16.1719 9.77344 16.1719C9.13281 16.1719 8.51953 16.082 7.93359 15.9023C7.34765 15.7227 6.79688 15.4766 6.28125 15.1641C6.375 15.1641 6.46875 15.168 6.5625 15.1758C6.65625 15.1836 6.75 15.1875 6.84375 15.1875C7.375 15.1875 7.8789 15.1016 8.35547 14.9297C8.83203 14.7578 9.26562 14.5234 9.65625 14.2266C9.15625 14.2109 8.71485 14.0547 8.33203 13.7578C7.94922 13.4609 7.67969 13.0859 7.52344 12.6328C7.60156 12.6484 7.67578 12.6602 7.74609 12.668C7.81641 12.6758 7.88281 12.6797 7.94531 12.6797C8.05469 12.6797 8.16016 12.6719 8.26172 12.6562C8.36328 12.6406 8.46094 12.625 8.55469 12.6094C8.03906 12.5 7.60547 12.2383 7.25391 11.8242C6.90234 11.4102 6.72656 10.9297 6.72656 10.3828V10.3594C6.88281 10.4375 7.04687 10.5 7.21875 10.5469C7.39063 10.5938 7.57031 10.625 7.75781 10.6406C7.46094 10.4375 7.21875 10.168 7.03125 9.83203C6.84375 9.49609 6.75 9.13281 6.75 8.74219C6.75 8.53906 6.77734 8.33985 6.83203 8.14453C6.88672 7.94922 6.96094 7.76563 7.05469 7.59375C7.61719 8.28125 8.30078 8.83984 9.10547 9.26953C9.91016 9.69922 10.7891 9.9375 11.7422 9.98438C11.7109 9.89062 11.6914 9.80078 11.6836 9.71484C11.6758 9.62891 11.6719 9.54688 11.6719 9.46875C11.6719 8.84375 11.8945 8.3086 12.3398 7.86328C12.7852 7.41797 13.3203 7.19531 13.9453 7.19531C14.2734 7.19531 14.5781 7.25781 14.8594 7.38281C15.1406 7.50781 15.3906 7.67969 15.6094 7.89844C15.8594 7.85156 16.1055 7.78125 16.3477 7.6875C16.5898 7.59375 16.8203 7.48438 17.0391 7.35938C16.9609 7.625 16.8359 7.86328 16.6641 8.07422C16.4922 8.28516 16.2891 8.46875 16.0547 8.625C16.2734 8.59375 16.4922 8.54688 16.7109 8.48438C16.9297 8.42188 17.1406 8.34375 17.3438 8.25C17.2031 8.48438 17.0352 8.69922 16.8398 8.89453C16.6445 9.08985 16.4375 9.26562 16.2188 9.42188Z" fill="#5242EE"/>
</svg>
