<svg width="41" height="41" viewBox="0 0 41 41" fill="none" xmlns="http://www.w3.org/2000/svg">
<g clip-path="url(#clip0_609_545)">
<path fill-rule="evenodd" clip-rule="evenodd" d="M16.8686 14.7488C16.8686 15.4751 16.3156 16.0629 15.4507 16.0629C14.6196 16.0629 14.0666 15.4751 14.0837 14.7488C14.0666 13.9872 14.6196 13.4165 15.4673 13.4165C16.3156 13.4165 16.852 13.9872 16.8686 14.7488ZM14.1532 25.561V17.101H16.7825V25.5604H14.1532V25.561Z" fill="#0077B5"/>
<path fill-rule="evenodd" clip-rule="evenodd" d="M18.8898 19.8007C18.8898 18.7455 18.8551 17.8459 18.8203 17.102H21.104L21.2255 18.261H21.2773C21.6234 17.7245 22.4882 16.9121 23.8895 16.9121C25.6191 16.9121 26.9166 18.054 26.9166 20.5442V25.562H24.2874V20.8736C24.2874 19.7831 23.9071 19.0397 22.9556 19.0397C22.2288 19.0397 21.7967 19.5413 21.6239 20.0254C21.5544 20.1987 21.5202 20.4404 21.5202 20.6832V25.562H18.8909V19.8007H18.8898Z" fill="#0077B5"/>
</g>
<rect x="1" y="0.916504" width="39" height="39" rx="19.5" stroke="#E9EAEC"/>
<defs>
<clipPath id="clip0_609_545">
<rect width="14" height="14" fill="white" transform="translate(13.5 13.4165)"/>
</clipPath>
</defs>
</svg>
