<svg width="41" height="41" viewBox="0 0 41 41" fill="none" xmlns="http://www.w3.org/2000/svg">
<g clip-path="url(#clip0_609_538)">
<path fill-rule="evenodd" clip-rule="evenodd" d="M27.5 17.4297C26.9853 17.6584 26.4314 17.8124 25.8504 17.8819C26.4435 17.5263 26.899 16.9635 27.1132 16.293C26.5588 16.6224 25.9433 16.8609 25.2895 16.9901C24.7655 16.4321 24.0184 16.083 23.193 16.083C21.6069 16.083 20.3208 17.3691 20.3208 18.9551C20.3208 19.1801 20.3465 19.3994 20.3955 19.6098C18.0082 19.4904 15.892 18.3467 14.4753 16.6089C14.228 17.0331 14.0866 17.5263 14.0866 18.0527C14.0866 19.0489 14.5929 19.9281 15.3642 20.4433C14.8929 20.4283 14.4505 20.2991 14.0628 20.0839V20.1199C14.0628 21.5118 15.0534 22.6724 16.3665 22.937C16.1258 23.0023 15.8719 23.0377 15.6101 23.0377C15.4249 23.0377 15.2447 23.0195 15.0693 22.9859C15.4347 24.1269 16.4958 24.9575 17.7524 24.9808C16.7697 25.7508 15.5313 26.2104 14.1855 26.2104C13.9531 26.2104 13.7245 26.1969 13.5 26.1698C14.7711 26.9845 16.2807 27.4605 17.9027 27.4605C23.1855 27.4605 26.0744 23.0839 26.0744 19.2888C26.0744 19.1642 26.0721 19.0401 26.066 18.9174C26.6279 18.5114 27.115 18.0055 27.5 17.4297Z" fill="#1DA1F2"/>
</g>
<rect x="1" y="1.4165" width="39" height="39" rx="19.5" stroke="#E9EAEC"/>
<defs>
<clipPath id="clip0_609_538">
<rect width="14" height="14" fill="white" transform="translate(13.5 14.9165)"/>
</clipPath>
</defs>
</svg>
